<mxfile host="app.diagrams.net" modified="2023-12-13T07:39:29.885Z" agent="Mozilla/5.0 (Windows NT 10.0; Win64; x64) AppleWebKit/537.36 (KHTML, like Gecko) Chrome/119.0.0.0 Safari/537.36" etag="obL5NY_MOa9V9OSoUYOz" version="21.7.2" type="github">
  <diagram name="画布1" id="画布1">
    <mxGraphModel dx="1434" dy="758" grid="1" gridSize="10" guides="1" tooltips="1" connect="1" arrows="1" fold="1" page="1" pageScale="1" pageWidth="827" pageHeight="1169" math="0" shadow="0">
      <root>
        <mxCell id="0" />
        <mxCell id="1" parent="0" />
        <UserObject label="" tags="Background" id="2">
          <mxCell style="vsdxID=1;fillColor=none;gradientColor=none;shape=stencil(nZBLDoAgDERP0z3SI/i5B4koRAWC+Lu9kMaIxpW7mfZNkw5gOSvhJHA2B28Huek2KMAKONdGSa9DVIA1YNlZL3tvF9OSdyKRSU12TRd2yrGU4OzIXUPgqE0GFuw3evlP+Df6AKO4P6Ry8t27jTiiJrE+AQ==);strokeColor=#000000;spacingTop=-3;spacingBottom=-3;spacingLeft=-3;spacingRight=-3;points=[];labelBackgroundColor=none;rounded=0;html=1;whiteSpace=wrap;" parent="1" vertex="1">
            <mxGeometry x="477" y="806" width="304" height="171" as="geometry" />
          </mxCell>
        </UserObject>
        <UserObject label="" tags="Background" id="3">
          <mxCell style="vsdxID=2;fillColor=none;gradientColor=none;shape=stencil(nZBLDoAgDERP0z3SI/i5B4koRAWC+Lu9kMaIxpW7mfZNkw5gOSvhJHA2B28Huek2KMAKONdGSa9DVIA1YNlZL3tvF9OSdyKRSU12TRd2yrGU4OzIXUPgqE0GFuw3evlP+Df6AKO4P6Ry8t27jTiiJrE+AQ==);strokeColor=#000000;spacingTop=-3;spacingBottom=-3;spacingLeft=-3;spacingRight=-3;points=[];labelBackgroundColor=none;rounded=0;html=1;whiteSpace=wrap;" parent="1" vertex="1">
            <mxGeometry x="1722" y="626" width="278" height="131" as="geometry" />
          </mxCell>
        </UserObject>
        <UserObject label="" tags="Background" id="4">
          <mxCell style="vsdxID=3;fillColor=none;gradientColor=none;shape=stencil(nZBLDoAgDERP0z3SI/i5B4koRAWC+Lu9kMaIxpW7mfZNkw5gOSvhJHA2B28Huek2KMAKONdGSa9DVIA1YNlZL3tvF9OSdyKRSU12TRd2yrGU4OzIXUPgqE0GFuw3evlP+Df6AKO4P6Ry8t27jTiiJrE+AQ==);strokeColor=#000000;spacingTop=-3;spacingBottom=-3;spacingLeft=-3;spacingRight=-3;points=[];labelBackgroundColor=none;rounded=0;html=1;whiteSpace=wrap;" parent="1" vertex="1">
            <mxGeometry x="1720" y="125" width="278" height="115" as="geometry" />
          </mxCell>
        </UserObject>
        <UserObject label="" tags="Background" id="5">
          <mxCell style="vsdxID=4;fillColor=none;gradientColor=none;shape=stencil(nZBLDoAgDERP0z3SI/i5B4koRAWC+Lu9kMaIxpW7mfZNkw5gOSvhJHA2B28Huek2KMAKONdGSa9DVIA1YNlZL3tvF9OSdyKRSU12TRd2yrGU4OzIXUPgqE0GFuw3evlP+Df6AKO4P6Ry8t27jTiiJrE+AQ==);strokeColor=#000000;spacingTop=-3;spacingBottom=-3;spacingLeft=-3;spacingRight=-3;points=[];labelBackgroundColor=none;rounded=0;html=1;whiteSpace=wrap;" parent="1" vertex="1">
            <mxGeometry x="1723" y="818" width="288" height="153" as="geometry" />
          </mxCell>
        </UserObject>
        <UserObject label="" tags="Background" id="6">
          <mxCell style="vsdxID=5;fillColor=none;gradientColor=none;shape=stencil(nZBLDoAgDERP0z3SI/i5B4koRAWC+Lu9kMaIxpW7mfZNkw5gOSvhJHA2B28Huek2KMAKONdGSa9DVIA1YNlZL3tvF9OSdyKRSU12TRd2yrGU4OzIXUPgqE0GFuw3evlP+Df6AKO4P6Ry8t27jTiiJrE+AQ==);strokeColor=#000000;spacingTop=-3;spacingBottom=-3;spacingLeft=-3;spacingRight=-3;points=[];labelBackgroundColor=none;rounded=0;html=1;whiteSpace=wrap;" parent="1" vertex="1">
            <mxGeometry x="966" y="211" width="252" height="271" as="geometry" />
          </mxCell>
        </UserObject>
        <UserObject label="" tags="Background" id="7">
          <mxCell style="vsdxID=6;fillColor=none;gradientColor=none;shape=stencil(nZBLDoAgDERP0z3SI/i5B4koRAWC+Lu9kMaIxpW7mfZNkw5gOSvhJHA2B28Huek2KMAKONdGSa9DVIA1YNlZL3tvF9OSdyKRSU12TRd2yrGU4OzIXUPgqE0GFuw3evlP+Df6AKO4P6Ry8t27jTiiJrE+AQ==);strokeColor=#000000;spacingTop=-3;spacingBottom=-3;spacingLeft=-3;spacingRight=-3;points=[];labelBackgroundColor=none;rounded=0;html=1;whiteSpace=wrap;" parent="1" vertex="1">
            <mxGeometry x="972" y="811" width="551" height="166" as="geometry" />
          </mxCell>
        </UserObject>
        <UserObject label="" tags="Background" id="8">
          <mxCell style="vsdxID=7;fillColor=none;gradientColor=none;shape=stencil(nZBLDoAgDERP0z3SI/i5B4koRAWC+Lu9kMaIxpW7mfZNkw5gOSvhJHA2B28Huek2KMAKONdGSa9DVIA1YNlZL3tvF9OSdyKRSU12TRd2yrGU4OzIXUPgqE0GFuw3evlP+Df6AKO4P6Ry8t27jTiiJrE+AQ==);strokeColor=#000000;spacingTop=-3;spacingBottom=-3;spacingLeft=-3;spacingRight=-3;points=[];labelBackgroundColor=none;rounded=0;html=1;whiteSpace=wrap;" parent="1" vertex="1">
            <mxGeometry x="102" y="806" width="230" height="171" as="geometry" />
          </mxCell>
        </UserObject>
        <UserObject label="&lt;div style=&quot;font-size: 1px&quot;&gt;&lt;p style=&quot;text-align:center;margin-left:0;margin-right:0;margin-top:0px;margin-bottom:0px;text-indent:0;vertical-align:middle;direction:ltr;&quot;&gt;&lt;font style=&quot;font-size:12px;font-family:0;color:#000000;direction:ltr;letter-spacing:0px;line-height:120%;opacity:1&quot;&gt;&lt;b&gt;Nginx&lt;/b&gt;&lt;/font&gt;&lt;/p&gt;&lt;/div&gt;" tags="Background" id="9">
          <mxCell style="verticalAlign=middle;align=center;overflow=width;vsdxID=8;fillColor=none;gradientColor=none;image;aspect=fixed;image=data:image/png,iVBORw0KGgoAAAANSUhEUgAAACQAAABQCAYAAABxs9dPAAAAAXNSR0IArs4c6QAAA9FJREFUaEPtmktME1EUhv87nbbTlr6gQAFbHhqNxkQTRYNRjNH4AkmMC10Yda2JKzcmunCvLt24cSsmGOOWpa8Yja9E4hsliLSlLfQ5nZeZQQplkLY46Yw6s53bc77573/PnDu9pKP7cFCg+RsEpB+AFbpcEieB3KdF/iwJ9ewfIiBHdeFYlFQChki450BBP2VUMhRkIMkI6swxmEDlZoNcvTVkrCk7fv6SsYBMU5cx0d+xyoivqdxi0OS+lIyo4iypUGjHIRDGrRo8kZjWBEQJIgrgXg1XBrS6tx+XTh4rGTz8+h0GH77QB4he16Nd4mUi8e8eV6YQ1dBWEyBxarwyoK5dfWhpUUM9/fBVO9BqPCQDnTq4pyT5++9R3Hn0Uh8gy5qt2iVeJpLw8VllU1YTmt8kWbIOUf6WmjCJiYnKFOra1Q+Ls041eDSS0A60OlP348KJgZLkD95+0s/U9Npt2imxXGF8/7SyKaOaOmoCJEZGKwOS61B7KKQa/GDki3ag1XmoDyf29ZYkH43EdfRQ5ybtlFjOQ19eVTZlNaGppjCaQAsUWPLVYbiXq/zq2Nu9uWTmMiyn3yqTgbo3blBZaeiJelWs2G/V1CHDtbCGa/LlbdCpQ4ta2PEIBh/q1MLKQMFgq8oeujX5httKr3jlaPDDv+PrhwYPuuIQpkLlpDMVMhUqp0C5+6aHyiu0s89Yfy2s6jtjLKC5/zrymSzS8QT8Lc1ITEzC5fcik5gG43KCZwsQRQFWhgGbzcETqMdMLA5PYwAz0Rjc9X6k4gnYHAwEQYBQ4OCocyGXzsDbGMB0NFYcOxfXxtghK8HlWQRC898zi6aWgeLj39Hc1YHJz6PwtwaRik7B6fWUAGVnUvAHmxAbG0cgHELs2xga2lqVpEydqwRIfsD6tlZEv40Vx8px01MJ2J0OBaiQzaKxPVy0lglkKrTQ1KaHzFVm1iEAZmE0C+O/XRjzqRTcgQakYlOw17nApjOgbTbwBfkQFmCxWiFwnNKSZKdn4PT5kE0m4XC7kUulQNG00n4QSYLVbgfHsnD5fMgkk8Wxc3Epi0VpPyRBgC/YPN9+XLx201gd47kr140F9P8e17FQgCCW7IJoEPCKk+avmmwUmXYvvL1hZN5GkX7+Q8m+nrLjtM2Dx3wO9/i0uqcut4H7k/u+3WHYO7yQ8jwit0eUUMetHmy1MOAkCZfZKIRfCWqiEOWg4d4SRO5TEoWJWTUYQjBAu/FGyGNEnC0r8lUToGrUNd7RUyMdzgUwSDq3723mKfoGgXQEIDodX0aeAHeJnT37E2WXxf6oy9/MAAAAAElFTkSuQmCC;strokeColor=none;strokeWidth=0;points=[];labelBackgroundColor=none;rounded=0;html=1;whiteSpace=wrap;" parent="1" vertex="1">
            <mxGeometry x="145" y="847" width="36" height="80" as="geometry" />
          </mxCell>
        </UserObject>
        <UserObject label="&lt;div style=&quot;font-size: 1px&quot;&gt;&lt;p style=&quot;text-align:center;margin-left:0;margin-right:0;margin-top:0px;margin-bottom:0px;text-indent:0;vertical-align:middle;direction:ltr;&quot;&gt;&lt;font style=&quot;font-size:12px;font-family:0;color:#000000;direction:ltr;letter-spacing:0px;line-height:120%;opacity:1&quot;&gt;&lt;b&gt;Nginx&lt;/b&gt;&lt;/font&gt;&lt;/p&gt;&lt;/div&gt;" tags="Background" id="10">
          <mxCell style="verticalAlign=middle;align=center;overflow=width;vsdxID=9;fillColor=none;gradientColor=none;image;aspect=fixed;image=data:image/png,iVBORw0KGgoAAAANSUhEUgAAACQAAABQCAYAAABxs9dPAAAAAXNSR0IArs4c6QAAA9FJREFUaEPtmktME1EUhv87nbbTlr6gQAFbHhqNxkQTRYNRjNH4AkmMC10Yda2JKzcmunCvLt24cSsmGOOWpa8Yja9E4hsliLSlLfQ5nZeZQQplkLY46Yw6s53bc77573/PnDu9pKP7cFCg+RsEpB+AFbpcEieB3KdF/iwJ9ewfIiBHdeFYlFQChki450BBP2VUMhRkIMkI6swxmEDlZoNcvTVkrCk7fv6SsYBMU5cx0d+xyoivqdxi0OS+lIyo4iypUGjHIRDGrRo8kZjWBEQJIgrgXg1XBrS6tx+XTh4rGTz8+h0GH77QB4he16Nd4mUi8e8eV6YQ1dBWEyBxarwyoK5dfWhpUUM9/fBVO9BqPCQDnTq4pyT5++9R3Hn0Uh8gy5qt2iVeJpLw8VllU1YTmt8kWbIOUf6WmjCJiYnKFOra1Q+Ls041eDSS0A60OlP348KJgZLkD95+0s/U9Npt2imxXGF8/7SyKaOaOmoCJEZGKwOS61B7KKQa/GDki3ag1XmoDyf29ZYkH43EdfRQ5ybtlFjOQ19eVTZlNaGppjCaQAsUWPLVYbiXq/zq2Nu9uWTmMiyn3yqTgbo3blBZaeiJelWs2G/V1CHDtbCGa/LlbdCpQ4ta2PEIBh/q1MLKQMFgq8oeujX5httKr3jlaPDDv+PrhwYPuuIQpkLlpDMVMhUqp0C5+6aHyiu0s89Yfy2s6jtjLKC5/zrymSzS8QT8Lc1ITEzC5fcik5gG43KCZwsQRQFWhgGbzcETqMdMLA5PYwAz0Rjc9X6k4gnYHAwEQYBQ4OCocyGXzsDbGMB0NFYcOxfXxtghK8HlWQRC898zi6aWgeLj39Hc1YHJz6PwtwaRik7B6fWUAGVnUvAHmxAbG0cgHELs2xga2lqVpEydqwRIfsD6tlZEv40Vx8px01MJ2J0OBaiQzaKxPVy0lglkKrTQ1KaHzFVm1iEAZmE0C+O/XRjzqRTcgQakYlOw17nApjOgbTbwBfkQFmCxWiFwnNKSZKdn4PT5kE0m4XC7kUulQNG00n4QSYLVbgfHsnD5fMgkk8Wxc3Epi0VpPyRBgC/YPN9+XLx201gd47kr140F9P8e17FQgCCW7IJoEPCKk+avmmwUmXYvvL1hZN5GkX7+Q8m+nrLjtM2Dx3wO9/i0uqcut4H7k/u+3WHYO7yQ8jwit0eUUMetHmy1MOAkCZfZKIRfCWqiEOWg4d4SRO5TEoWJWTUYQjBAu/FGyGNEnC0r8lUToGrUNd7RUyMdzgUwSDq3723mKfoGgXQEIDodX0aeAHeJnT37E2WXxf6oy9/MAAAAAElFTkSuQmCC;strokeColor=none;strokeWidth=0;points=[];labelBackgroundColor=none;rounded=0;html=1;whiteSpace=wrap;" parent="1" vertex="1">
            <mxGeometry x="262" y="852" width="36" height="80" as="geometry" />
          </mxCell>
        </UserObject>
        <UserObject label="&lt;div style=&quot;font-size: 1px&quot;&gt;&lt;p style=&quot;text-align:center;margin-left:0;margin-right:0;margin-top:0px;margin-bottom:0px;text-indent:0;vertical-align:middle;direction:ltr;&quot;&gt;&lt;font style=&quot;font-size:12px;font-family:0;color:#000000;direction:ltr;letter-spacing:0px;line-height:120%;opacity:1&quot;&gt;&lt;b&gt;api gateway&lt;/b&gt;&lt;/font&gt;&lt;/p&gt;&lt;/div&gt;" tags="Background" id="11">
          <mxCell style="verticalAlign=middle;align=center;overflow=width;vsdxID=10;fillColor=none;gradientColor=none;image;aspect=fixed;image=data:image/png,iVBORw0KGgoAAAANSUhEUgAAACQAAABQCAYAAABxs9dPAAAAAXNSR0IArs4c6QAAA9FJREFUaEPtmktME1EUhv87nbbTlr6gQAFbHhqNxkQTRYNRjNH4AkmMC10Yda2JKzcmunCvLt24cSsmGOOWpa8Yja9E4hsliLSlLfQ5nZeZQQplkLY46Yw6s53bc77573/PnDu9pKP7cFCg+RsEpB+AFbpcEieB3KdF/iwJ9ewfIiBHdeFYlFQChki450BBP2VUMhRkIMkI6swxmEDlZoNcvTVkrCk7fv6SsYBMU5cx0d+xyoivqdxi0OS+lIyo4iypUGjHIRDGrRo8kZjWBEQJIgrgXg1XBrS6tx+XTh4rGTz8+h0GH77QB4he16Nd4mUi8e8eV6YQ1dBWEyBxarwyoK5dfWhpUUM9/fBVO9BqPCQDnTq4pyT5++9R3Hn0Uh8gy5qt2iVeJpLw8VllU1YTmt8kWbIOUf6WmjCJiYnKFOra1Q+Ls041eDSS0A60OlP348KJgZLkD95+0s/U9Npt2imxXGF8/7SyKaOaOmoCJEZGKwOS61B7KKQa/GDki3ag1XmoDyf29ZYkH43EdfRQ5ybtlFjOQ19eVTZlNaGppjCaQAsUWPLVYbiXq/zq2Nu9uWTmMiyn3yqTgbo3blBZaeiJelWs2G/V1CHDtbCGa/LlbdCpQ4ta2PEIBh/q1MLKQMFgq8oeujX5httKr3jlaPDDv+PrhwYPuuIQpkLlpDMVMhUqp0C5+6aHyiu0s89Yfy2s6jtjLKC5/zrymSzS8QT8Lc1ITEzC5fcik5gG43KCZwsQRQFWhgGbzcETqMdMLA5PYwAz0Rjc9X6k4gnYHAwEQYBQ4OCocyGXzsDbGMB0NFYcOxfXxtghK8HlWQRC898zi6aWgeLj39Hc1YHJz6PwtwaRik7B6fWUAGVnUvAHmxAbG0cgHELs2xga2lqVpEydqwRIfsD6tlZEv40Vx8px01MJ2J0OBaiQzaKxPVy0lglkKrTQ1KaHzFVm1iEAZmE0C+O/XRjzqRTcgQakYlOw17nApjOgbTbwBfkQFmCxWiFwnNKSZKdn4PT5kE0m4XC7kUulQNG00n4QSYLVbgfHsnD5fMgkk8Wxc3Epi0VpPyRBgC/YPN9+XLx201gd47kr140F9P8e17FQgCCW7IJoEPCKk+avmmwUmXYvvL1hZN5GkX7+Q8m+nrLjtM2Dx3wO9/i0uqcut4H7k/u+3WHYO7yQ8jwit0eUUMetHmy1MOAkCZfZKIRfCWqiEOWg4d4SRO5TEoWJWTUYQjBAu/FGyGNEnC0r8lUToGrUNd7RUyMdzgUwSDq3723mKfoGgXQEIDodX0aeAHeJnT37E2WXxf6oy9/MAAAAAElFTkSuQmCC;strokeColor=none;strokeWidth=0;points=[];labelBackgroundColor=none;rounded=0;html=1;whiteSpace=wrap;" parent="1" vertex="1">
            <mxGeometry x="529" y="853" width="36" height="80" as="geometry" />
          </mxCell>
        </UserObject>
        <UserObject label="&lt;div style=&quot;font-size: 1px&quot;&gt;&lt;p style=&quot;text-align:center;margin-left:0;margin-right:0;margin-top:0px;margin-bottom:0px;text-indent:0;vertical-align:middle;direction:ltr;&quot;&gt;&lt;font style=&quot;font-size:12px;font-family:0;color:#000000;direction:ltr;letter-spacing:0px;line-height:120%;opacity:1&quot;&gt;&lt;b&gt;api gateway&lt;/b&gt;&lt;/font&gt;&lt;/p&gt;&lt;/div&gt;" tags="Background" id="12">
          <mxCell style="verticalAlign=middle;align=center;overflow=width;vsdxID=11;fillColor=none;gradientColor=none;image;aspect=fixed;image=data:image/png,iVBORw0KGgoAAAANSUhEUgAAACQAAABQCAYAAABxs9dPAAAAAXNSR0IArs4c6QAAA9FJREFUaEPtmktME1EUhv87nbbTlr6gQAFbHhqNxkQTRYNRjNH4AkmMC10Yda2JKzcmunCvLt24cSsmGOOWpa8Yja9E4hsliLSlLfQ5nZeZQQplkLY46Yw6s53bc77573/PnDu9pKP7cFCg+RsEpB+AFbpcEieB3KdF/iwJ9ewfIiBHdeFYlFQChki450BBP2VUMhRkIMkI6swxmEDlZoNcvTVkrCk7fv6SsYBMU5cx0d+xyoivqdxi0OS+lIyo4iypUGjHIRDGrRo8kZjWBEQJIgrgXg1XBrS6tx+XTh4rGTz8+h0GH77QB4he16Nd4mUi8e8eV6YQ1dBWEyBxarwyoK5dfWhpUUM9/fBVO9BqPCQDnTq4pyT5++9R3Hn0Uh8gy5qt2iVeJpLw8VllU1YTmt8kWbIOUf6WmjCJiYnKFOra1Q+Ls041eDSS0A60OlP348KJgZLkD95+0s/U9Npt2imxXGF8/7SyKaOaOmoCJEZGKwOS61B7KKQa/GDki3ag1XmoDyf29ZYkH43EdfRQ5ybtlFjOQ19eVTZlNaGppjCaQAsUWPLVYbiXq/zq2Nu9uWTmMiyn3yqTgbo3blBZaeiJelWs2G/V1CHDtbCGa/LlbdCpQ4ta2PEIBh/q1MLKQMFgq8oeujX5httKr3jlaPDDv+PrhwYPuuIQpkLlpDMVMhUqp0C5+6aHyiu0s89Yfy2s6jtjLKC5/zrymSzS8QT8Lc1ITEzC5fcik5gG43KCZwsQRQFWhgGbzcETqMdMLA5PYwAz0Rjc9X6k4gnYHAwEQYBQ4OCocyGXzsDbGMB0NFYcOxfXxtghK8HlWQRC898zi6aWgeLj39Hc1YHJz6PwtwaRik7B6fWUAGVnUvAHmxAbG0cgHELs2xga2lqVpEydqwRIfsD6tlZEv40Vx8px01MJ2J0OBaiQzaKxPVy0lglkKrTQ1KaHzFVm1iEAZmE0C+O/XRjzqRTcgQakYlOw17nApjOgbTbwBfkQFmCxWiFwnNKSZKdn4PT5kE0m4XC7kUulQNG00n4QSYLVbgfHsnD5fMgkk8Wxc3Epi0VpPyRBgC/YPN9+XLx201gd47kr140F9P8e17FQgCCW7IJoEPCKk+avmmwUmXYvvL1hZN5GkX7+Q8m+nrLjtM2Dx3wO9/i0uqcut4H7k/u+3WHYO7yQ8jwit0eUUMetHmy1MOAkCZfZKIRfCWqiEOWg4d4SRO5TEoWJWTUYQjBAu/FGyGNEnC0r8lUToGrUNd7RUyMdzgUwSDq3723mKfoGgXQEIDodX0aeAHeJnT37E2WXxf6oy9/MAAAAAElFTkSuQmCC;strokeColor=none;strokeWidth=0;points=[];labelBackgroundColor=none;rounded=0;html=1;whiteSpace=wrap;" parent="1" vertex="1">
            <mxGeometry x="703" y="853" width="36" height="80" as="geometry" />
          </mxCell>
        </UserObject>
        <UserObject label="&lt;div style=&quot;font-size: 1px&quot;&gt;&lt;p style=&quot;text-align:center;margin-left:0;margin-right:0;margin-top:0px;margin-bottom:0px;text-indent:0;vertical-align:middle;direction:ltr;&quot;&gt;&lt;font style=&quot;font-size:12px;font-family:0;color:#000000;direction:ltr;letter-spacing:0px;line-height:120%;opacity:1&quot;&gt;&lt;b&gt;防火墙&lt;/b&gt;&lt;/font&gt;&lt;/p&gt;&lt;/div&gt;" tags="Background" id="13">
          <mxCell style="verticalAlign=middle;align=center;overflow=width;vsdxID=12;fillColor=none;gradientColor=none;image;aspect=fixed;image=data:image/png,iVBORw0KGgoAAAANSUhEUgAAAEsAAAA1CAYAAAAJZhZbAAAAAXNSR0IArs4c6QAADABJREFUaEPlW3l8VNUV/u6bN/tMIgkawiYgoAhYBZWqQBFbC4hL0URCIyAokUWwEnAXEFFMMIQICkIUQTCAICi4BURRERUsRaUKUgQRI0tIMvu8mff6O3ec+WWSWd6kE4jl/AVzz92+nHfvOd85l9UUZFcBSEXyxaVRhI7mB8qOVhTeYTYpnl8AWGNNw8ypUBzVia7E5mT6zBZTljuczw5t4/PJ+8BgSHQQFfrVrKYgW1Gh2CAVv+Br1yx/3aHK2VmposDojxJTTNmPwrnmKUCR46mGtftk5Zy0B9dUn3x2aButXz6cUOcElJsQWAzWySvg+bgM3i/eTGALwFkHFjNYYLm3FPBJcCzNh3yqQjVgZx9YphRYxi/mAPkrDsC1aiYUr0sVYGc1WISQXPkzXOsKIZ+ieyG2nHVgERyW+5aBafUcIKFZJhRHFZxlT3DgYslZCZbp9sehadsVrrWzoe05CGK7S6A4TsHx8hQoLltUvE4nWB4Aunimnmi7rscASJUVXa3ZD+9V6zoYb5wE8aKr4XqjEL4fdsKU/Rg053eD77vtcL0174yCxQAvsxdktWCSnyUKRjx90/gXbkLqeQ8BGMoY2+GYm5sJpzO2n3X/sgIYzLnuTfMh7f0YzNIM5tFzwXRG+CsOjvC8lF9edwBZp/itU944Fvz911k5GRZ4hHjrS7SdVp50kGovQlEUOp1bAMhjjL0Yb4GKoswBMNn9/mJI/9rM1clC9dfdSf98nTGWFW+Mxmwnp/TDuBMwHHdCP5JCCtKtLsguZ4AlXj/joPHtxK59CSx4P1t7yPPJ6phXmyl3VidNZsd056qZ8B/+hg9P1mUZuxCK5JHtxcO/iDenmnYG2KxTV19PuraC7HJFxV74WtSGOwr8nVOnrt2vlAzU29xWt5pFiRf0gHHIAyFV8sw9H60EUD/CEs7JgPnuEijOatgX5IXpmEc8A+G8dnCtmQXfj3vUTB1Xx2qwGVBpUWwmRme2KmlUsMgNIHegtrjfWwRpzwf1FqfvmwNdr1vg3bkRnq3Lw9r112RBd/Vt8H71DjxblqraWDylJgcWLZishazG8+ka0KYVtwOOJZPCXAFNq84wDZvJ9+dYPBFy1a9he9V2vxaGAffAt+8LuDY8Gw8HVe1NE6xRRRDSW8GxdAoM190JTZuLIe1+H+7y0sCZpDfBNHx2ANAPXoF319v1NqvrOQj6/iMg7S6Hu3wJb9e07AyxyzUQUs8DBA0Ut537ZN7P3+SfcjxpmmD9dt44XpnK128eUQD4vLAvGMNjP+MtkyF2uhL+w9/CueqJiHukT5Cs0rv99ZCF0m+1xbf/S3g+XF7PKqOB1jTBypsPIeXc0OdlypkBTeuL4N5cCvnEEZiGTqObDo4l90GxV0bcm75fLnRX3AjPlpe5FemvHR6m59pQBN++z+MZU1h7kwOLGa2wTFgCxeOEvYT7StB27QvDoPGQjx/mIGladoL38/XwbHst6mYNA8dC260ft6ygRcknj0BIbx3xQlCDWqOCxZiUQZ5yQq5D+0thvO0h+H/aC2fZjMAeNFpYxr/IzyoSblUv3MMBjSbBsCfYLn29FfKxH7mz6v3q3YDFJSgNAstWOLRf3HmY/5g1f83eoF7VnKyegk/Rx+tnurt4oiat1e10E5JVBCV4TtH/yY0gdyKWmO8q5iwEB9d2Eo7Sf0Bo2YnHjorLttNeMmpSvLXUbldEjZSav+pL+k3tXkiX7S8ZqO9Y2UtKZDJVutOmkedJHnsGHe7ysUOhbrqrboW+dzb/P7kC5BLEBOvOORCat+Eqnq3L4N25CczcDJZxC+knL4VUjLFTwTGU6dOTHhtysGoKs6uhIEUVAAkoac5t6zGNLNTL1cfheHFCWE+xw2Uw3vog/80+b2RcRtQweCK0Xa7h+uSC0HlHYsqZDk3rLoDX/STTGx+rnJ3VVhTYPgBxrT6BrQQsGjil2oNPdHDDX0ZDe+n1kP75HtybXwrrLqQ0hzlvAaePncsfjju07o9/g77PUO7I2uffFdLXtLoQpmHkbiiVAGtbWZST9vvL7og6WMYt4oe4c/lD8Ff8px4g1imrIH27De63F8QFKxhjEsdFXFdtIQslSwUws7IoZ/HvDixttz/BMHAc/1zos4kk5jHzIX3zYdjBHxU1UQvrvS9D+m473O88H26lzdvAPLIQYMzj/HRtb//21fzgbgxplM8w6HhS0EvBbyQhZ9S7u5yzoGrEcMMEHldGchMMA/Kg7d4f8LrW2eaNHKJmvIboJB0suuLpqofs5+dLNP+JHE3pq3fh//WgqnWL7S/lnj8lYesKM6XCPOY5nuxwvPIA98EaQ5IOlu7ywdBfewf8h76Gc/WTUddMsZ5nx3rAr9JrYQK0l/QPMah1B9ZdNQT63rfDf3Q/nCsebQys1JN/amc3DL4X2i69Q0FvtH6a87tzQBMRpjNA8UbmHcmqzGMXBi6Vshk8aki2MFtBtkMBArFHEiTobcdlNUUtT9UnU8iiybKlf38K98aSZA5NY3lZzfzh6UK1JCZjZLHbdVb9TaP301j2eSOiWkEy5oo0BnFbdHbxnW1bdbH0yYbINEZDFmBuYHZHeXpYs0oz89edM21EcR+kNN8Yy2WI+lm2uABC89aQvvmoIVsJ9THekg+x0xWQ3c5pVYvHFEcbLH3iihpqqy7KSvOJOp+aSdUe8CcgaLqk5L92QpmepbOZGFVs1Iu/gmkrSmNROitRocIQ76534N2xLtGuIX0KfygMImqaKOoo4rE6lZRdmc2UztVVtBeNmgnVggU12R3d5TdwYi6QxVmhZv4wHXJkyaGlvonWaNUeyHLP82DWdDgWTYBcczziOhpE0SQzFRa0LO+XGznFm6jQLUq3KYlz2YOqfbC68wQpoGAZQKR1nHGwtJf9FYY/j+Kpd0rBJypihx4w3hrIM0p7tsD9XtwkdsQpiP4hGqguj1Zb+YyDJV7QE8YhU0GUr+OlyYlihSB9TB39P38P58rHEx6DOuh63Qx932Exj4MzDlaQc6cF2+bewbM4aiUUJv3WIRIPpnYsopvpSIiWWqNxzjhYtIiQU/rWPNVBMvWjND9RMQCI/Br1v4BFeUhNRntephQtUG8SYAVzfBTMUlCrRjSZHWHMfhTw+8CM1u4AvqYCXMpcJypCWktepkRifz6PVw+e9gNebXaHGcy86gWijhN7RPDFE2PWI7zKz7NtpU/fd9hFAH6QK4/yxESiQlSO9uI+8VL9itVgM/LCEDNzQ1FXesUakt1xzRlyvkfWRg2RrKOLhgtpLR8nesZRel/MVxNkVabcWVBkucq2cuYVKbnTjtCRp0gekeca5XqBQlT8QjUTiiL59mwe7Hi/9EAkZUWQfPSYgdri7aV2f3Z81pDMpEXRtUY2TS17FaK2v+/gbrhefzrqBoM5QbnmxAz3/DyeEzNNLVsPUXtlIuwBXS5EOlJdBeynnnKW3JW47xLDjGWrxkesg0dphJpSZkohyuQkEzTpRJe41hXUy+KQl03etuKsgX3RuBALESox2rEeno+jZ6qDe6OYkrh4KhPw//IDnK8+kujXq0bfpTrcUTNaXR1t/9w+hh6Dl4Gx9vKJnzgZWPvADZYS1a27opS+6e9PciLPte6ZmJXK5NsZbpzEWVLFJ33reCGvK9HPjSGNChY9dDpn8lobfNJWiNpLaBNUrCbtepvTN6Hq5Dfnwvf9jrD9GQaMhbZ7P/gO7OJWGUkCNy9V0/DS2B3eTcWjPHs/Sz7r99vkjQ4WHaT2DcUZhj/0ryB2lIRqqSh+pFwgv+KfG81/CztMtXqYqLYrpTmkvZ8EsjqyH5oWHSBeeBXEzr14TRdPf0rehdDqJ1UW5WT87lJhwU3XfUIndrwcVJhGDwOCQq8nHKX3R7QcIfVcXlgipLUKZKF1RtBvob4nj8C9ZSk8B/f8/z6howNZ1/OGQAKCrGZTgN2MJMSpG2+ezB8PhP4IR77j9Q6+/YEaidP5wuKMPc6k655iQv9RKk+ILWSRcs0JnuSo+1rsrAArHkBq208bWNUF2VWscd5IV2kUoWsib6TVglNH75iT6TvQgwZ6WqOAHUhmtio0l4Lj/wVaJdhtQaL0cAAAAABJRU5ErkJggg==;strokeColor=none;strokeWidth=0;points=[];labelBackgroundColor=none;rounded=0;html=1;whiteSpace=wrap;" parent="1" vertex="1">
            <mxGeometry x="167" y="588" width="99" height="67" as="geometry" />
          </mxCell>
        </UserObject>
        <UserObject label="&lt;div style=&quot;font-size: 1px&quot;&gt;&lt;p style=&quot;text-align:center;margin-left:0;margin-right:0;margin-top:0px;margin-bottom:0px;text-indent:0;vertical-align:middle;direction:ltr;&quot;&gt;&lt;font style=&quot;font-size:12px;font-family:0;color:#000000;direction:ltr;letter-spacing:0px;line-height:120%;opacity:1&quot;&gt;&lt;b&gt;互联网&lt;/b&gt;&lt;/font&gt;&lt;/p&gt;&lt;/div&gt;" tags="Background" id="14">
          <mxCell style="verticalAlign=middle;align=center;overflow=width;vsdxID=13;fillColor=none;gradientColor=none;image;aspect=fixed;image=data:image/png,iVBORw0KGgoAAAANSUhEUgAAAEwAAAAwCAYAAAC7d5yRAAAAAXNSR0IArs4c6QAABKdJREFUaEPtmmtoHFUUx/9nxqTJBx+gVastCCpqK2pmE0SiYqEilUolk5U2FmsRrVgC2dlYESlu8bWY7CQ+qFYEP5T2Q3ZnKxX7RSHFFlokmWlFqhBQQdFEi0UruKm798hsm5A2j53Hzj6mGdhPe87/nv9v795l7zmEGn16DKtdhmhnUDvAKwBcA9DVACYB/DD9IukINeSPpR5rPVUJK1SJRZyu8eL+kZsLTBvA2ADQnU7zinFERwD+Whb0YV9ny5irXBfBNQEsMTx82Zk/r0wy8AKAZhf1zw4lmgAjqastg7505kmuOrDezIl7C1IhSYyHymmQgC8BvJZSla/KrFtOOXdasYy1mQjvAXy5u0yH0YQ8ATtSHUrSYUbJsKrtMC1tvgQJZTNSwuk+XVWeLEnDQUBVgGmG+S6Abgf1lTGE9+pqZJNfwYoD04zRTwB62m/hXvIZYtuA2rrLS+5UTkWBxYyRLoK010/BfnOJaFOqo8VzDWUD1n1wbEnTZG75f/ncCsjSRFNjw3hy3V2npwx2D5lLG2RYAG70a9pPPhF+LXBT66C68jcvOr6B9WaPb2EWXQysubgABv4AOM2S1CcJ3gngKS9Flj1H8E49Gkl40fUMLJYefQAyvUyMtV4WrmaOn13mCZiWtaJgHqqmad9re9xlroFp6dEEJHrVd8FVF2BTVyMRt2W4AqZlj68Di8/cLlKr8cxoG+hURtzU5xhYj3FymYScLX6DmwVqOZaA11OqssNNjY6BaRnrfRBvcyNeB7HHdFW5z02djoD17LeukgSfBLDMjXgdxI7rquLKkyNgMcN8hoCP6wCA6xKv+Puv5sSW1TmniSWBbTdOLM+jsBvAo05F6ymOWNyR6mz93mnN8wKLDf3cTPKpBMDbnYrVYxzJWJV6XLGPG0fPnMC0jKky+A0ius2RSh0HMXM3s/i2sXFy9O31958pZWUWsHjWepiZDwBoKpUcsvcnwLxHAvb0d0a+mc/bBcDs+3VBhU8BXB8yGG7tvJUrLHlz1xOr/rk4cRrY+cP9CwC3u1UPZzxZQuS1wWjboZn+poHFDbOfgXg4zXt3JURh9UxoRWBxw2pjiKMAyd6lw5spkXxdf8fdv9sOi8A0w7SvbLvCa9m3swO6qqwvAosZ5hoC7LNr8VmAAIG3ptTIRxTLmM8T4YNFWiUJjOqq0kpa1uoDc2/J8MUAsBCPkGaYn4f1f2LZP2PmfhvYjwBuKrt4CAUZOEpaxjwLQkMI/QVh6SfSDOsXgKvaXA3CWUCaZymeNS1m3BPQAmGTPW1/JfeBsDFszgLy8x3F0+ZalnAwoAVCJcuEQ+f+GmXMMRBuCZW7AMww+JVzwELTzQ6A0gxJu/FbBGY3aWXKjTCHp0kbADpDV5XO6fuwxV22MGIW/OBANHL4givqWNYcLvf4dwCfdOUlZ0z6zGqCaIbJla+ollekhK622MOAxWfONlvMsHYT+LlatlGR2uaYIZu3kWufaSTTs5fsD8E8A3cLjgoUR5zEv1sh0eZL6EbDYMHv2Af8XLu45GzFVNL5Mc0oEW5lpqVgvjYEtxz2lPc4EyYIlJGEOLxQE9dm8T/wrY0WvokWwQAAAABJRU5ErkJggg==;strokeColor=none;strokeWidth=0;points=[];labelBackgroundColor=none;rounded=0;html=1;whiteSpace=wrap;" parent="1" vertex="1">
            <mxGeometry x="166" y="264" width="102" height="62" as="geometry" />
          </mxCell>
        </UserObject>
        <UserObject label="&lt;div style=&quot;font-size: 1px&quot;&gt;&lt;p style=&quot;text-align:center;margin-left:0;margin-right:0;margin-top:0px;margin-bottom:0px;text-indent:0;vertical-align:middle;direction:ltr;&quot;&gt;&lt;font style=&quot;font-size:17px;font-family:0;color:#000000;direction:ltr;letter-spacing:0px;line-height:120%;opacity:1&quot;&gt;&lt;b&gt;Nginx&lt;/b&gt;&lt;/font&gt;&lt;font style=&quot;font-size:17px;font-family:0;color:#000000;direction:ltr;letter-spacing:0px;line-height:120%;opacity:1&quot;&gt;&lt;b&gt;高可用集群&lt;/b&gt;&lt;/font&gt;&lt;/p&gt;&lt;/div&gt;" tags="Background" id="15">
          <mxCell style="verticalAlign=middle;align=center;overflow=width;vsdxID=14;fillColor=none;gradientColor=none;shape=stencil(nZBLDoAgDAVP0z3SIyjeg0SURgWD+Lu9EGL8xBW7N828Ji1gOWs5KeBs9s72aqPGa8AKOCejlSMfEqAALFvrVOfsYprEk4xmTKNd44Y99VhscHY8qU7iQOYhFixbvfhXzlZfYgj3hQG+54dReh2KEw==);strokeColor=none;strokeWidth=0;spacingTop=-3;spacingBottom=-3;spacingLeft=-3;spacingRight=-3;points=[];labelBackgroundColor=none;rounded=0;html=1;whiteSpace=wrap;" parent="1" vertex="1">
            <mxGeometry x="177" y="986" width="87" height="45" as="geometry" />
          </mxCell>
        </UserObject>
        <UserObject label="&lt;div style=&quot;font-size: 1px&quot;&gt;&lt;p style=&quot;text-align:center;margin-left:0;margin-right:0;margin-top:0px;margin-bottom:0px;text-indent:0;vertical-align:middle;direction:ltr;&quot;&gt;&lt;font style=&quot;font-size:12px;font-family:0;color:#000000;direction:ltr;letter-spacing:0px;line-height:120%;opacity:1&quot;&gt;&lt;b&gt;api gateway&lt;/b&gt;&lt;/font&gt;&lt;/p&gt;&lt;/div&gt;" tags="Background" id="16">
          <mxCell style="verticalAlign=middle;align=center;overflow=width;vsdxID=15;fillColor=none;gradientColor=none;image;aspect=fixed;image=data:image/png,iVBORw0KGgoAAAANSUhEUgAAACQAAABQCAYAAABxs9dPAAAAAXNSR0IArs4c6QAAA9FJREFUaEPtmktME1EUhv87nbbTlr6gQAFbHhqNxkQTRYNRjNH4AkmMC10Yda2JKzcmunCvLt24cSsmGOOWpa8Yja9E4hsliLSlLfQ5nZeZQQplkLY46Yw6s53bc77573/PnDu9pKP7cFCg+RsEpB+AFbpcEieB3KdF/iwJ9ewfIiBHdeFYlFQChki450BBP2VUMhRkIMkI6swxmEDlZoNcvTVkrCk7fv6SsYBMU5cx0d+xyoivqdxi0OS+lIyo4iypUGjHIRDGrRo8kZjWBEQJIgrgXg1XBrS6tx+XTh4rGTz8+h0GH77QB4he16Nd4mUi8e8eV6YQ1dBWEyBxarwyoK5dfWhpUUM9/fBVO9BqPCQDnTq4pyT5++9R3Hn0Uh8gy5qt2iVeJpLw8VllU1YTmt8kWbIOUf6WmjCJiYnKFOra1Q+Ls041eDSS0A60OlP348KJgZLkD95+0s/U9Npt2imxXGF8/7SyKaOaOmoCJEZGKwOS61B7KKQa/GDki3ag1XmoDyf29ZYkH43EdfRQ5ybtlFjOQ19eVTZlNaGppjCaQAsUWPLVYbiXq/zq2Nu9uWTmMiyn3yqTgbo3blBZaeiJelWs2G/V1CHDtbCGa/LlbdCpQ4ta2PEIBh/q1MLKQMFgq8oeujX5httKr3jlaPDDv+PrhwYPuuIQpkLlpDMVMhUqp0C5+6aHyiu0s89Yfy2s6jtjLKC5/zrymSzS8QT8Lc1ITEzC5fcik5gG43KCZwsQRQFWhgGbzcETqMdMLA5PYwAz0Rjc9X6k4gnYHAwEQYBQ4OCocyGXzsDbGMB0NFYcOxfXxtghK8HlWQRC898zi6aWgeLj39Hc1YHJz6PwtwaRik7B6fWUAGVnUvAHmxAbG0cgHELs2xga2lqVpEydqwRIfsD6tlZEv40Vx8px01MJ2J0OBaiQzaKxPVy0lglkKrTQ1KaHzFVm1iEAZmE0C+O/XRjzqRTcgQakYlOw17nApjOgbTbwBfkQFmCxWiFwnNKSZKdn4PT5kE0m4XC7kUulQNG00n4QSYLVbgfHsnD5fMgkk8Wxc3Epi0VpPyRBgC/YPN9+XLx201gd47kr140F9P8e17FQgCCW7IJoEPCKk+avmmwUmXYvvL1hZN5GkX7+Q8m+nrLjtM2Dx3wO9/i0uqcut4H7k/u+3WHYO7yQ8jwit0eUUMetHmy1MOAkCZfZKIRfCWqiEOWg4d4SRO5TEoWJWTUYQjBAu/FGyGNEnC0r8lUToGrUNd7RUyMdzgUwSDq3723mKfoGgXQEIDodX0aeAHeJnT37E2WXxf6oy9/MAAAAAElFTkSuQmCC;strokeColor=none;strokeWidth=0;points=[];labelBackgroundColor=none;rounded=0;html=1;whiteSpace=wrap;" parent="1" vertex="1">
            <mxGeometry x="619" y="853" width="36" height="80" as="geometry" />
          </mxCell>
        </UserObject>
        <UserObject label="&lt;div style=&quot;font-size: 1px&quot;&gt;&lt;p style=&quot;text-align:center;margin-left:0;margin-right:0;margin-top:0px;margin-bottom:0px;text-indent:0;vertical-align:middle;direction:ltr;&quot;&gt;&lt;font style=&quot;font-size:17px;font-family:0;color:#000000;direction:ltr;letter-spacing:0px;line-height:120%;opacity:1&quot;&gt;&lt;b&gt;微服务网关&lt;br/&gt;&lt;/b&gt;&lt;/font&gt;&lt;font style=&quot;font-size:17px;font-family:0;color:#000000;direction:ltr;letter-spacing:0px;line-height:120%;opacity:1&quot;&gt;&lt;b&gt;集群&lt;/b&gt;&lt;/font&gt;&lt;/p&gt;&lt;/div&gt;" tags="Background" id="17">
          <mxCell style="verticalAlign=middle;align=center;overflow=width;vsdxID=16;fillColor=none;gradientColor=none;shape=stencil(nZBLDoAgDAVP0z3SIyjeg0SURgWD+Lu9EGL8xBW7N828Ji1gOWs5KeBs9s72aqPGa8AKOCejlSMfEqAALFvrVOfsYprEk4xmTKNd44Y99VhscHY8qU7iQOYhFixbvfhXzlZfYgj3hQG+54dReh2KEw==);strokeColor=none;strokeWidth=0;spacingTop=-3;spacingBottom=-3;spacingLeft=-3;spacingRight=-3;points=[];labelBackgroundColor=none;rounded=0;html=1;whiteSpace=wrap;" parent="1" vertex="1">
            <mxGeometry x="555" y="985" width="136" height="45" as="geometry" />
          </mxCell>
        </UserObject>
        <UserObject label="" tags="Background" id="18">
          <mxCell style="vsdxID=17;fillColor=none;gradientColor=none;shape=stencil(nZBLDoAgDERP0z3SI/i5B4koRAWC+Lu9kMaIxpW7mfZNkw5gOSvhJHA2B28Huek2KMAKONdGSa9DVIA1YNlZL3tvF9OSdyKRSU12TRd2yrGU4OzIXUPgqE0GFuw3evlP+Df6AKO4P6Ry8t27jTiiJrE+AQ==);strokeColor=#000000;spacingTop=-3;spacingBottom=-3;spacingLeft=-3;spacingRight=-3;points=[];labelBackgroundColor=none;rounded=0;html=1;whiteSpace=wrap;" parent="1" vertex="1">
            <mxGeometry x="475" y="218" width="308" height="257" as="geometry" />
          </mxCell>
        </UserObject>
        <UserObject label="&lt;div style=&quot;font-size: 1px&quot;&gt;&lt;p style=&quot;text-align:center;margin-left:0;margin-right:0;margin-top:0px;margin-bottom:0px;text-indent:0;vertical-align:middle;direction:ltr;&quot;&gt;&lt;font style=&quot;font-size:12px;font-family:0;color:#000000;direction:ltr;letter-spacing:0px;line-height:120%;opacity:1&quot;&gt;&lt;b&gt;Nacos&lt;/b&gt;&lt;/font&gt;&lt;/p&gt;&lt;/div&gt;" tags="Background" id="19">
          <mxCell style="verticalAlign=middle;align=center;overflow=width;vsdxID=18;fillColor=none;gradientColor=none;image;aspect=fixed;image=data:image/png,iVBORw0KGgoAAAANSUhEUgAAACQAAABQCAYAAABxs9dPAAAAAXNSR0IArs4c6QAAA9FJREFUaEPtmktME1EUhv87nbbTlr6gQAFbHhqNxkQTRYNRjNH4AkmMC10Yda2JKzcmunCvLt24cSsmGOOWpa8Yja9E4hsliLSlLfQ5nZeZQQplkLY46Yw6s53bc77573/PnDu9pKP7cFCg+RsEpB+AFbpcEieB3KdF/iwJ9ewfIiBHdeFYlFQChki450BBP2VUMhRkIMkI6swxmEDlZoNcvTVkrCk7fv6SsYBMU5cx0d+xyoivqdxi0OS+lIyo4iypUGjHIRDGrRo8kZjWBEQJIgrgXg1XBrS6tx+XTh4rGTz8+h0GH77QB4he16Nd4mUi8e8eV6YQ1dBWEyBxarwyoK5dfWhpUUM9/fBVO9BqPCQDnTq4pyT5++9R3Hn0Uh8gy5qt2iVeJpLw8VllU1YTmt8kWbIOUf6WmjCJiYnKFOra1Q+Ls041eDSS0A60OlP348KJgZLkD95+0s/U9Npt2imxXGF8/7SyKaOaOmoCJEZGKwOS61B7KKQa/GDki3ag1XmoDyf29ZYkH43EdfRQ5ybtlFjOQ19eVTZlNaGppjCaQAsUWPLVYbiXq/zq2Nu9uWTmMiyn3yqTgbo3blBZaeiJelWs2G/V1CHDtbCGa/LlbdCpQ4ta2PEIBh/q1MLKQMFgq8oeujX5httKr3jlaPDDv+PrhwYPuuIQpkLlpDMVMhUqp0C5+6aHyiu0s89Yfy2s6jtjLKC5/zrymSzS8QT8Lc1ITEzC5fcik5gG43KCZwsQRQFWhgGbzcETqMdMLA5PYwAz0Rjc9X6k4gnYHAwEQYBQ4OCocyGXzsDbGMB0NFYcOxfXxtghK8HlWQRC898zi6aWgeLj39Hc1YHJz6PwtwaRik7B6fWUAGVnUvAHmxAbG0cgHELs2xga2lqVpEydqwRIfsD6tlZEv40Vx8px01MJ2J0OBaiQzaKxPVy0lglkKrTQ1KaHzFVm1iEAZmE0C+O/XRjzqRTcgQakYlOw17nApjOgbTbwBfkQFmCxWiFwnNKSZKdn4PT5kE0m4XC7kUulQNG00n4QSYLVbgfHsnD5fMgkk8Wxc3Epi0VpPyRBgC/YPN9+XLx201gd47kr140F9P8e17FQgCCW7IJoEPCKk+avmmwUmXYvvL1hZN5GkX7+Q8m+nrLjtM2Dx3wO9/i0uqcut4H7k/u+3WHYO7yQ8jwit0eUUMetHmy1MOAkCZfZKIRfCWqiEOWg4d4SRO5TEoWJWTUYQjBAu/FGyGNEnC0r8lUToGrUNd7RUyMdzgUwSDq3723mKfoGgXQEIDodX0aeAHeJnT37E2WXxf6oy9/MAAAAAElFTkSuQmCC;strokeColor=none;strokeWidth=0;points=[];labelBackgroundColor=none;rounded=0;html=1;whiteSpace=wrap;" parent="1" vertex="1">
            <mxGeometry x="618" y="244" width="36" height="80" as="geometry" />
          </mxCell>
        </UserObject>
        <UserObject label="&lt;div style=&quot;font-size: 1px&quot;&gt;&lt;p style=&quot;text-align:center;margin-left:0;margin-right:0;margin-top:0px;margin-bottom:0px;text-indent:0;vertical-align:middle;direction:ltr;&quot;&gt;&lt;font style=&quot;font-size:12px;font-family:0;color:#000000;direction:ltr;letter-spacing:0px;line-height:120%;opacity:1&quot;&gt;&lt;b&gt;Nacos&lt;/b&gt;&lt;/font&gt;&lt;/p&gt;&lt;/div&gt;" tags="Background" id="20">
          <mxCell style="verticalAlign=middle;align=center;overflow=width;vsdxID=19;fillColor=none;gradientColor=none;image;aspect=fixed;image=data:image/png,iVBORw0KGgoAAAANSUhEUgAAACQAAABQCAYAAABxs9dPAAAAAXNSR0IArs4c6QAAA9FJREFUaEPtmktME1EUhv87nbbTlr6gQAFbHhqNxkQTRYNRjNH4AkmMC10Yda2JKzcmunCvLt24cSsmGOOWpa8Yja9E4hsliLSlLfQ5nZeZQQplkLY46Yw6s53bc77573/PnDu9pKP7cFCg+RsEpB+AFbpcEieB3KdF/iwJ9ewfIiBHdeFYlFQChki450BBP2VUMhRkIMkI6swxmEDlZoNcvTVkrCk7fv6SsYBMU5cx0d+xyoivqdxi0OS+lIyo4iypUGjHIRDGrRo8kZjWBEQJIgrgXg1XBrS6tx+XTh4rGTz8+h0GH77QB4he16Nd4mUi8e8eV6YQ1dBWEyBxarwyoK5dfWhpUUM9/fBVO9BqPCQDnTq4pyT5++9R3Hn0Uh8gy5qt2iVeJpLw8VllU1YTmt8kWbIOUf6WmjCJiYnKFOra1Q+Ls041eDSS0A60OlP348KJgZLkD95+0s/U9Npt2imxXGF8/7SyKaOaOmoCJEZGKwOS61B7KKQa/GDki3ag1XmoDyf29ZYkH43EdfRQ5ybtlFjOQ19eVTZlNaGppjCaQAsUWPLVYbiXq/zq2Nu9uWTmMiyn3yqTgbo3blBZaeiJelWs2G/V1CHDtbCGa/LlbdCpQ4ta2PEIBh/q1MLKQMFgq8oeujX5httKr3jlaPDDv+PrhwYPuuIQpkLlpDMVMhUqp0C5+6aHyiu0s89Yfy2s6jtjLKC5/zrymSzS8QT8Lc1ITEzC5fcik5gG43KCZwsQRQFWhgGbzcETqMdMLA5PYwAz0Rjc9X6k4gnYHAwEQYBQ4OCocyGXzsDbGMB0NFYcOxfXxtghK8HlWQRC898zi6aWgeLj39Hc1YHJz6PwtwaRik7B6fWUAGVnUvAHmxAbG0cgHELs2xga2lqVpEydqwRIfsD6tlZEv40Vx8px01MJ2J0OBaiQzaKxPVy0lglkKrTQ1KaHzFVm1iEAZmE0C+O/XRjzqRTcgQakYlOw17nApjOgbTbwBfkQFmCxWiFwnNKSZKdn4PT5kE0m4XC7kUulQNG00n4QSYLVbgfHsnD5fMgkk8Wxc3Epi0VpPyRBgC/YPN9+XLx201gd47kr140F9P8e17FQgCCW7IJoEPCKk+avmmwUmXYvvL1hZN5GkX7+Q8m+nrLjtM2Dx3wO9/i0uqcut4H7k/u+3WHYO7yQ8jwit0eUUMetHmy1MOAkCZfZKIRfCWqiEOWg4d4SRO5TEoWJWTUYQjBAu/FGyGNEnC0r8lUToGrUNd7RUyMdzgUwSDq3723mKfoGgXQEIDodX0aeAHeJnT37E2WXxf6oy9/MAAAAAElFTkSuQmCC;strokeColor=none;strokeWidth=0;points=[];labelBackgroundColor=none;rounded=0;html=1;whiteSpace=wrap;" parent="1" vertex="1">
            <mxGeometry x="527" y="347" width="36" height="80" as="geometry" />
          </mxCell>
        </UserObject>
        <UserObject label="&lt;div style=&quot;font-size: 1px&quot;&gt;&lt;p style=&quot;text-align:center;margin-left:0;margin-right:0;margin-top:0px;margin-bottom:0px;text-indent:0;vertical-align:middle;direction:ltr;&quot;&gt;&lt;font style=&quot;font-size:12px;font-family:0;color:#000000;direction:ltr;letter-spacing:0px;line-height:120%;opacity:1&quot;&gt;&lt;b&gt;Nacos&lt;/b&gt;&lt;/font&gt;&lt;/p&gt;&lt;/div&gt;" tags="Background" id="21">
          <mxCell style="verticalAlign=middle;align=center;overflow=width;vsdxID=20;fillColor=none;gradientColor=none;image;aspect=fixed;image=data:image/png,iVBORw0KGgoAAAANSUhEUgAAACQAAABQCAYAAABxs9dPAAAAAXNSR0IArs4c6QAAA9FJREFUaEPtmktME1EUhv87nbbTlr6gQAFbHhqNxkQTRYNRjNH4AkmMC10Yda2JKzcmunCvLt24cSsmGOOWpa8Yja9E4hsliLSlLfQ5nZeZQQplkLY46Yw6s53bc77573/PnDu9pKP7cFCg+RsEpB+AFbpcEieB3KdF/iwJ9ewfIiBHdeFYlFQChki450BBP2VUMhRkIMkI6swxmEDlZoNcvTVkrCk7fv6SsYBMU5cx0d+xyoivqdxi0OS+lIyo4iypUGjHIRDGrRo8kZjWBEQJIgrgXg1XBrS6tx+XTh4rGTz8+h0GH77QB4he16Nd4mUi8e8eV6YQ1dBWEyBxarwyoK5dfWhpUUM9/fBVO9BqPCQDnTq4pyT5++9R3Hn0Uh8gy5qt2iVeJpLw8VllU1YTmt8kWbIOUf6WmjCJiYnKFOra1Q+Ls041eDSS0A60OlP348KJgZLkD95+0s/U9Npt2imxXGF8/7SyKaOaOmoCJEZGKwOS61B7KKQa/GDki3ag1XmoDyf29ZYkH43EdfRQ5ybtlFjOQ19eVTZlNaGppjCaQAsUWPLVYbiXq/zq2Nu9uWTmMiyn3yqTgbo3blBZaeiJelWs2G/V1CHDtbCGa/LlbdCpQ4ta2PEIBh/q1MLKQMFgq8oeujX5httKr3jlaPDDv+PrhwYPuuIQpkLlpDMVMhUqp0C5+6aHyiu0s89Yfy2s6jtjLKC5/zrymSzS8QT8Lc1ITEzC5fcik5gG43KCZwsQRQFWhgGbzcETqMdMLA5PYwAz0Rjc9X6k4gnYHAwEQYBQ4OCocyGXzsDbGMB0NFYcOxfXxtghK8HlWQRC898zi6aWgeLj39Hc1YHJz6PwtwaRik7B6fWUAGVnUvAHmxAbG0cgHELs2xga2lqVpEydqwRIfsD6tlZEv40Vx8px01MJ2J0OBaiQzaKxPVy0lglkKrTQ1KaHzFVm1iEAZmE0C+O/XRjzqRTcgQakYlOw17nApjOgbTbwBfkQFmCxWiFwnNKSZKdn4PT5kE0m4XC7kUulQNG00n4QSYLVbgfHsnD5fMgkk8Wxc3Epi0VpPyRBgC/YPN9+XLx201gd47kr140F9P8e17FQgCCW7IJoEPCKk+avmmwUmXYvvL1hZN5GkX7+Q8m+nrLjtM2Dx3wO9/i0uqcut4H7k/u+3WHYO7yQ8jwit0eUUMetHmy1MOAkCZfZKIRfCWqiEOWg4d4SRO5TEoWJWTUYQjBAu/FGyGNEnC0r8lUToGrUNd7RUyMdzgUwSDq3723mKfoGgXQEIDodX0aeAHeJnT37E2WXxf6oy9/MAAAAAElFTkSuQmCC;strokeColor=none;strokeWidth=0;points=[];labelBackgroundColor=none;rounded=0;html=1;whiteSpace=wrap;" parent="1" vertex="1">
            <mxGeometry x="722" y="346" width="36" height="80" as="geometry" />
          </mxCell>
        </UserObject>
        <UserObject label="&lt;div style=&quot;font-size: 1px&quot;&gt;&lt;p style=&quot;text-align:center;margin-left:0;margin-right:0;margin-top:0px;margin-bottom:0px;text-indent:0;vertical-align:middle;direction:ltr;&quot;&gt;&lt;font style=&quot;font-size:17px;font-family:0;color:#000000;direction:ltr;letter-spacing:0px;line-height:120%;opacity:1&quot;&gt;&lt;b&gt;Nacos&lt;br/&gt;&lt;/b&gt;&lt;/font&gt;&lt;font style=&quot;font-size:17px;font-family:0;color:#000000;direction:ltr;letter-spacing:0px;line-height:120%;opacity:1&quot;&gt;&lt;b&gt;高可用集群&lt;/b&gt;&lt;/font&gt;&lt;/p&gt;&lt;/div&gt;" tags="Background" id="22">
          <mxCell style="verticalAlign=middle;align=center;overflow=width;vsdxID=21;fillColor=none;gradientColor=none;shape=stencil(nZBLDoAgDAVP0z3SIyjeg0SURgWD+Lu9EGL8xBW7N828Ji1gOWs5KeBs9s72aqPGa8AKOCejlSMfEqAALFvrVOfsYprEk4xmTKNd44Y99VhscHY8qU7iQOYhFixbvfhXzlZfYgj3hQG+54dReh2KEw==);strokeColor=none;strokeWidth=0;spacingTop=-3;spacingBottom=-3;spacingLeft=-3;spacingRight=-3;points=[];labelBackgroundColor=none;rounded=0;html=1;whiteSpace=wrap;" parent="1" vertex="1">
            <mxGeometry x="577" y="479" width="105" height="45" as="geometry" />
          </mxCell>
        </UserObject>
        <UserObject label="&lt;div style=&quot;font-size: 1px&quot;&gt;&lt;p style=&quot;text-align:center;margin-left:0;margin-right:0;margin-top:0px;margin-bottom:0px;text-indent:0;vertical-align:middle;direction:ltr;&quot;&gt;&lt;font style=&quot;font-size:15px;font-family:0;color:#000000;direction:ltr;letter-spacing:0px;line-height:120%;opacity:1&quot;&gt;&lt;b&gt;&lt;br/&gt;&lt;br/&gt;&lt;/b&gt;&lt;/font&gt;&lt;font style=&quot;font-size:15px;font-family:0;color:#000000;direction:ltr;letter-spacing:0px;line-height:120%;opacity:1&quot;&gt;&lt;b&gt;auth&lt;br/&gt;&lt;br/&gt;&lt;/b&gt;&lt;/font&gt;&lt;font style=&quot;font-size:15px;font-family:0;color:#000000;direction:ltr;letter-spacing:0px;line-height:120%;opacity:1&quot;&gt;&lt;b&gt;认证授权服务&lt;/b&gt;&lt;/font&gt;&lt;/p&gt;&lt;/div&gt;" tags="Background" id="23">
          <mxCell style="verticalAlign=middle;align=center;overflow=width;vsdxID=22;fillColor=none;gradientColor=none;image;aspect=fixed;image=data:image/png,iVBORw0KGgoAAAANSUhEUgAAACQAAABQCAYAAABxs9dPAAAAAXNSR0IArs4c6QAAA9FJREFUaEPtmktME1EUhv87nbbTlr6gQAFbHhqNxkQTRYNRjNH4AkmMC10Yda2JKzcmunCvLt24cSsmGOOWpa8Yja9E4hsliLSlLfQ5nZeZQQplkLY46Yw6s53bc77573/PnDu9pKP7cFCg+RsEpB+AFbpcEieB3KdF/iwJ9ewfIiBHdeFYlFQChki450BBP2VUMhRkIMkI6swxmEDlZoNcvTVkrCk7fv6SsYBMU5cx0d+xyoivqdxi0OS+lIyo4iypUGjHIRDGrRo8kZjWBEQJIgrgXg1XBrS6tx+XTh4rGTz8+h0GH77QB4he16Nd4mUi8e8eV6YQ1dBWEyBxarwyoK5dfWhpUUM9/fBVO9BqPCQDnTq4pyT5++9R3Hn0Uh8gy5qt2iVeJpLw8VllU1YTmt8kWbIOUf6WmjCJiYnKFOra1Q+Ls041eDSS0A60OlP348KJgZLkD95+0s/U9Npt2imxXGF8/7SyKaOaOmoCJEZGKwOS61B7KKQa/GDki3ag1XmoDyf29ZYkH43EdfRQ5ybtlFjOQ19eVTZlNaGppjCaQAsUWPLVYbiXq/zq2Nu9uWTmMiyn3yqTgbo3blBZaeiJelWs2G/V1CHDtbCGa/LlbdCpQ4ta2PEIBh/q1MLKQMFgq8oeujX5httKr3jlaPDDv+PrhwYPuuIQpkLlpDMVMhUqp0C5+6aHyiu0s89Yfy2s6jtjLKC5/zrymSzS8QT8Lc1ITEzC5fcik5gG43KCZwsQRQFWhgGbzcETqMdMLA5PYwAz0Rjc9X6k4gnYHAwEQYBQ4OCocyGXzsDbGMB0NFYcOxfXxtghK8HlWQRC898zi6aWgeLj39Hc1YHJz6PwtwaRik7B6fWUAGVnUvAHmxAbG0cgHELs2xga2lqVpEydqwRIfsD6tlZEv40Vx8px01MJ2J0OBaiQzaKxPVy0lglkKrTQ1KaHzFVm1iEAZmE0C+O/XRjzqRTcgQakYlOw17nApjOgbTbwBfkQFmCxWiFwnNKSZKdn4PT5kE0m4XC7kUulQNG00n4QSYLVbgfHsnD5fMgkk8Wxc3Epi0VpPyRBgC/YPN9+XLx201gd47kr140F9P8e17FQgCCW7IJoEPCKk+avmmwUmXYvvL1hZN5GkX7+Q8m+nrLjtM2Dx3wO9/i0uqcut4H7k/u+3WHYO7yQ8jwit0eUUMetHmy1MOAkCZfZKIRfCWqiEOWg4d4SRO5TEoWJWTUYQjBAu/FGyGNEnC0r8lUToGrUNd7RUyMdzgUwSDq3723mKfoGgXQEIDodX0aeAHeJnT37E2WXxf6oy9/MAAAAAElFTkSuQmCC;strokeColor=none;strokeWidth=0;points=[];labelBackgroundColor=none;rounded=0;html=1;whiteSpace=wrap;" parent="1" vertex="1">
            <mxGeometry x="1020" y="357" width="39" height="75" as="geometry" />
          </mxCell>
        </UserObject>
        <UserObject label="&lt;div style=&quot;font-size: 1px&quot;&gt;&lt;p style=&quot;text-align:center;margin-left:0;margin-right:0;margin-top:0px;margin-bottom:0px;text-indent:0;vertical-align:middle;direction:ltr;&quot;&gt;&lt;font style=&quot;font-size:15px;font-family:0;color:#000000;direction:ltr;letter-spacing:0px;line-height:120%;opacity:1&quot;&gt;&lt;b&gt;base&lt;br/&gt;&lt;br/&gt;&lt;/b&gt;&lt;/font&gt;&lt;font style=&quot;font-size:15px;font-family:0;color:#000000;direction:ltr;letter-spacing:0px;line-height:120%;opacity:1&quot;&gt;&lt;b&gt;基础服务&lt;/b&gt;&lt;/font&gt;&lt;/p&gt;&lt;/div&gt;" tags="Background" id="24">
          <mxCell style="verticalAlign=middle;align=center;overflow=width;vsdxID=23;fillColor=none;gradientColor=none;image;aspect=fixed;image=data:image/png,iVBORw0KGgoAAAANSUhEUgAAACQAAABQCAYAAABxs9dPAAAAAXNSR0IArs4c6QAAA9FJREFUaEPtmktME1EUhv87nbbTlr6gQAFbHhqNxkQTRYNRjNH4AkmMC10Yda2JKzcmunCvLt24cSsmGOOWpa8Yja9E4hsliLSlLfQ5nZeZQQplkLY46Yw6s53bc77573/PnDu9pKP7cFCg+RsEpB+AFbpcEieB3KdF/iwJ9ewfIiBHdeFYlFQChki450BBP2VUMhRkIMkI6swxmEDlZoNcvTVkrCk7fv6SsYBMU5cx0d+xyoivqdxi0OS+lIyo4iypUGjHIRDGrRo8kZjWBEQJIgrgXg1XBrS6tx+XTh4rGTz8+h0GH77QB4he16Nd4mUi8e8eV6YQ1dBWEyBxarwyoK5dfWhpUUM9/fBVO9BqPCQDnTq4pyT5++9R3Hn0Uh8gy5qt2iVeJpLw8VllU1YTmt8kWbIOUf6WmjCJiYnKFOra1Q+Ls041eDSS0A60OlP348KJgZLkD95+0s/U9Npt2imxXGF8/7SyKaOaOmoCJEZGKwOS61B7KKQa/GDki3ag1XmoDyf29ZYkH43EdfRQ5ybtlFjOQ19eVTZlNaGppjCaQAsUWPLVYbiXq/zq2Nu9uWTmMiyn3yqTgbo3blBZaeiJelWs2G/V1CHDtbCGa/LlbdCpQ4ta2PEIBh/q1MLKQMFgq8oeujX5httKr3jlaPDDv+PrhwYPuuIQpkLlpDMVMhUqp0C5+6aHyiu0s89Yfy2s6jtjLKC5/zrymSzS8QT8Lc1ITEzC5fcik5gG43KCZwsQRQFWhgGbzcETqMdMLA5PYwAz0Rjc9X6k4gnYHAwEQYBQ4OCocyGXzsDbGMB0NFYcOxfXxtghK8HlWQRC898zi6aWgeLj39Hc1YHJz6PwtwaRik7B6fWUAGVnUvAHmxAbG0cgHELs2xga2lqVpEydqwRIfsD6tlZEv40Vx8px01MJ2J0OBaiQzaKxPVy0lglkKrTQ1KaHzFVm1iEAZmE0C+O/XRjzqRTcgQakYlOw17nApjOgbTbwBfkQFmCxWiFwnNKSZKdn4PT5kE0m4XC7kUulQNG00n4QSYLVbgfHsnD5fMgkk8Wxc3Epi0VpPyRBgC/YPN9+XLx201gd47kr140F9P8e17FQgCCW7IJoEPCKk+avmmwUmXYvvL1hZN5GkX7+Q8m+nrLjtM2Dx3wO9/i0uqcut4H7k/u+3WHYO7yQ8jwit0eUUMetHmy1MOAkCZfZKIRfCWqiEOWg4d4SRO5TEoWJWTUYQjBAu/FGyGNEnC0r8lUToGrUNd7RUyMdzgUwSDq3723mKfoGgXQEIDodX0aeAHeJnT37E2WXxf6oy9/MAAAAAElFTkSuQmCC;strokeColor=none;strokeWidth=0;points=[];labelBackgroundColor=none;rounded=0;html=1;whiteSpace=wrap;" parent="1" vertex="1">
            <mxGeometry x="1070" y="233" width="39" height="75" as="geometry" />
          </mxCell>
        </UserObject>
        <UserObject label="&lt;div style=&quot;font-size: 1px&quot;&gt;&lt;p style=&quot;text-align:center;margin-left:0;margin-right:0;margin-top:0px;margin-bottom:0px;text-indent:0;vertical-align:middle;direction:ltr;&quot;&gt;&lt;font style=&quot;font-size:15px;font-family:0;color:#000000;direction:ltr;letter-spacing:0px;line-height:120%;opacity:1&quot;&gt;&lt;b&gt;&lt;br/&gt;&lt;br/&gt;&lt;/b&gt;&lt;/font&gt;&lt;font style=&quot;font-size:15px;font-family:0;color:#000000;direction:ltr;letter-spacing:0px;line-height:120%;opacity:1&quot;&gt;&lt;b&gt;upms&lt;br/&gt;通用用户权限管理服务&lt;/b&gt;&lt;/font&gt;&lt;/p&gt;&lt;/div&gt;" tags="Background" id="25">
          <mxCell style="verticalAlign=middle;align=center;overflow=width;vsdxID=24;fillColor=none;gradientColor=none;image;aspect=fixed;image=data:image/png,iVBORw0KGgoAAAANSUhEUgAAACQAAABQCAYAAABxs9dPAAAAAXNSR0IArs4c6QAAA9FJREFUaEPtmktME1EUhv87nbbTlr6gQAFbHhqNxkQTRYNRjNH4AkmMC10Yda2JKzcmunCvLt24cSsmGOOWpa8Yja9E4hsliLSlLfQ5nZeZQQplkLY46Yw6s53bc77573/PnDu9pKP7cFCg+RsEpB+AFbpcEieB3KdF/iwJ9ewfIiBHdeFYlFQChki450BBP2VUMhRkIMkI6swxmEDlZoNcvTVkrCk7fv6SsYBMU5cx0d+xyoivqdxi0OS+lIyo4iypUGjHIRDGrRo8kZjWBEQJIgrgXg1XBrS6tx+XTh4rGTz8+h0GH77QB4he16Nd4mUi8e8eV6YQ1dBWEyBxarwyoK5dfWhpUUM9/fBVO9BqPCQDnTq4pyT5++9R3Hn0Uh8gy5qt2iVeJpLw8VllU1YTmt8kWbIOUf6WmjCJiYnKFOra1Q+Ls041eDSS0A60OlP348KJgZLkD95+0s/U9Npt2imxXGF8/7SyKaOaOmoCJEZGKwOS61B7KKQa/GDki3ag1XmoDyf29ZYkH43EdfRQ5ybtlFjOQ19eVTZlNaGppjCaQAsUWPLVYbiXq/zq2Nu9uWTmMiyn3yqTgbo3blBZaeiJelWs2G/V1CHDtbCGa/LlbdCpQ4ta2PEIBh/q1MLKQMFgq8oeujX5httKr3jlaPDDv+PrhwYPuuIQpkLlpDMVMhUqp0C5+6aHyiu0s89Yfy2s6jtjLKC5/zrymSzS8QT8Lc1ITEzC5fcik5gG43KCZwsQRQFWhgGbzcETqMdMLA5PYwAz0Rjc9X6k4gnYHAwEQYBQ4OCocyGXzsDbGMB0NFYcOxfXxtghK8HlWQRC898zi6aWgeLj39Hc1YHJz6PwtwaRik7B6fWUAGVnUvAHmxAbG0cgHELs2xga2lqVpEydqwRIfsD6tlZEv40Vx8px01MJ2J0OBaiQzaKxPVy0lglkKrTQ1KaHzFVm1iEAZmE0C+O/XRjzqRTcgQakYlOw17nApjOgbTbwBfkQFmCxWiFwnNKSZKdn4PT5kE0m4XC7kUulQNG00n4QSYLVbgfHsnD5fMgkk8Wxc3Epi0VpPyRBgC/YPN9+XLx201gd47kr140F9P8e17FQgCCW7IJoEPCKk+avmmwUmXYvvL1hZN5GkX7+Q8m+nrLjtM2Dx3wO9/i0uqcut4H7k/u+3WHYO7yQ8jwit0eUUMetHmy1MOAkCZfZKIRfCWqiEOWg4d4SRO5TEoWJWTUYQjBAu/FGyGNEnC0r8lUToGrUNd7RUyMdzgUwSDq3723mKfoGgXQEIDodX0aeAHeJnT37E2WXxf6oy9/MAAAAAElFTkSuQmCC;strokeColor=none;strokeWidth=0;points=[];labelBackgroundColor=none;rounded=0;html=1;whiteSpace=wrap;" parent="1" vertex="1">
            <mxGeometry x="1135" y="357" width="39" height="75" as="geometry" />
          </mxCell>
        </UserObject>
        <UserObject label="&lt;div style=&quot;font-size: 1px&quot;&gt;&lt;p style=&quot;text-align:center;margin-left:0;margin-right:0;margin-top:0px;margin-bottom:0px;text-indent:0;vertical-align:middle;direction:ltr;&quot;&gt;&lt;font style=&quot;font-size:12px;font-family:0;color:#000000;direction:ltr;letter-spacing:0px;line-height:120%;opacity:1&quot;&gt;&lt;b&gt;药品/耗材交易服务&lt;/b&gt;&lt;/font&gt;&lt;/p&gt;&lt;/div&gt;" tags="Background" id="26">
          <mxCell style="verticalAlign=middle;align=center;overflow=width;vsdxID=25;fillColor=none;gradientColor=none;image;aspect=fixed;image=data:image/png,iVBORw0KGgoAAAANSUhEUgAAACQAAABQCAYAAABxs9dPAAAAAXNSR0IArs4c6QAAA9FJREFUaEPtmktME1EUhv87nbbTlr6gQAFbHhqNxkQTRYNRjNH4AkmMC10Yda2JKzcmunCvLt24cSsmGOOWpa8Yja9E4hsliLSlLfQ5nZeZQQplkLY46Yw6s53bc77573/PnDu9pKP7cFCg+RsEpB+AFbpcEieB3KdF/iwJ9ewfIiBHdeFYlFQChki450BBP2VUMhRkIMkI6swxmEDlZoNcvTVkrCk7fv6SsYBMU5cx0d+xyoivqdxi0OS+lIyo4iypUGjHIRDGrRo8kZjWBEQJIgrgXg1XBrS6tx+XTh4rGTz8+h0GH77QB4he16Nd4mUi8e8eV6YQ1dBWEyBxarwyoK5dfWhpUUM9/fBVO9BqPCQDnTq4pyT5++9R3Hn0Uh8gy5qt2iVeJpLw8VllU1YTmt8kWbIOUf6WmjCJiYnKFOra1Q+Ls041eDSS0A60OlP348KJgZLkD95+0s/U9Npt2imxXGF8/7SyKaOaOmoCJEZGKwOS61B7KKQa/GDki3ag1XmoDyf29ZYkH43EdfRQ5ybtlFjOQ19eVTZlNaGppjCaQAsUWPLVYbiXq/zq2Nu9uWTmMiyn3yqTgbo3blBZaeiJelWs2G/V1CHDtbCGa/LlbdCpQ4ta2PEIBh/q1MLKQMFgq8oeujX5httKr3jlaPDDv+PrhwYPuuIQpkLlpDMVMhUqp0C5+6aHyiu0s89Yfy2s6jtjLKC5/zrymSzS8QT8Lc1ITEzC5fcik5gG43KCZwsQRQFWhgGbzcETqMdMLA5PYwAz0Rjc9X6k4gnYHAwEQYBQ4OCocyGXzsDbGMB0NFYcOxfXxtghK8HlWQRC898zi6aWgeLj39Hc1YHJz6PwtwaRik7B6fWUAGVnUvAHmxAbG0cgHELs2xga2lqVpEydqwRIfsD6tlZEv40Vx8px01MJ2J0OBaiQzaKxPVy0lglkKrTQ1KaHzFVm1iEAZmE0C+O/XRjzqRTcgQakYlOw17nApjOgbTbwBfkQFmCxWiFwnNKSZKdn4PT5kE0m4XC7kUulQNG00n4QSYLVbgfHsnD5fMgkk8Wxc3Epi0VpPyRBgC/YPN9+XLx201gd47kr140F9P8e17FQgCCW7IJoEPCKk+avmmwUmXYvvL1hZN5GkX7+Q8m+nrLjtM2Dx3wO9/i0uqcut4H7k/u+3WHYO7yQ8jwit0eUUMetHmy1MOAkCZfZKIRfCWqiEOWg4d4SRO5TEoWJWTUYQjBAu/FGyGNEnC0r8lUToGrUNd7RUyMdzgUwSDq3723mKfoGgXQEIDodX0aeAHeJnT37E2WXxf6oy9/MAAAAAElFTkSuQmCC;strokeColor=none;strokeWidth=0;points=[];labelBackgroundColor=none;rounded=0;html=1;whiteSpace=wrap;" parent="1" vertex="1">
            <mxGeometry x="1110" y="853" width="36" height="80" as="geometry" />
          </mxCell>
        </UserObject>
        <UserObject label="&lt;div style=&quot;font-size: 1px&quot;&gt;&lt;p style=&quot;text-align:center;margin-left:0;margin-right:0;margin-top:0px;margin-bottom:0px;text-indent:0;vertical-align:middle;direction:ltr;&quot;&gt;&lt;font style=&quot;font-size:12px;font-family:0;color:#000000;direction:ltr;letter-spacing:0px;line-height:120%;opacity:1&quot;&gt;&lt;b&gt;药品/耗材结算服务&lt;/b&gt;&lt;/font&gt;&lt;/p&gt;&lt;/div&gt;" tags="Background" id="27">
          <mxCell style="verticalAlign=middle;align=center;overflow=width;vsdxID=26;fillColor=none;gradientColor=none;image;aspect=fixed;image=data:image/png,iVBORw0KGgoAAAANSUhEUgAAACQAAABQCAYAAABxs9dPAAAAAXNSR0IArs4c6QAAA9FJREFUaEPtmktME1EUhv87nbbTlr6gQAFbHhqNxkQTRYNRjNH4AkmMC10Yda2JKzcmunCvLt24cSsmGOOWpa8Yja9E4hsliLSlLfQ5nZeZQQplkLY46Yw6s53bc77573/PnDu9pKP7cFCg+RsEpB+AFbpcEieB3KdF/iwJ9ewfIiBHdeFYlFQChki450BBP2VUMhRkIMkI6swxmEDlZoNcvTVkrCk7fv6SsYBMU5cx0d+xyoivqdxi0OS+lIyo4iypUGjHIRDGrRo8kZjWBEQJIgrgXg1XBrS6tx+XTh4rGTz8+h0GH77QB4he16Nd4mUi8e8eV6YQ1dBWEyBxarwyoK5dfWhpUUM9/fBVO9BqPCQDnTq4pyT5++9R3Hn0Uh8gy5qt2iVeJpLw8VllU1YTmt8kWbIOUf6WmjCJiYnKFOra1Q+Ls041eDSS0A60OlP348KJgZLkD95+0s/U9Npt2imxXGF8/7SyKaOaOmoCJEZGKwOS61B7KKQa/GDki3ag1XmoDyf29ZYkH43EdfRQ5ybtlFjOQ19eVTZlNaGppjCaQAsUWPLVYbiXq/zq2Nu9uWTmMiyn3yqTgbo3blBZaeiJelWs2G/V1CHDtbCGa/LlbdCpQ4ta2PEIBh/q1MLKQMFgq8oeujX5httKr3jlaPDDv+PrhwYPuuIQpkLlpDMVMhUqp0C5+6aHyiu0s89Yfy2s6jtjLKC5/zrymSzS8QT8Lc1ITEzC5fcik5gG43KCZwsQRQFWhgGbzcETqMdMLA5PYwAz0Rjc9X6k4gnYHAwEQYBQ4OCocyGXzsDbGMB0NFYcOxfXxtghK8HlWQRC898zi6aWgeLj39Hc1YHJz6PwtwaRik7B6fWUAGVnUvAHmxAbG0cgHELs2xga2lqVpEydqwRIfsD6tlZEv40Vx8px01MJ2J0OBaiQzaKxPVy0lglkKrTQ1KaHzFVm1iEAZmE0C+O/XRjzqRTcgQakYlOw17nApjOgbTbwBfkQFmCxWiFwnNKSZKdn4PT5kE0m4XC7kUulQNG00n4QSYLVbgfHsnD5fMgkk8Wxc3Epi0VpPyRBgC/YPN9+XLx201gd47kr140F9P8e17FQgCCW7IJoEPCKk+avmmwUmXYvvL1hZN5GkX7+Q8m+nrLjtM2Dx3wO9/i0uqcut4H7k/u+3WHYO7yQ8jwit0eUUMetHmy1MOAkCZfZKIRfCWqiEOWg4d4SRO5TEoWJWTUYQjBAu/FGyGNEnC0r8lUToGrUNd7RUyMdzgUwSDq3723mKfoGgXQEIDodX0aeAHeJnT37E2WXxf6oy9/MAAAAAElFTkSuQmCC;strokeColor=none;strokeWidth=0;points=[];labelBackgroundColor=none;rounded=0;html=1;whiteSpace=wrap;" parent="1" vertex="1">
            <mxGeometry x="1202" y="854" width="36" height="80" as="geometry" />
          </mxCell>
        </UserObject>
        <UserObject label="&lt;div style=&quot;font-size: 1px&quot;&gt;&lt;p style=&quot;text-align:center;margin-left:0;margin-right:0;margin-top:0px;margin-bottom:0px;text-indent:0;vertical-align:middle;direction:ltr;&quot;&gt;&lt;font style=&quot;font-size:12px;font-family:0;color:#000000;direction:ltr;letter-spacing:0px;line-height:120%;opacity:1&quot;&gt;&lt;b&gt;官网&lt;/b&gt;&lt;/font&gt;&lt;/p&gt;&lt;/div&gt;" tags="Background" id="28">
          <mxCell style="verticalAlign=middle;align=center;overflow=width;vsdxID=27;fillColor=none;gradientColor=none;image;aspect=fixed;image=data:image/png,iVBORw0KGgoAAAANSUhEUgAAACQAAABQCAYAAABxs9dPAAAAAXNSR0IArs4c6QAAA9FJREFUaEPtmktME1EUhv87nbbTlr6gQAFbHhqNxkQTRYNRjNH4AkmMC10Yda2JKzcmunCvLt24cSsmGOOWpa8Yja9E4hsliLSlLfQ5nZeZQQplkLY46Yw6s53bc77573/PnDu9pKP7cFCg+RsEpB+AFbpcEieB3KdF/iwJ9ewfIiBHdeFYlFQChki450BBP2VUMhRkIMkI6swxmEDlZoNcvTVkrCk7fv6SsYBMU5cx0d+xyoivqdxi0OS+lIyo4iypUGjHIRDGrRo8kZjWBEQJIgrgXg1XBrS6tx+XTh4rGTz8+h0GH77QB4he16Nd4mUi8e8eV6YQ1dBWEyBxarwyoK5dfWhpUUM9/fBVO9BqPCQDnTq4pyT5++9R3Hn0Uh8gy5qt2iVeJpLw8VllU1YTmt8kWbIOUf6WmjCJiYnKFOra1Q+Ls041eDSS0A60OlP348KJgZLkD95+0s/U9Npt2imxXGF8/7SyKaOaOmoCJEZGKwOS61B7KKQa/GDki3ag1XmoDyf29ZYkH43EdfRQ5ybtlFjOQ19eVTZlNaGppjCaQAsUWPLVYbiXq/zq2Nu9uWTmMiyn3yqTgbo3blBZaeiJelWs2G/V1CHDtbCGa/LlbdCpQ4ta2PEIBh/q1MLKQMFgq8oeujX5httKr3jlaPDDv+PrhwYPuuIQpkLlpDMVMhUqp0C5+6aHyiu0s89Yfy2s6jtjLKC5/zrymSzS8QT8Lc1ITEzC5fcik5gG43KCZwsQRQFWhgGbzcETqMdMLA5PYwAz0Rjc9X6k4gnYHAwEQYBQ4OCocyGXzsDbGMB0NFYcOxfXxtghK8HlWQRC898zi6aWgeLj39Hc1YHJz6PwtwaRik7B6fWUAGVnUvAHmxAbG0cgHELs2xga2lqVpEydqwRIfsD6tlZEv40Vx8px01MJ2J0OBaiQzaKxPVy0lglkKrTQ1KaHzFVm1iEAZmE0C+O/XRjzqRTcgQakYlOw17nApjOgbTbwBfkQFmCxWiFwnNKSZKdn4PT5kE0m4XC7kUulQNG00n4QSYLVbgfHsnD5fMgkk8Wxc3Epi0VpPyRBgC/YPN9+XLx201gd47kr140F9P8e17FQgCCW7IJoEPCKk+avmmwUmXYvvL1hZN5GkX7+Q8m+nrLjtM2Dx3wO9/i0uqcut4H7k/u+3WHYO7yQ8jwit0eUUMetHmy1MOAkCZfZKIRfCWqiEOWg4d4SRO5TEoWJWTUYQjBAu/FGyGNEnC0r8lUToGrUNd7RUyMdzgUwSDq3723mKfoGgXQEIDodX0aeAHeJnT37E2WXxf6oy9/MAAAAAElFTkSuQmCC;strokeColor=none;strokeWidth=0;points=[];labelBackgroundColor=none;rounded=0;html=1;whiteSpace=wrap;" parent="1" vertex="1">
            <mxGeometry x="1303" y="854" width="36" height="80" as="geometry" />
          </mxCell>
        </UserObject>
        <UserObject label="&lt;div style=&quot;font-size: 1px&quot;&gt;&lt;p style=&quot;text-align:center;margin-left:0;margin-right:0;margin-top:0px;margin-bottom:0px;text-indent:0;vertical-align:middle;direction:ltr;&quot;&gt;&lt;font style=&quot;font-size:12px;font-family:0;color:#000000;direction:ltr;letter-spacing:0px;line-height:120%;opacity:1&quot;&gt;&lt;b&gt;药品/耗材联采服务&lt;/b&gt;&lt;/font&gt;&lt;/p&gt;&lt;/div&gt;" tags="Background" id="29">
          <mxCell style="verticalAlign=middle;align=center;overflow=width;vsdxID=28;fillColor=none;gradientColor=none;image;aspect=fixed;image=data:image/png,iVBORw0KGgoAAAANSUhEUgAAACQAAABQCAYAAABxs9dPAAAAAXNSR0IArs4c6QAAA9FJREFUaEPtmktME1EUhv87nbbTlr6gQAFbHhqNxkQTRYNRjNH4AkmMC10Yda2JKzcmunCvLt24cSsmGOOWpa8Yja9E4hsliLSlLfQ5nZeZQQplkLY46Yw6s53bc77573/PnDu9pKP7cFCg+RsEpB+AFbpcEieB3KdF/iwJ9ewfIiBHdeFYlFQChki450BBP2VUMhRkIMkI6swxmEDlZoNcvTVkrCk7fv6SsYBMU5cx0d+xyoivqdxi0OS+lIyo4iypUGjHIRDGrRo8kZjWBEQJIgrgXg1XBrS6tx+XTh4rGTz8+h0GH77QB4he16Nd4mUi8e8eV6YQ1dBWEyBxarwyoK5dfWhpUUM9/fBVO9BqPCQDnTq4pyT5++9R3Hn0Uh8gy5qt2iVeJpLw8VllU1YTmt8kWbIOUf6WmjCJiYnKFOra1Q+Ls041eDSS0A60OlP348KJgZLkD95+0s/U9Npt2imxXGF8/7SyKaOaOmoCJEZGKwOS61B7KKQa/GDki3ag1XmoDyf29ZYkH43EdfRQ5ybtlFjOQ19eVTZlNaGppjCaQAsUWPLVYbiXq/zq2Nu9uWTmMiyn3yqTgbo3blBZaeiJelWs2G/V1CHDtbCGa/LlbdCpQ4ta2PEIBh/q1MLKQMFgq8oeujX5httKr3jlaPDDv+PrhwYPuuIQpkLlpDMVMhUqp0C5+6aHyiu0s89Yfy2s6jtjLKC5/zrymSzS8QT8Lc1ITEzC5fcik5gG43KCZwsQRQFWhgGbzcETqMdMLA5PYwAz0Rjc9X6k4gnYHAwEQYBQ4OCocyGXzsDbGMB0NFYcOxfXxtghK8HlWQRC898zi6aWgeLj39Hc1YHJz6PwtwaRik7B6fWUAGVnUvAHmxAbG0cgHELs2xga2lqVpEydqwRIfsD6tlZEv40Vx8px01MJ2J0OBaiQzaKxPVy0lglkKrTQ1KaHzFVm1iEAZmE0C+O/XRjzqRTcgQakYlOw17nApjOgbTbwBfkQFmCxWiFwnNKSZKdn4PT5kE0m4XC7kUulQNG00n4QSYLVbgfHsnD5fMgkk8Wxc3Epi0VpPyRBgC/YPN9+XLx201gd47kr140F9P8e17FQgCCW7IJoEPCKk+avmmwUmXYvvL1hZN5GkX7+Q8m+nrLjtM2Dx3wO9/i0uqcut4H7k/u+3WHYO7yQ8jwit0eUUMetHmy1MOAkCZfZKIRfCWqiEOWg4d4SRO5TEoWJWTUYQjBAu/FGyGNEnC0r8lUToGrUNd7RUyMdzgUwSDq3723mKfoGgXQEIDodX0aeAHeJnT37E2WXxf6oy9/MAAAAAElFTkSuQmCC;strokeColor=none;strokeWidth=0;points=[];labelBackgroundColor=none;rounded=0;html=1;whiteSpace=wrap;" parent="1" vertex="1">
            <mxGeometry x="1007" y="852" width="36" height="80" as="geometry" />
          </mxCell>
        </UserObject>
        <UserObject label="&lt;div style=&quot;font-size: 1px&quot;&gt;&lt;p style=&quot;text-align:center;margin-left:0;margin-right:0;margin-top:0px;margin-bottom:0px;text-indent:0;vertical-align:middle;direction:ltr;&quot;&gt;&lt;font style=&quot;font-size:12px;font-family:0;color:#000000;direction:ltr;letter-spacing:0px;line-height:120%;opacity:1&quot;&gt;&lt;b&gt;......&lt;/b&gt;&lt;/font&gt;&lt;/p&gt;&lt;/div&gt;" tags="Background" id="30">
          <mxCell style="verticalAlign=middle;align=center;overflow=width;vsdxID=29;fillColor=none;gradientColor=none;image;aspect=fixed;image=data:image/png,iVBORw0KGgoAAAANSUhEUgAAACQAAABQCAYAAABxs9dPAAAAAXNSR0IArs4c6QAAA9FJREFUaEPtmktME1EUhv87nbbTlr6gQAFbHhqNxkQTRYNRjNH4AkmMC10Yda2JKzcmunCvLt24cSsmGOOWpa8Yja9E4hsliLSlLfQ5nZeZQQplkLY46Yw6s53bc77573/PnDu9pKP7cFCg+RsEpB+AFbpcEieB3KdF/iwJ9ewfIiBHdeFYlFQChki450BBP2VUMhRkIMkI6swxmEDlZoNcvTVkrCk7fv6SsYBMU5cx0d+xyoivqdxi0OS+lIyo4iypUGjHIRDGrRo8kZjWBEQJIgrgXg1XBrS6tx+XTh4rGTz8+h0GH77QB4he16Nd4mUi8e8eV6YQ1dBWEyBxarwyoK5dfWhpUUM9/fBVO9BqPCQDnTq4pyT5++9R3Hn0Uh8gy5qt2iVeJpLw8VllU1YTmt8kWbIOUf6WmjCJiYnKFOra1Q+Ls041eDSS0A60OlP348KJgZLkD95+0s/U9Npt2imxXGF8/7SyKaOaOmoCJEZGKwOS61B7KKQa/GDki3ag1XmoDyf29ZYkH43EdfRQ5ybtlFjOQ19eVTZlNaGppjCaQAsUWPLVYbiXq/zq2Nu9uWTmMiyn3yqTgbo3blBZaeiJelWs2G/V1CHDtbCGa/LlbdCpQ4ta2PEIBh/q1MLKQMFgq8oeujX5httKr3jlaPDDv+PrhwYPuuIQpkLlpDMVMhUqp0C5+6aHyiu0s89Yfy2s6jtjLKC5/zrymSzS8QT8Lc1ITEzC5fcik5gG43KCZwsQRQFWhgGbzcETqMdMLA5PYwAz0Rjc9X6k4gnYHAwEQYBQ4OCocyGXzsDbGMB0NFYcOxfXxtghK8HlWQRC898zi6aWgeLj39Hc1YHJz6PwtwaRik7B6fWUAGVnUvAHmxAbG0cgHELs2xga2lqVpEydqwRIfsD6tlZEv40Vx8px01MJ2J0OBaiQzaKxPVy0lglkKrTQ1KaHzFVm1iEAZmE0C+O/XRjzqRTcgQakYlOw17nApjOgbTbwBfkQFmCxWiFwnNKSZKdn4PT5kE0m4XC7kUulQNG00n4QSYLVbgfHsnD5fMgkk8Wxc3Epi0VpPyRBgC/YPN9+XLx201gd47kr140F9P8e17FQgCCW7IJoEPCKk+avmmwUmXYvvL1hZN5GkX7+Q8m+nrLjtM2Dx3wO9/i0uqcut4H7k/u+3WHYO7yQ8jwit0eUUMetHmy1MOAkCZfZKIRfCWqiEOWg4d4SRO5TEoWJWTUYQjBAu/FGyGNEnC0r8lUToGrUNd7RUyMdzgUwSDq3723mKfoGgXQEIDodX0aeAHeJnT37E2WXxf6oy9/MAAAAAElFTkSuQmCC;strokeColor=none;strokeWidth=0;points=[];labelBackgroundColor=none;rounded=0;html=1;whiteSpace=wrap;" parent="1" vertex="1">
            <mxGeometry x="1408" y="854" width="36" height="80" as="geometry" />
          </mxCell>
        </UserObject>
        <UserObject label="&lt;div style=&quot;font-size: 1px&quot;&gt;&lt;p style=&quot;text-align:center;margin-left:0;margin-right:0;margin-top:0px;margin-bottom:0px;text-indent:0;vertical-align:middle;direction:ltr;&quot;&gt;&lt;font style=&quot;font-size:17px;font-family:0;color:#000000;direction:ltr;letter-spacing:0px;line-height:120%;opacity:1&quot;&gt;&lt;b&gt;公共服务&lt;/b&gt;&lt;/font&gt;&lt;/p&gt;&lt;/div&gt;" tags="Background" id="31">
          <mxCell style="verticalAlign=middle;align=center;overflow=width;vsdxID=30;fillColor=none;gradientColor=none;shape=stencil(nZBLDoAgDAVP0z3SIyjeg0SURgWD+Lu9EGL8xBW7N828Ji1gOWs5KeBs9s72aqPGa8AKOCejlSMfEqAALFvrVOfsYprEk4xmTKNd44Y99VhscHY8qU7iQOYhFixbvfhXzlZfYgj3hQG+54dReh2KEw==);strokeColor=none;strokeWidth=0;spacingTop=-3;spacingBottom=-3;spacingLeft=-3;spacingRight=-3;points=[];labelBackgroundColor=none;rounded=0;html=1;whiteSpace=wrap;" parent="1" vertex="1">
            <mxGeometry x="1037" y="483" width="105" height="45" as="geometry" />
          </mxCell>
        </UserObject>
        <UserObject label="&lt;div style=&quot;font-size: 1px&quot;&gt;&lt;p style=&quot;text-align:center;margin-left:0;margin-right:0;margin-top:0px;margin-bottom:0px;text-indent:0;vertical-align:middle;direction:ltr;&quot;&gt;&lt;font style=&quot;font-size:15px;font-family:0;color:#000000;direction:ltr;letter-spacing:0px;line-height:120%;opacity:1&quot;&gt;&lt;b&gt;  MySQL&lt;/b&gt;&lt;/font&gt;&lt;font style=&quot;font-size:NaNpx;font-family:0;color:#000000;direction:ltr;letter-spacing:0px;line-height:120%;opacity:1&quot;&gt;&lt;b&gt;服务&lt;/b&gt;&lt;/font&gt;&lt;/p&gt;&lt;/div&gt;" tags="Background" id="32">
          <mxCell style="verticalAlign=middle;align=center;overflow=width;vsdxID=31;fillColor=none;gradientColor=none;image;aspect=fixed;image=data:image/png,iVBORw0KGgoAAAANSUhEUgAAACQAAABQCAYAAABxs9dPAAAAAXNSR0IArs4c6QAAA9FJREFUaEPtmktME1EUhv87nbbTlr6gQAFbHhqNxkQTRYNRjNH4AkmMC10Yda2JKzcmunCvLt24cSsmGOOWpa8Yja9E4hsliLSlLfQ5nZeZQQplkLY46Yw6s53bc77573/PnDu9pKP7cFCg+RsEpB+AFbpcEieB3KdF/iwJ9ewfIiBHdeFYlFQChki450BBP2VUMhRkIMkI6swxmEDlZoNcvTVkrCk7fv6SsYBMU5cx0d+xyoivqdxi0OS+lIyo4iypUGjHIRDGrRo8kZjWBEQJIgrgXg1XBrS6tx+XTh4rGTz8+h0GH77QB4he16Nd4mUi8e8eV6YQ1dBWEyBxarwyoK5dfWhpUUM9/fBVO9BqPCQDnTq4pyT5++9R3Hn0Uh8gy5qt2iVeJpLw8VllU1YTmt8kWbIOUf6WmjCJiYnKFOra1Q+Ls041eDSS0A60OlP348KJgZLkD95+0s/U9Npt2imxXGF8/7SyKaOaOmoCJEZGKwOS61B7KKQa/GDki3ag1XmoDyf29ZYkH43EdfRQ5ybtlFjOQ19eVTZlNaGppjCaQAsUWPLVYbiXq/zq2Nu9uWTmMiyn3yqTgbo3blBZaeiJelWs2G/V1CHDtbCGa/LlbdCpQ4ta2PEIBh/q1MLKQMFgq8oeujX5httKr3jlaPDDv+PrhwYPuuIQpkLlpDMVMhUqp0C5+6aHyiu0s89Yfy2s6jtjLKC5/zrymSzS8QT8Lc1ITEzC5fcik5gG43KCZwsQRQFWhgGbzcETqMdMLA5PYwAz0Rjc9X6k4gnYHAwEQYBQ4OCocyGXzsDbGMB0NFYcOxfXxtghK8HlWQRC898zi6aWgeLj39Hc1YHJz6PwtwaRik7B6fWUAGVnUvAHmxAbG0cgHELs2xga2lqVpEydqwRIfsD6tlZEv40Vx8px01MJ2J0OBaiQzaKxPVy0lglkKrTQ1KaHzFVm1iEAZmE0C+O/XRjzqRTcgQakYlOw17nApjOgbTbwBfkQFmCxWiFwnNKSZKdn4PT5kE0m4XC7kUulQNG00n4QSYLVbgfHsnD5fMgkk8Wxc3Epi0VpPyRBgC/YPN9+XLx201gd47kr140F9P8e17FQgCCW7IJoEPCKk+avmmwUmXYvvL1hZN5GkX7+Q8m+nrLjtM2Dx3wO9/i0uqcut4H7k/u+3WHYO7yQ8jwit0eUUMetHmy1MOAkCZfZKIRfCWqiEOWg4d4SRO5TEoWJWTUYQjBAu/FGyGNEnC0r8lUToGrUNd7RUyMdzgUwSDq3723mKfoGgXQEIDodX0aeAHeJnT37E2WXxf6oy9/MAAAAAElFTkSuQmCC;strokeColor=none;strokeWidth=0;points=[];labelBackgroundColor=none;rounded=0;html=1;whiteSpace=wrap;" parent="1" vertex="1">
            <mxGeometry x="1757" y="856" width="36" height="80" as="geometry" />
          </mxCell>
        </UserObject>
        <UserObject label="&lt;div style=&quot;font-size: 1px&quot;&gt;&lt;p style=&quot;text-align:center;margin-left:0;margin-right:0;margin-top:0px;margin-bottom:0px;text-indent:0;vertical-align:middle;direction:ltr;&quot;&gt;&lt;font style=&quot;font-size:15px;font-family:0;color:#000000;direction:ltr;letter-spacing:0px;line-height:120%;opacity:1&quot;&gt;&lt;b&gt;Oracle&lt;br/&gt;&lt;/b&gt;&lt;/font&gt;&lt;font style=&quot;font-size:15px;font-family:0;color:#000000;direction:ltr;letter-spacing:0px;line-height:120%;opacity:1&quot;&gt;&lt;b&gt;服务&lt;/b&gt;&lt;/font&gt;&lt;/p&gt;&lt;/div&gt;" tags="Background" id="33">
          <mxCell style="verticalAlign=middle;align=center;overflow=width;vsdxID=32;fillColor=none;gradientColor=none;image;aspect=fixed;image=data:image/png,iVBORw0KGgoAAAANSUhEUgAAACQAAABQCAYAAABxs9dPAAAAAXNSR0IArs4c6QAAA9FJREFUaEPtmktME1EUhv87nbbTlr6gQAFbHhqNxkQTRYNRjNH4AkmMC10Yda2JKzcmunCvLt24cSsmGOOWpa8Yja9E4hsliLSlLfQ5nZeZQQplkLY46Yw6s53bc77573/PnDu9pKP7cFCg+RsEpB+AFbpcEieB3KdF/iwJ9ewfIiBHdeFYlFQChki450BBP2VUMhRkIMkI6swxmEDlZoNcvTVkrCk7fv6SsYBMU5cx0d+xyoivqdxi0OS+lIyo4iypUGjHIRDGrRo8kZjWBEQJIgrgXg1XBrS6tx+XTh4rGTz8+h0GH77QB4he16Nd4mUi8e8eV6YQ1dBWEyBxarwyoK5dfWhpUUM9/fBVO9BqPCQDnTq4pyT5++9R3Hn0Uh8gy5qt2iVeJpLw8VllU1YTmt8kWbIOUf6WmjCJiYnKFOra1Q+Ls041eDSS0A60OlP348KJgZLkD95+0s/U9Npt2imxXGF8/7SyKaOaOmoCJEZGKwOS61B7KKQa/GDki3ag1XmoDyf29ZYkH43EdfRQ5ybtlFjOQ19eVTZlNaGppjCaQAsUWPLVYbiXq/zq2Nu9uWTmMiyn3yqTgbo3blBZaeiJelWs2G/V1CHDtbCGa/LlbdCpQ4ta2PEIBh/q1MLKQMFgq8oeujX5httKr3jlaPDDv+PrhwYPuuIQpkLlpDMVMhUqp0C5+6aHyiu0s89Yfy2s6jtjLKC5/zrymSzS8QT8Lc1ITEzC5fcik5gG43KCZwsQRQFWhgGbzcETqMdMLA5PYwAz0Rjc9X6k4gnYHAwEQYBQ4OCocyGXzsDbGMB0NFYcOxfXxtghK8HlWQRC898zi6aWgeLj39Hc1YHJz6PwtwaRik7B6fWUAGVnUvAHmxAbG0cgHELs2xga2lqVpEydqwRIfsD6tlZEv40Vx8px01MJ2J0OBaiQzaKxPVy0lglkKrTQ1KaHzFVm1iEAZmE0C+O/XRjzqRTcgQakYlOw17nApjOgbTbwBfkQFmCxWiFwnNKSZKdn4PT5kE0m4XC7kUulQNG00n4QSYLVbgfHsnD5fMgkk8Wxc3Epi0VpPyRBgC/YPN9+XLx201gd47kr140F9P8e17FQgCCW7IJoEPCKk+avmmwUmXYvvL1hZN5GkX7+Q8m+nrLjtM2Dx3wO9/i0uqcut4H7k/u+3WHYO7yQ8jwit0eUUMetHmy1MOAkCZfZKIRfCWqiEOWg4d4SRO5TEoWJWTUYQjBAu/FGyGNEnC0r8lUToGrUNd7RUyMdzgUwSDq3723mKfoGgXQEIDodX0aeAHeJnT37E2WXxf6oy9/MAAAAAElFTkSuQmCC;strokeColor=none;strokeWidth=0;points=[];labelBackgroundColor=none;rounded=0;html=1;whiteSpace=wrap;" parent="1" vertex="1">
            <mxGeometry x="1836" y="856" width="36" height="80" as="geometry" />
          </mxCell>
        </UserObject>
        <UserObject label="&lt;div style=&quot;font-size: 1px&quot;&gt;&lt;p style=&quot;text-align:center;margin-left:0;margin-right:0;margin-top:0px;margin-bottom:0px;text-indent:0;vertical-align:middle;direction:ltr;&quot;&gt;&lt;font style=&quot;font-size:15px;font-family:0;color:#000000;direction:ltr;letter-spacing:0px;line-height:120%;opacity:1&quot;&gt;&lt;b&gt;MongoDB&lt;/b&gt;&lt;/font&gt;&lt;font style=&quot;font-size:NaNpx;font-family:0;color:#000000;direction:ltr;letter-spacing:0px;line-height:120%;opacity:1&quot;&gt;&lt;b&gt;服务&lt;/b&gt;&lt;/font&gt;&lt;/p&gt;&lt;/div&gt;" tags="Background" id="34">
          <mxCell style="verticalAlign=middle;align=center;overflow=width;vsdxID=33;fillColor=none;gradientColor=none;image;aspect=fixed;image=data:image/png,iVBORw0KGgoAAAANSUhEUgAAACQAAABQCAYAAABxs9dPAAAAAXNSR0IArs4c6QAAA9FJREFUaEPtmktME1EUhv87nbbTlr6gQAFbHhqNxkQTRYNRjNH4AkmMC10Yda2JKzcmunCvLt24cSsmGOOWpa8Yja9E4hsliLSlLfQ5nZeZQQplkLY46Yw6s53bc77573/PnDu9pKP7cFCg+RsEpB+AFbpcEieB3KdF/iwJ9ewfIiBHdeFYlFQChki450BBP2VUMhRkIMkI6swxmEDlZoNcvTVkrCk7fv6SsYBMU5cx0d+xyoivqdxi0OS+lIyo4iypUGjHIRDGrRo8kZjWBEQJIgrgXg1XBrS6tx+XTh4rGTz8+h0GH77QB4he16Nd4mUi8e8eV6YQ1dBWEyBxarwyoK5dfWhpUUM9/fBVO9BqPCQDnTq4pyT5++9R3Hn0Uh8gy5qt2iVeJpLw8VllU1YTmt8kWbIOUf6WmjCJiYnKFOra1Q+Ls041eDSS0A60OlP348KJgZLkD95+0s/U9Npt2imxXGF8/7SyKaOaOmoCJEZGKwOS61B7KKQa/GDki3ag1XmoDyf29ZYkH43EdfRQ5ybtlFjOQ19eVTZlNaGppjCaQAsUWPLVYbiXq/zq2Nu9uWTmMiyn3yqTgbo3blBZaeiJelWs2G/V1CHDtbCGa/LlbdCpQ4ta2PEIBh/q1MLKQMFgq8oeujX5httKr3jlaPDDv+PrhwYPuuIQpkLlpDMVMhUqp0C5+6aHyiu0s89Yfy2s6jtjLKC5/zrymSzS8QT8Lc1ITEzC5fcik5gG43KCZwsQRQFWhgGbzcETqMdMLA5PYwAz0Rjc9X6k4gnYHAwEQYBQ4OCocyGXzsDbGMB0NFYcOxfXxtghK8HlWQRC898zi6aWgeLj39Hc1YHJz6PwtwaRik7B6fWUAGVnUvAHmxAbG0cgHELs2xga2lqVpEydqwRIfsD6tlZEv40Vx8px01MJ2J0OBaiQzaKxPVy0lglkKrTQ1KaHzFVm1iEAZmE0C+O/XRjzqRTcgQakYlOw17nApjOgbTbwBfkQFmCxWiFwnNKSZKdn4PT5kE0m4XC7kUulQNG00n4QSYLVbgfHsnD5fMgkk8Wxc3Epi0VpPyRBgC/YPN9+XLx201gd47kr140F9P8e17FQgCCW7IJoEPCKk+avmmwUmXYvvL1hZN5GkX7+Q8m+nrLjtM2Dx3wO9/i0uqcut4H7k/u+3WHYO7yQ8jwit0eUUMetHmy1MOAkCZfZKIRfCWqiEOWg4d4SRO5TEoWJWTUYQjBAu/FGyGNEnC0r8lUToGrUNd7RUyMdzgUwSDq3723mKfoGgXQEIDodX0aeAHeJnT37E2WXxf6oy9/MAAAAAElFTkSuQmCC;strokeColor=none;strokeWidth=0;points=[];labelBackgroundColor=none;rounded=0;html=1;whiteSpace=wrap;" parent="1" vertex="1">
            <mxGeometry x="1932" y="856" width="36" height="80" as="geometry" />
          </mxCell>
        </UserObject>
        <UserObject label="&lt;div style=&quot;font-size: 1px&quot;&gt;&lt;p style=&quot;text-align:center;margin-left:0;margin-right:0;margin-top:0px;margin-bottom:0px;text-indent:0;vertical-align:middle;direction:ltr;&quot;&gt;&lt;font style=&quot;font-size:17px;font-family:0;color:#000000;direction:ltr;letter-spacing:0px;line-height:120%;opacity:1&quot;&gt;&lt;b&gt;业务系统&lt;/b&gt;&lt;/font&gt;&lt;/p&gt;&lt;/div&gt;" tags="Background" id="35">
          <mxCell style="verticalAlign=middle;align=center;overflow=width;vsdxID=34;fillColor=none;gradientColor=none;shape=stencil(nZBLDoAgDAVP0z3SIyjeg0SURgWD+Lu9EGL8xBW7N828Ji1gOWs5KeBs9s72aqPGa8AKOCejlSMfEqAALFvrVOfsYprEk4xmTKNd44Y99VhscHY8qU7iQOYhFixbvfhXzlZfYgj3hQG+54dReh2KEw==);strokeColor=none;strokeWidth=0;spacingTop=-3;spacingBottom=-3;spacingLeft=-3;spacingRight=-3;points=[];labelBackgroundColor=none;rounded=0;html=1;whiteSpace=wrap;" parent="1" vertex="1">
            <mxGeometry x="1166" y="979" width="136" height="45" as="geometry" />
          </mxCell>
        </UserObject>
        <UserObject label="&lt;div style=&quot;font-size: 1px&quot;&gt;&lt;p style=&quot;text-align:center;margin-left:0;margin-right:0;margin-top:0px;margin-bottom:0px;text-indent:0;vertical-align:middle;direction:ltr;&quot;&gt;&lt;font style=&quot;font-size:17px;font-family:0;color:#000000;direction:ltr;letter-spacing:0px;line-height:120%;opacity:1&quot;&gt;&lt;b&gt;数据库服务&lt;/b&gt;&lt;/font&gt;&lt;/p&gt;&lt;/div&gt;" tags="Background" id="36">
          <mxCell style="verticalAlign=middle;align=center;overflow=width;vsdxID=35;fillColor=none;gradientColor=none;shape=stencil(nZBLDoAgDAVP0z3SIyjeg0SURgWD+Lu9EGL8xBW7N828Ji1gOWs5KeBs9s72aqPGa8AKOCejlSMfEqAALFvrVOfsYprEk4xmTKNd44Y99VhscHY8qU7iQOYhFixbvfhXzlZfYgj3hQG+54dReh2KEw==);strokeColor=none;strokeWidth=0;spacingTop=-3;spacingBottom=-3;spacingLeft=-3;spacingRight=-3;points=[];labelBackgroundColor=none;rounded=0;html=1;whiteSpace=wrap;" parent="1" vertex="1">
            <mxGeometry x="1793" y="962" width="136" height="45" as="geometry" />
          </mxCell>
        </UserObject>
        <UserObject label="&lt;div style=&quot;font-size: 1px&quot;&gt;&lt;p style=&quot;text-align:center;margin-left:0;margin-right:0;margin-top:0px;margin-bottom:0px;text-indent:0;vertical-align:middle;direction:ltr;&quot;&gt;&lt;font style=&quot;font-size:15px;font-family:0;color:#000000;direction:ltr;letter-spacing:0px;line-height:120%;opacity:1&quot;&gt;&lt;b&gt;Redis&lt;/b&gt;&lt;/font&gt;&lt;/p&gt;&lt;/div&gt;" tags="Background" id="37">
          <mxCell style="verticalAlign=middle;align=center;overflow=width;vsdxID=36;fillColor=none;gradientColor=none;image;aspect=fixed;image=data:image/png,iVBORw0KGgoAAAANSUhEUgAAACQAAABQCAYAAABxs9dPAAAAAXNSR0IArs4c6QAAA9FJREFUaEPtmktME1EUhv87nbbTlr6gQAFbHhqNxkQTRYNRjNH4AkmMC10Yda2JKzcmunCvLt24cSsmGOOWpa8Yja9E4hsliLSlLfQ5nZeZQQplkLY46Yw6s53bc77573/PnDu9pKP7cFCg+RsEpB+AFbpcEieB3KdF/iwJ9ewfIiBHdeFYlFQChki450BBP2VUMhRkIMkI6swxmEDlZoNcvTVkrCk7fv6SsYBMU5cx0d+xyoivqdxi0OS+lIyo4iypUGjHIRDGrRo8kZjWBEQJIgrgXg1XBrS6tx+XTh4rGTz8+h0GH77QB4he16Nd4mUi8e8eV6YQ1dBWEyBxarwyoK5dfWhpUUM9/fBVO9BqPCQDnTq4pyT5++9R3Hn0Uh8gy5qt2iVeJpLw8VllU1YTmt8kWbIOUf6WmjCJiYnKFOra1Q+Ls041eDSS0A60OlP348KJgZLkD95+0s/U9Npt2imxXGF8/7SyKaOaOmoCJEZGKwOS61B7KKQa/GDki3ag1XmoDyf29ZYkH43EdfRQ5ybtlFjOQ19eVTZlNaGppjCaQAsUWPLVYbiXq/zq2Nu9uWTmMiyn3yqTgbo3blBZaeiJelWs2G/V1CHDtbCGa/LlbdCpQ4ta2PEIBh/q1MLKQMFgq8oeujX5httKr3jlaPDDv+PrhwYPuuIQpkLlpDMVMhUqp0C5+6aHyiu0s89Yfy2s6jtjLKC5/zrymSzS8QT8Lc1ITEzC5fcik5gG43KCZwsQRQFWhgGbzcETqMdMLA5PYwAz0Rjc9X6k4gnYHAwEQYBQ4OCocyGXzsDbGMB0NFYcOxfXxtghK8HlWQRC898zi6aWgeLj39Hc1YHJz6PwtwaRik7B6fWUAGVnUvAHmxAbG0cgHELs2xga2lqVpEydqwRIfsD6tlZEv40Vx8px01MJ2J0OBaiQzaKxPVy0lglkKrTQ1KaHzFVm1iEAZmE0C+O/XRjzqRTcgQakYlOw17nApjOgbTbwBfkQFmCxWiFwnNKSZKdn4PT5kE0m4XC7kUulQNG00n4QSYLVbgfHsnD5fMgkk8Wxc3Epi0VpPyRBgC/YPN9+XLx201gd47kr140F9P8e17FQgCCW7IJoEPCKk+avmmwUmXYvvL1hZN5GkX7+Q8m+nrLjtM2Dx3wO9/i0uqcut4H7k/u+3WHYO7yQ8jwit0eUUMetHmy1MOAkCZfZKIRfCWqiEOWg4d4SRO5TEoWJWTUYQjBAu/FGyGNEnC0r8lUToGrUNd7RUyMdzgUwSDq3723mKfoGgXQEIDodX0aeAHeJnT37E2WXxf6oy9/MAAAAAElFTkSuQmCC;strokeColor=none;strokeWidth=0;points=[];labelBackgroundColor=none;rounded=0;html=1;whiteSpace=wrap;" parent="1" vertex="1">
            <mxGeometry x="1838" y="138" width="36" height="67" as="geometry" />
          </mxCell>
        </UserObject>
        <UserObject label="&lt;div style=&quot;font-size: 1px&quot;&gt;&lt;p style=&quot;text-align:center;margin-left:0;margin-right:0;margin-top:0px;margin-bottom:0px;text-indent:0;vertical-align:middle;direction:ltr;&quot;&gt;&lt;font style=&quot;font-size:15px;font-family:0;color:#000000;direction:ltr;letter-spacing:0px;line-height:120%;opacity:1&quot;&gt;&lt;b&gt;Redis&lt;br/&gt;&lt;/b&gt;&lt;/font&gt;&lt;/p&gt;&lt;/div&gt;" tags="Background" id="38">
          <mxCell style="verticalAlign=middle;align=center;overflow=width;vsdxID=37;fillColor=none;gradientColor=none;image;aspect=fixed;image=data:image/png,iVBORw0KGgoAAAANSUhEUgAAACQAAABQCAYAAABxs9dPAAAAAXNSR0IArs4c6QAAA9FJREFUaEPtmktME1EUhv87nbbTlr6gQAFbHhqNxkQTRYNRjNH4AkmMC10Yda2JKzcmunCvLt24cSsmGOOWpa8Yja9E4hsliLSlLfQ5nZeZQQplkLY46Yw6s53bc77573/PnDu9pKP7cFCg+RsEpB+AFbpcEieB3KdF/iwJ9ewfIiBHdeFYlFQChki450BBP2VUMhRkIMkI6swxmEDlZoNcvTVkrCk7fv6SsYBMU5cx0d+xyoivqdxi0OS+lIyo4iypUGjHIRDGrRo8kZjWBEQJIgrgXg1XBrS6tx+XTh4rGTz8+h0GH77QB4he16Nd4mUi8e8eV6YQ1dBWEyBxarwyoK5dfWhpUUM9/fBVO9BqPCQDnTq4pyT5++9R3Hn0Uh8gy5qt2iVeJpLw8VllU1YTmt8kWbIOUf6WmjCJiYnKFOra1Q+Ls041eDSS0A60OlP348KJgZLkD95+0s/U9Npt2imxXGF8/7SyKaOaOmoCJEZGKwOS61B7KKQa/GDki3ag1XmoDyf29ZYkH43EdfRQ5ybtlFjOQ19eVTZlNaGppjCaQAsUWPLVYbiXq/zq2Nu9uWTmMiyn3yqTgbo3blBZaeiJelWs2G/V1CHDtbCGa/LlbdCpQ4ta2PEIBh/q1MLKQMFgq8oeujX5httKr3jlaPDDv+PrhwYPuuIQpkLlpDMVMhUqp0C5+6aHyiu0s89Yfy2s6jtjLKC5/zrymSzS8QT8Lc1ITEzC5fcik5gG43KCZwsQRQFWhgGbzcETqMdMLA5PYwAz0Rjc9X6k4gnYHAwEQYBQ4OCocyGXzsDbGMB0NFYcOxfXxtghK8HlWQRC898zi6aWgeLj39Hc1YHJz6PwtwaRik7B6fWUAGVnUvAHmxAbG0cgHELs2xga2lqVpEydqwRIfsD6tlZEv40Vx8px01MJ2J0OBaiQzaKxPVy0lglkKrTQ1KaHzFVm1iEAZmE0C+O/XRjzqRTcgQakYlOw17nApjOgbTbwBfkQFmCxWiFwnNKSZKdn4PT5kE0m4XC7kUulQNG00n4QSYLVbgfHsnD5fMgkk8Wxc3Epi0VpPyRBgC/YPN9+XLx201gd47kr140F9P8e17FQgCCW7IJoEPCKk+avmmwUmXYvvL1hZN5GkX7+Q8m+nrLjtM2Dx3wO9/i0uqcut4H7k/u+3WHYO7yQ8jwit0eUUMetHmy1MOAkCZfZKIRfCWqiEOWg4d4SRO5TEoWJWTUYQjBAu/FGyGNEnC0r8lUToGrUNd7RUyMdzgUwSDq3723mKfoGgXQEIDodX0aeAHeJnT37E2WXxf6oy9/MAAAAAElFTkSuQmCC;strokeColor=none;strokeWidth=0;points=[];labelBackgroundColor=none;rounded=0;html=1;whiteSpace=wrap;" parent="1" vertex="1">
            <mxGeometry x="1754" y="137" width="36" height="67" as="geometry" />
          </mxCell>
        </UserObject>
        <UserObject label="&lt;div style=&quot;font-size: 1px&quot;&gt;&lt;p style=&quot;text-align:center;margin-left:0;margin-right:0;margin-top:0px;margin-bottom:0px;text-indent:0;vertical-align:middle;direction:ltr;&quot;&gt;&lt;font style=&quot;font-size:15px;font-family:0;color:#000000;direction:ltr;letter-spacing:0px;line-height:120%;opacity:1&quot;&gt;&lt;b&gt;Redis&lt;/b&gt;&lt;/font&gt;&lt;/p&gt;&lt;/div&gt;" tags="Background" id="39">
          <mxCell style="verticalAlign=middle;align=center;overflow=width;vsdxID=38;fillColor=none;gradientColor=none;image;aspect=fixed;image=data:image/png,iVBORw0KGgoAAAANSUhEUgAAACQAAABQCAYAAABxs9dPAAAAAXNSR0IArs4c6QAAA9FJREFUaEPtmktME1EUhv87nbbTlr6gQAFbHhqNxkQTRYNRjNH4AkmMC10Yda2JKzcmunCvLt24cSsmGOOWpa8Yja9E4hsliLSlLfQ5nZeZQQplkLY46Yw6s53bc77573/PnDu9pKP7cFCg+RsEpB+AFbpcEieB3KdF/iwJ9ewfIiBHdeFYlFQChki450BBP2VUMhRkIMkI6swxmEDlZoNcvTVkrCk7fv6SsYBMU5cx0d+xyoivqdxi0OS+lIyo4iypUGjHIRDGrRo8kZjWBEQJIgrgXg1XBrS6tx+XTh4rGTz8+h0GH77QB4he16Nd4mUi8e8eV6YQ1dBWEyBxarwyoK5dfWhpUUM9/fBVO9BqPCQDnTq4pyT5++9R3Hn0Uh8gy5qt2iVeJpLw8VllU1YTmt8kWbIOUf6WmjCJiYnKFOra1Q+Ls041eDSS0A60OlP348KJgZLkD95+0s/U9Npt2imxXGF8/7SyKaOaOmoCJEZGKwOS61B7KKQa/GDki3ag1XmoDyf29ZYkH43EdfRQ5ybtlFjOQ19eVTZlNaGppjCaQAsUWPLVYbiXq/zq2Nu9uWTmMiyn3yqTgbo3blBZaeiJelWs2G/V1CHDtbCGa/LlbdCpQ4ta2PEIBh/q1MLKQMFgq8oeujX5httKr3jlaPDDv+PrhwYPuuIQpkLlpDMVMhUqp0C5+6aHyiu0s89Yfy2s6jtjLKC5/zrymSzS8QT8Lc1ITEzC5fcik5gG43KCZwsQRQFWhgGbzcETqMdMLA5PYwAz0Rjc9X6k4gnYHAwEQYBQ4OCocyGXzsDbGMB0NFYcOxfXxtghK8HlWQRC898zi6aWgeLj39Hc1YHJz6PwtwaRik7B6fWUAGVnUvAHmxAbG0cgHELs2xga2lqVpEydqwRIfsD6tlZEv40Vx8px01MJ2J0OBaiQzaKxPVy0lglkKrTQ1KaHzFVm1iEAZmE0C+O/XRjzqRTcgQakYlOw17nApjOgbTbwBfkQFmCxWiFwnNKSZKdn4PT5kE0m4XC7kUulQNG00n4QSYLVbgfHsnD5fMgkk8Wxc3Epi0VpPyRBgC/YPN9+XLx201gd47kr140F9P8e17FQgCCW7IJoEPCKk+avmmwUmXYvvL1hZN5GkX7+Q8m+nrLjtM2Dx3wO9/i0uqcut4H7k/u+3WHYO7yQ8jwit0eUUMetHmy1MOAkCZfZKIRfCWqiEOWg4d4SRO5TEoWJWTUYQjBAu/FGyGNEnC0r8lUToGrUNd7RUyMdzgUwSDq3723mKfoGgXQEIDodX0aeAHeJnT37E2WXxf6oy9/MAAAAAElFTkSuQmCC;strokeColor=none;strokeWidth=0;points=[];labelBackgroundColor=none;rounded=0;html=1;whiteSpace=wrap;" parent="1" vertex="1">
            <mxGeometry x="1922" y="138" width="36" height="67" as="geometry" />
          </mxCell>
        </UserObject>
        <UserObject label="" tags="Background" id="40">
          <mxCell style="vsdxID=39;fillColor=none;gradientColor=none;shape=stencil(nZBLDoAgDERP0z3SI/i5B4koRAWC+Lu9kMaIxpW7mfZNkw5gOSvhJHA2B28Huek2KMAKONdGSa9DVIA1YNlZL3tvF9OSdyKRSU12TRd2yrGU4OzIXUPgqE0GFuw3evlP+Df6AKO4P6Ry8t27jTiiJrE+AQ==);strokeColor=#000000;spacingTop=-3;spacingBottom=-3;spacingLeft=-3;spacingRight=-3;points=[];labelBackgroundColor=none;rounded=0;html=1;whiteSpace=wrap;" parent="1" vertex="1">
            <mxGeometry x="1720" y="283" width="278" height="127" as="geometry" />
          </mxCell>
        </UserObject>
        <UserObject label="&lt;div style=&quot;font-size: 1px&quot;&gt;&lt;p style=&quot;text-align:center;margin-left:0;margin-right:0;margin-top:0px;margin-bottom:0px;text-indent:0;vertical-align:middle;direction:ltr;&quot;&gt;&lt;font style=&quot;font-size:15px;font-family:0;color:#000000;direction:ltr;letter-spacing:0px;line-height:120%;opacity:1&quot;&gt;&lt;b&gt;Kafka&lt;/b&gt;&lt;/font&gt;&lt;/p&gt;&lt;/div&gt;" tags="Background" id="41">
          <mxCell style="verticalAlign=middle;align=center;overflow=width;vsdxID=40;fillColor=none;gradientColor=none;image;aspect=fixed;image=data:image/png,iVBORw0KGgoAAAANSUhEUgAAACQAAABQCAYAAABxs9dPAAAAAXNSR0IArs4c6QAAA9FJREFUaEPtmktME1EUhv87nbbTlr6gQAFbHhqNxkQTRYNRjNH4AkmMC10Yda2JKzcmunCvLt24cSsmGOOWpa8Yja9E4hsliLSlLfQ5nZeZQQplkLY46Yw6s53bc77573/PnDu9pKP7cFCg+RsEpB+AFbpcEieB3KdF/iwJ9ewfIiBHdeFYlFQChki450BBP2VUMhRkIMkI6swxmEDlZoNcvTVkrCk7fv6SsYBMU5cx0d+xyoivqdxi0OS+lIyo4iypUGjHIRDGrRo8kZjWBEQJIgrgXg1XBrS6tx+XTh4rGTz8+h0GH77QB4he16Nd4mUi8e8eV6YQ1dBWEyBxarwyoK5dfWhpUUM9/fBVO9BqPCQDnTq4pyT5++9R3Hn0Uh8gy5qt2iVeJpLw8VllU1YTmt8kWbIOUf6WmjCJiYnKFOra1Q+Ls041eDSS0A60OlP348KJgZLkD95+0s/U9Npt2imxXGF8/7SyKaOaOmoCJEZGKwOS61B7KKQa/GDki3ag1XmoDyf29ZYkH43EdfRQ5ybtlFjOQ19eVTZlNaGppjCaQAsUWPLVYbiXq/zq2Nu9uWTmMiyn3yqTgbo3blBZaeiJelWs2G/V1CHDtbCGa/LlbdCpQ4ta2PEIBh/q1MLKQMFgq8oeujX5httKr3jlaPDDv+PrhwYPuuIQpkLlpDMVMhUqp0C5+6aHyiu0s89Yfy2s6jtjLKC5/zrymSzS8QT8Lc1ITEzC5fcik5gG43KCZwsQRQFWhgGbzcETqMdMLA5PYwAz0Rjc9X6k4gnYHAwEQYBQ4OCocyGXzsDbGMB0NFYcOxfXxtghK8HlWQRC898zi6aWgeLj39Hc1YHJz6PwtwaRik7B6fWUAGVnUvAHmxAbG0cgHELs2xga2lqVpEydqwRIfsD6tlZEv40Vx8px01MJ2J0OBaiQzaKxPVy0lglkKrTQ1KaHzFVm1iEAZmE0C+O/XRjzqRTcgQakYlOw17nApjOgbTbwBfkQFmCxWiFwnNKSZKdn4PT5kE0m4XC7kUulQNG00n4QSYLVbgfHsnD5fMgkk8Wxc3Epi0VpPyRBgC/YPN9+XLx201gd47kr140F9P8e17FQgCCW7IJoEPCKk+avmmwUmXYvvL1hZN5GkX7+Q8m+nrLjtM2Dx3wO9/i0uqcut4H7k/u+3WHYO7yQ8jwit0eUUMetHmy1MOAkCZfZKIRfCWqiEOWg4d4SRO5TEoWJWTUYQjBAu/FGyGNEnC0r8lUToGrUNd7RUyMdzgUwSDq3723mKfoGgXQEIDodX0aeAHeJnT37E2WXxf6oy9/MAAAAAElFTkSuQmCC;strokeColor=none;strokeWidth=0;points=[];labelBackgroundColor=none;rounded=0;html=1;whiteSpace=wrap;" parent="1" vertex="1">
            <mxGeometry x="1843" y="298" width="36" height="73" as="geometry" />
          </mxCell>
        </UserObject>
        <UserObject label="&lt;div style=&quot;font-size: 1px&quot;&gt;&lt;p style=&quot;text-align:center;margin-left:0;margin-right:0;margin-top:0px;margin-bottom:0px;text-indent:0;vertical-align:middle;direction:ltr;&quot;&gt;&lt;font style=&quot;font-size:15px;font-family:0;color:#000000;direction:ltr;letter-spacing:0px;line-height:120%;opacity:1&quot;&gt;&lt;b&gt;Kafka&lt;br/&gt;&lt;/b&gt;&lt;/font&gt;&lt;/p&gt;&lt;/div&gt;" tags="Background" id="42">
          <mxCell style="verticalAlign=middle;align=center;overflow=width;vsdxID=41;fillColor=none;gradientColor=none;image;aspect=fixed;image=data:image/png,iVBORw0KGgoAAAANSUhEUgAAACQAAABQCAYAAABxs9dPAAAAAXNSR0IArs4c6QAAA9FJREFUaEPtmktME1EUhv87nbbTlr6gQAFbHhqNxkQTRYNRjNH4AkmMC10Yda2JKzcmunCvLt24cSsmGOOWpa8Yja9E4hsliLSlLfQ5nZeZQQplkLY46Yw6s53bc77573/PnDu9pKP7cFCg+RsEpB+AFbpcEieB3KdF/iwJ9ewfIiBHdeFYlFQChki450BBP2VUMhRkIMkI6swxmEDlZoNcvTVkrCk7fv6SsYBMU5cx0d+xyoivqdxi0OS+lIyo4iypUGjHIRDGrRo8kZjWBEQJIgrgXg1XBrS6tx+XTh4rGTz8+h0GH77QB4he16Nd4mUi8e8eV6YQ1dBWEyBxarwyoK5dfWhpUUM9/fBVO9BqPCQDnTq4pyT5++9R3Hn0Uh8gy5qt2iVeJpLw8VllU1YTmt8kWbIOUf6WmjCJiYnKFOra1Q+Ls041eDSS0A60OlP348KJgZLkD95+0s/U9Npt2imxXGF8/7SyKaOaOmoCJEZGKwOS61B7KKQa/GDki3ag1XmoDyf29ZYkH43EdfRQ5ybtlFjOQ19eVTZlNaGppjCaQAsUWPLVYbiXq/zq2Nu9uWTmMiyn3yqTgbo3blBZaeiJelWs2G/V1CHDtbCGa/LlbdCpQ4ta2PEIBh/q1MLKQMFgq8oeujX5httKr3jlaPDDv+PrhwYPuuIQpkLlpDMVMhUqp0C5+6aHyiu0s89Yfy2s6jtjLKC5/zrymSzS8QT8Lc1ITEzC5fcik5gG43KCZwsQRQFWhgGbzcETqMdMLA5PYwAz0Rjc9X6k4gnYHAwEQYBQ4OCocyGXzsDbGMB0NFYcOxfXxtghK8HlWQRC898zi6aWgeLj39Hc1YHJz6PwtwaRik7B6fWUAGVnUvAHmxAbG0cgHELs2xga2lqVpEydqwRIfsD6tlZEv40Vx8px01MJ2J0OBaiQzaKxPVy0lglkKrTQ1KaHzFVm1iEAZmE0C+O/XRjzqRTcgQakYlOw17nApjOgbTbwBfkQFmCxWiFwnNKSZKdn4PT5kE0m4XC7kUulQNG00n4QSYLVbgfHsnD5fMgkk8Wxc3Epi0VpPyRBgC/YPN9+XLx201gd47kr140F9P8e17FQgCCW7IJoEPCKk+avmmwUmXYvvL1hZN5GkX7+Q8m+nrLjtM2Dx3wO9/i0uqcut4H7k/u+3WHYO7yQ8jwit0eUUMetHmy1MOAkCZfZKIRfCWqiEOWg4d4SRO5TEoWJWTUYQjBAu/FGyGNEnC0r8lUToGrUNd7RUyMdzgUwSDq3723mKfoGgXQEIDodX0aeAHeJnT37E2WXxf6oy9/MAAAAAElFTkSuQmCC;strokeColor=none;strokeWidth=0;points=[];labelBackgroundColor=none;rounded=0;html=1;whiteSpace=wrap;" parent="1" vertex="1">
            <mxGeometry x="1757" y="296" width="36" height="73" as="geometry" />
          </mxCell>
        </UserObject>
        <UserObject label="&lt;div style=&quot;font-size: 1px&quot;&gt;&lt;p style=&quot;text-align:center;margin-left:0;margin-right:0;margin-top:0px;margin-bottom:0px;text-indent:0;vertical-align:middle;direction:ltr;&quot;&gt;&lt;font style=&quot;font-size:15px;font-family:0;color:#000000;direction:ltr;letter-spacing:0px;line-height:120%;opacity:1&quot;&gt;&lt;b&gt;Kafka&lt;/b&gt;&lt;/font&gt;&lt;/p&gt;&lt;/div&gt;" tags="Background" id="43">
          <mxCell style="verticalAlign=middle;align=center;overflow=width;vsdxID=42;fillColor=none;gradientColor=none;image;aspect=fixed;image=data:image/png,iVBORw0KGgoAAAANSUhEUgAAACQAAABQCAYAAABxs9dPAAAAAXNSR0IArs4c6QAAA9FJREFUaEPtmktME1EUhv87nbbTlr6gQAFbHhqNxkQTRYNRjNH4AkmMC10Yda2JKzcmunCvLt24cSsmGOOWpa8Yja9E4hsliLSlLfQ5nZeZQQplkLY46Yw6s53bc77573/PnDu9pKP7cFCg+RsEpB+AFbpcEieB3KdF/iwJ9ewfIiBHdeFYlFQChki450BBP2VUMhRkIMkI6swxmEDlZoNcvTVkrCk7fv6SsYBMU5cx0d+xyoivqdxi0OS+lIyo4iypUGjHIRDGrRo8kZjWBEQJIgrgXg1XBrS6tx+XTh4rGTz8+h0GH77QB4he16Nd4mUi8e8eV6YQ1dBWEyBxarwyoK5dfWhpUUM9/fBVO9BqPCQDnTq4pyT5++9R3Hn0Uh8gy5qt2iVeJpLw8VllU1YTmt8kWbIOUf6WmjCJiYnKFOra1Q+Ls041eDSS0A60OlP348KJgZLkD95+0s/U9Npt2imxXGF8/7SyKaOaOmoCJEZGKwOS61B7KKQa/GDki3ag1XmoDyf29ZYkH43EdfRQ5ybtlFjOQ19eVTZlNaGppjCaQAsUWPLVYbiXq/zq2Nu9uWTmMiyn3yqTgbo3blBZaeiJelWs2G/V1CHDtbCGa/LlbdCpQ4ta2PEIBh/q1MLKQMFgq8oeujX5httKr3jlaPDDv+PrhwYPuuIQpkLlpDMVMhUqp0C5+6aHyiu0s89Yfy2s6jtjLKC5/zrymSzS8QT8Lc1ITEzC5fcik5gG43KCZwsQRQFWhgGbzcETqMdMLA5PYwAz0Rjc9X6k4gnYHAwEQYBQ4OCocyGXzsDbGMB0NFYcOxfXxtghK8HlWQRC898zi6aWgeLj39Hc1YHJz6PwtwaRik7B6fWUAGVnUvAHmxAbG0cgHELs2xga2lqVpEydqwRIfsD6tlZEv40Vx8px01MJ2J0OBaiQzaKxPVy0lglkKrTQ1KaHzFVm1iEAZmE0C+O/XRjzqRTcgQakYlOw17nApjOgbTbwBfkQFmCxWiFwnNKSZKdn4PT5kE0m4XC7kUulQNG00n4QSYLVbgfHsnD5fMgkk8Wxc3Epi0VpPyRBgC/YPN9+XLx201gd47kr140F9P8e17FQgCCW7IJoEPCKk+avmmwUmXYvvL1hZN5GkX7+Q8m+nrLjtM2Dx3wO9/i0uqcut4H7k/u+3WHYO7yQ8jwit0eUUMetHmy1MOAkCZfZKIRfCWqiEOWg4d4SRO5TEoWJWTUYQjBAu/FGyGNEnC0r8lUToGrUNd7RUyMdzgUwSDq3723mKfoGgXQEIDodX0aeAHeJnT37E2WXxf6oy9/MAAAAAElFTkSuQmCC;strokeColor=none;strokeWidth=0;points=[];labelBackgroundColor=none;rounded=0;html=1;whiteSpace=wrap;" parent="1" vertex="1">
            <mxGeometry x="1927" y="298" width="36" height="73" as="geometry" />
          </mxCell>
        </UserObject>
        <UserObject label="" tags="Background" id="44">
          <mxCell style="vsdxID=43;fillColor=none;gradientColor=none;shape=stencil(nZBLDoAgDERP0z3SI/i5B4koRAWC+Lu9kMaIxpW7mfZNkw5gOSvhJHA2B28Huek2KMAKONdGSa9DVIA1YNlZL3tvF9OSdyKRSU12TRd2yrGU4OzIXUPgqE0GFuw3evlP+Df6AKO4P6Ry8t27jTiiJrE+AQ==);strokeColor=#000000;spacingTop=-3;spacingBottom=-3;spacingLeft=-3;spacingRight=-3;points=[];labelBackgroundColor=none;rounded=0;html=1;whiteSpace=wrap;" parent="1" vertex="1">
            <mxGeometry x="1722" y="456" width="278" height="122" as="geometry" />
          </mxCell>
        </UserObject>
        <UserObject label="&lt;div style=&quot;font-size: 1px&quot;&gt;&lt;p style=&quot;text-align:center;margin-left:0;margin-right:0;margin-top:0px;margin-bottom:0px;text-indent:0;vertical-align:middle;direction:ltr;&quot;&gt;&lt;font style=&quot;font-size:15px;font-family:0;color:#000000;direction:ltr;letter-spacing:0px;line-height:120%;opacity:1&quot;&gt;&lt;b&gt;xxl-job&lt;/b&gt;&lt;/font&gt;&lt;/p&gt;&lt;/div&gt;" tags="Background" id="45">
          <mxCell style="verticalAlign=middle;align=center;overflow=width;vsdxID=44;fillColor=none;gradientColor=none;image;aspect=fixed;image=data:image/png,iVBORw0KGgoAAAANSUhEUgAAACQAAABQCAYAAABxs9dPAAAAAXNSR0IArs4c6QAAA9FJREFUaEPtmktME1EUhv87nbbTlr6gQAFbHhqNxkQTRYNRjNH4AkmMC10Yda2JKzcmunCvLt24cSsmGOOWpa8Yja9E4hsliLSlLfQ5nZeZQQplkLY46Yw6s53bc77573/PnDu9pKP7cFCg+RsEpB+AFbpcEieB3KdF/iwJ9ewfIiBHdeFYlFQChki450BBP2VUMhRkIMkI6swxmEDlZoNcvTVkrCk7fv6SsYBMU5cx0d+xyoivqdxi0OS+lIyo4iypUGjHIRDGrRo8kZjWBEQJIgrgXg1XBrS6tx+XTh4rGTz8+h0GH77QB4he16Nd4mUi8e8eV6YQ1dBWEyBxarwyoK5dfWhpUUM9/fBVO9BqPCQDnTq4pyT5++9R3Hn0Uh8gy5qt2iVeJpLw8VllU1YTmt8kWbIOUf6WmjCJiYnKFOra1Q+Ls041eDSS0A60OlP348KJgZLkD95+0s/U9Npt2imxXGF8/7SyKaOaOmoCJEZGKwOS61B7KKQa/GDki3ag1XmoDyf29ZYkH43EdfRQ5ybtlFjOQ19eVTZlNaGppjCaQAsUWPLVYbiXq/zq2Nu9uWTmMiyn3yqTgbo3blBZaeiJelWs2G/V1CHDtbCGa/LlbdCpQ4ta2PEIBh/q1MLKQMFgq8oeujX5httKr3jlaPDDv+PrhwYPuuIQpkLlpDMVMhUqp0C5+6aHyiu0s89Yfy2s6jtjLKC5/zrymSzS8QT8Lc1ITEzC5fcik5gG43KCZwsQRQFWhgGbzcETqMdMLA5PYwAz0Rjc9X6k4gnYHAwEQYBQ4OCocyGXzsDbGMB0NFYcOxfXxtghK8HlWQRC898zi6aWgeLj39Hc1YHJz6PwtwaRik7B6fWUAGVnUvAHmxAbG0cgHELs2xga2lqVpEydqwRIfsD6tlZEv40Vx8px01MJ2J0OBaiQzaKxPVy0lglkKrTQ1KaHzFVm1iEAZmE0C+O/XRjzqRTcgQakYlOw17nApjOgbTbwBfkQFmCxWiFwnNKSZKdn4PT5kE0m4XC7kUulQNG00n4QSYLVbgfHsnD5fMgkk8Wxc3Epi0VpPyRBgC/YPN9+XLx201gd47kr140F9P8e17FQgCCW7IJoEPCKk+avmmwUmXYvvL1hZN5GkX7+Q8m+nrLjtM2Dx3wO9/i0uqcut4H7k/u+3WHYO7yQ8jwit0eUUMetHmy1MOAkCZfZKIRfCWqiEOWg4d4SRO5TEoWJWTUYQjBAu/FGyGNEnC0r8lUToGrUNd7RUyMdzgUwSDq3723mKfoGgXQEIDodX0aeAHeJnT37E2WXxf6oy9/MAAAAAElFTkSuQmCC;strokeColor=none;strokeWidth=0;points=[];labelBackgroundColor=none;rounded=0;html=1;whiteSpace=wrap;" parent="1" vertex="1">
            <mxGeometry x="1905" y="482" width="35" height="71" as="geometry" />
          </mxCell>
        </UserObject>
        <UserObject label="&lt;div style=&quot;font-size: 1px&quot;&gt;&lt;p style=&quot;text-align:center;margin-left:0;margin-right:0;margin-top:0px;margin-bottom:0px;text-indent:0;vertical-align:middle;direction:ltr;&quot;&gt;&lt;font style=&quot;font-size:15px;font-family:0;color:#000000;direction:ltr;letter-spacing:0px;line-height:120%;opacity:1&quot;&gt;&lt;b&gt;xxl-job&lt;br/&gt;&lt;/b&gt;&lt;/font&gt;&lt;/p&gt;&lt;/div&gt;" tags="Background" id="46">
          <mxCell style="verticalAlign=middle;align=center;overflow=width;vsdxID=45;fillColor=none;gradientColor=none;image;aspect=fixed;image=data:image/png,iVBORw0KGgoAAAANSUhEUgAAACQAAABQCAYAAABxs9dPAAAAAXNSR0IArs4c6QAAA9FJREFUaEPtmktME1EUhv87nbbTlr6gQAFbHhqNxkQTRYNRjNH4AkmMC10Yda2JKzcmunCvLt24cSsmGOOWpa8Yja9E4hsliLSlLfQ5nZeZQQplkLY46Yw6s53bc77573/PnDu9pKP7cFCg+RsEpB+AFbpcEieB3KdF/iwJ9ewfIiBHdeFYlFQChki450BBP2VUMhRkIMkI6swxmEDlZoNcvTVkrCk7fv6SsYBMU5cx0d+xyoivqdxi0OS+lIyo4iypUGjHIRDGrRo8kZjWBEQJIgrgXg1XBrS6tx+XTh4rGTz8+h0GH77QB4he16Nd4mUi8e8eV6YQ1dBWEyBxarwyoK5dfWhpUUM9/fBVO9BqPCQDnTq4pyT5++9R3Hn0Uh8gy5qt2iVeJpLw8VllU1YTmt8kWbIOUf6WmjCJiYnKFOra1Q+Ls041eDSS0A60OlP348KJgZLkD95+0s/U9Npt2imxXGF8/7SyKaOaOmoCJEZGKwOS61B7KKQa/GDki3ag1XmoDyf29ZYkH43EdfRQ5ybtlFjOQ19eVTZlNaGppjCaQAsUWPLVYbiXq/zq2Nu9uWTmMiyn3yqTgbo3blBZaeiJelWs2G/V1CHDtbCGa/LlbdCpQ4ta2PEIBh/q1MLKQMFgq8oeujX5httKr3jlaPDDv+PrhwYPuuIQpkLlpDMVMhUqp0C5+6aHyiu0s89Yfy2s6jtjLKC5/zrymSzS8QT8Lc1ITEzC5fcik5gG43KCZwsQRQFWhgGbzcETqMdMLA5PYwAz0Rjc9X6k4gnYHAwEQYBQ4OCocyGXzsDbGMB0NFYcOxfXxtghK8HlWQRC898zi6aWgeLj39Hc1YHJz6PwtwaRik7B6fWUAGVnUvAHmxAbG0cgHELs2xga2lqVpEydqwRIfsD6tlZEv40Vx8px01MJ2J0OBaiQzaKxPVy0lglkKrTQ1KaHzFVm1iEAZmE0C+O/XRjzqRTcgQakYlOw17nApjOgbTbwBfkQFmCxWiFwnNKSZKdn4PT5kE0m4XC7kUulQNG00n4QSYLVbgfHsnD5fMgkk8Wxc3Epi0VpPyRBgC/YPN9+XLx201gd47kr140F9P8e17FQgCCW7IJoEPCKk+avmmwUmXYvvL1hZN5GkX7+Q8m+nrLjtM2Dx3wO9/i0uqcut4H7k/u+3WHYO7yQ8jwit0eUUMetHmy1MOAkCZfZKIRfCWqiEOWg4d4SRO5TEoWJWTUYQjBAu/FGyGNEnC0r8lUToGrUNd7RUyMdzgUwSDq3723mKfoGgXQEIDodX0aeAHeJnT37E2WXxf6oy9/MAAAAAElFTkSuQmCC;strokeColor=none;strokeWidth=0;points=[];labelBackgroundColor=none;rounded=0;html=1;whiteSpace=wrap;" parent="1" vertex="1">
            <mxGeometry x="1788" y="482" width="35" height="71" as="geometry" />
          </mxCell>
        </UserObject>
        <UserObject label="&lt;div style=&quot;font-size: 1px&quot;&gt;&lt;p style=&quot;text-align:center;margin-left:0;margin-right:0;margin-top:0px;margin-bottom:0px;text-indent:0;vertical-align:middle;direction:ltr;&quot;&gt;&lt;font style=&quot;font-size:17px;font-family:0;color:#000000;direction:ltr;letter-spacing:0px;line-height:120%;opacity:1&quot;&gt;&lt;b&gt;调度任务控制台集群&lt;/b&gt;&lt;/font&gt;&lt;/p&gt;&lt;/div&gt;" tags="Background" id="47">
          <mxCell style="verticalAlign=middle;align=center;overflow=width;vsdxID=46;fillColor=none;gradientColor=none;shape=stencil(nZBLDoAgDAVP0z3SIyjeg0SURgWD+Lu9EGL8xBW7N828Ji1gOWs5KeBs9s72aqPGa8AKOCejlSMfEqAALFvrVOfsYprEk4xmTKNd44Y99VhscHY8qU7iQOYhFixbvfhXzlZfYgj3hQG+54dReh2KEw==);strokeColor=none;strokeWidth=0;spacingTop=-3;spacingBottom=-3;spacingLeft=-3;spacingRight=-3;points=[];labelBackgroundColor=none;rounded=0;html=1;whiteSpace=wrap;" parent="1" vertex="1">
            <mxGeometry x="1765" y="583" width="182" height="31" as="geometry" />
          </mxCell>
        </UserObject>
        <UserObject label="&lt;div style=&quot;font-size: 1px&quot;&gt;&lt;p style=&quot;text-align:center;margin-left:0;margin-right:0;margin-top:0px;margin-bottom:0px;text-indent:0;vertical-align:middle;direction:ltr;&quot;&gt;&lt;font style=&quot;font-size:17px;font-family:0;color:#000000;direction:ltr;letter-spacing:0px;line-height:120%;opacity:1&quot;&gt;&lt;b&gt;消息总线Kafka集群&lt;/b&gt;&lt;/font&gt;&lt;/p&gt;&lt;/div&gt;" tags="Background" id="48">
          <mxCell style="verticalAlign=middle;align=center;overflow=width;vsdxID=47;fillColor=none;gradientColor=none;shape=stencil(nZBLDoAgDAVP0z3SIyjeg0SURgWD+Lu9EGL8xBW7N828Ji1gOWs5KeBs9s72aqPGa8AKOCejlSMfEqAALFvrVOfsYprEk4xmTKNd44Y99VhscHY8qU7iQOYhFixbvfhXzlZfYgj3hQG+54dReh2KEw==);strokeColor=none;strokeWidth=0;spacingTop=-3;spacingBottom=-3;spacingLeft=-3;spacingRight=-3;points=[];labelBackgroundColor=none;rounded=0;html=1;whiteSpace=wrap;" parent="1" vertex="1">
            <mxGeometry x="1770" y="413" width="182" height="31" as="geometry" />
          </mxCell>
        </UserObject>
        <UserObject label="&lt;div style=&quot;font-size: 1px&quot;&gt;&lt;p style=&quot;text-align:center;margin-left:0;margin-right:0;margin-top:0px;margin-bottom:0px;text-indent:0;vertical-align:middle;direction:ltr;&quot;&gt;&lt;font style=&quot;font-size:17px;font-family:0;color:#000000;direction:ltr;letter-spacing:0px;line-height:120%;opacity:1&quot;&gt;&lt;b&gt;Redis缓存集群&lt;/b&gt;&lt;/font&gt;&lt;/p&gt;&lt;/div&gt;" tags="Background" id="49">
          <mxCell style="verticalAlign=middle;align=center;overflow=width;vsdxID=48;fillColor=none;gradientColor=none;shape=stencil(nZBLDoAgDAVP0z3SIyjeg0SURgWD+Lu9EGL8xBW7N828Ji1gOWs5KeBs9s72aqPGa8AKOCejlSMfEqAALFvrVOfsYprEk4xmTKNd44Y99VhscHY8qU7iQOYhFixbvfhXzlZfYgj3hQG+54dReh2KEw==);strokeColor=none;strokeWidth=0;spacingTop=-3;spacingBottom=-3;spacingLeft=-3;spacingRight=-3;points=[];labelBackgroundColor=none;rounded=0;html=1;whiteSpace=wrap;" parent="1" vertex="1">
            <mxGeometry x="1763" y="240" width="182" height="31" as="geometry" />
          </mxCell>
        </UserObject>
        <UserObject label="&lt;div style=&quot;font-size: 1px&quot;&gt;&lt;p style=&quot;text-align:center;margin-left:0;margin-right:0;margin-top:0px;margin-bottom:0px;text-indent:0;vertical-align:middle;direction:ltr;&quot;&gt;&lt;font style=&quot;font-size:12px;font-family:0;color:#000000;direction:ltr;letter-spacing:0px;line-height:120%;opacity:1&quot;&gt;&lt;b&gt;Canal&lt;/b&gt;&lt;/font&gt;&lt;/p&gt;&lt;/div&gt;" tags="Background" id="50">
          <mxCell style="verticalAlign=middle;align=center;overflow=width;vsdxID=49;fillColor=none;gradientColor=none;image;aspect=fixed;image=data:image/png,iVBORw0KGgoAAAANSUhEUgAAACQAAABQCAYAAABxs9dPAAAAAXNSR0IArs4c6QAAA9FJREFUaEPtmktME1EUhv87nbbTlr6gQAFbHhqNxkQTRYNRjNH4AkmMC10Yda2JKzcmunCvLt24cSsmGOOWpa8Yja9E4hsliLSlLfQ5nZeZQQplkLY46Yw6s53bc77573/PnDu9pKP7cFCg+RsEpB+AFbpcEieB3KdF/iwJ9ewfIiBHdeFYlFQChki450BBP2VUMhRkIMkI6swxmEDlZoNcvTVkrCk7fv6SsYBMU5cx0d+xyoivqdxi0OS+lIyo4iypUGjHIRDGrRo8kZjWBEQJIgrgXg1XBrS6tx+XTh4rGTz8+h0GH77QB4he16Nd4mUi8e8eV6YQ1dBWEyBxarwyoK5dfWhpUUM9/fBVO9BqPCQDnTq4pyT5++9R3Hn0Uh8gy5qt2iVeJpLw8VllU1YTmt8kWbIOUf6WmjCJiYnKFOra1Q+Ls041eDSS0A60OlP348KJgZLkD95+0s/U9Npt2imxXGF8/7SyKaOaOmoCJEZGKwOS61B7KKQa/GDki3ag1XmoDyf29ZYkH43EdfRQ5ybtlFjOQ19eVTZlNaGppjCaQAsUWPLVYbiXq/zq2Nu9uWTmMiyn3yqTgbo3blBZaeiJelWs2G/V1CHDtbCGa/LlbdCpQ4ta2PEIBh/q1MLKQMFgq8oeujX5httKr3jlaPDDv+PrhwYPuuIQpkLlpDMVMhUqp0C5+6aHyiu0s89Yfy2s6jtjLKC5/zrymSzS8QT8Lc1ITEzC5fcik5gG43KCZwsQRQFWhgGbzcETqMdMLA5PYwAz0Rjc9X6k4gnYHAwEQYBQ4OCocyGXzsDbGMB0NFYcOxfXxtghK8HlWQRC898zi6aWgeLj39Hc1YHJz6PwtwaRik7B6fWUAGVnUvAHmxAbG0cgHELs2xga2lqVpEydqwRIfsD6tlZEv40Vx8px01MJ2J0OBaiQzaKxPVy0lglkKrTQ1KaHzFVm1iEAZmE0C+O/XRjzqRTcgQakYlOw17nApjOgbTbwBfkQFmCxWiFwnNKSZKdn4PT5kE0m4XC7kUulQNG00n4QSYLVbgfHsnD5fMgkk8Wxc3Epi0VpPyRBgC/YPN9+XLx201gd47kr140F9P8e17FQgCCW7IJoEPCKk+avmmwUmXYvvL1hZN5GkX7+Q8m+nrLjtM2Dx3wO9/i0uqcut4H7k/u+3WHYO7yQ8jwit0eUUMetHmy1MOAkCZfZKIRfCWqiEOWg4d4SRO5TEoWJWTUYQjBAu/FGyGNEnC0r8lUToGrUNd7RUyMdzgUwSDq3723mKfoGgXQEIDodX0aeAHeJnT37E2WXxf6oy9/MAAAAAElFTkSuQmCC;strokeColor=none;strokeWidth=0;points=[];labelBackgroundColor=none;rounded=0;html=1;whiteSpace=wrap;" parent="1" vertex="1">
            <mxGeometry x="1770" y="649" width="36" height="80" as="geometry" />
          </mxCell>
        </UserObject>
        <UserObject label="&lt;div style=&quot;font-size: 1px&quot;&gt;&lt;p style=&quot;text-align:center;margin-left:0;margin-right:0;margin-top:0px;margin-bottom:0px;text-indent:0;vertical-align:middle;direction:ltr;&quot;&gt;&lt;font style=&quot;font-size:12px;font-family:0;color:#000000;direction:ltr;letter-spacing:0px;line-height:120%;opacity:1&quot;&gt;&lt;b&gt;ES集群&lt;/b&gt;&lt;/font&gt;&lt;/p&gt;&lt;/div&gt;" tags="Background" id="51">
          <mxCell style="verticalAlign=middle;align=center;overflow=width;vsdxID=50;fillColor=none;gradientColor=none;image;aspect=fixed;image=data:image/png,iVBORw0KGgoAAAANSUhEUgAAACQAAABQCAYAAABxs9dPAAAAAXNSR0IArs4c6QAAA9FJREFUaEPtmktME1EUhv87nbbTlr6gQAFbHhqNxkQTRYNRjNH4AkmMC10Yda2JKzcmunCvLt24cSsmGOOWpa8Yja9E4hsliLSlLfQ5nZeZQQplkLY46Yw6s53bc77573/PnDu9pKP7cFCg+RsEpB+AFbpcEieB3KdF/iwJ9ewfIiBHdeFYlFQChki450BBP2VUMhRkIMkI6swxmEDlZoNcvTVkrCk7fv6SsYBMU5cx0d+xyoivqdxi0OS+lIyo4iypUGjHIRDGrRo8kZjWBEQJIgrgXg1XBrS6tx+XTh4rGTz8+h0GH77QB4he16Nd4mUi8e8eV6YQ1dBWEyBxarwyoK5dfWhpUUM9/fBVO9BqPCQDnTq4pyT5++9R3Hn0Uh8gy5qt2iVeJpLw8VllU1YTmt8kWbIOUf6WmjCJiYnKFOra1Q+Ls041eDSS0A60OlP348KJgZLkD95+0s/U9Npt2imxXGF8/7SyKaOaOmoCJEZGKwOS61B7KKQa/GDki3ag1XmoDyf29ZYkH43EdfRQ5ybtlFjOQ19eVTZlNaGppjCaQAsUWPLVYbiXq/zq2Nu9uWTmMiyn3yqTgbo3blBZaeiJelWs2G/V1CHDtbCGa/LlbdCpQ4ta2PEIBh/q1MLKQMFgq8oeujX5httKr3jlaPDDv+PrhwYPuuIQpkLlpDMVMhUqp0C5+6aHyiu0s89Yfy2s6jtjLKC5/zrymSzS8QT8Lc1ITEzC5fcik5gG43KCZwsQRQFWhgGbzcETqMdMLA5PYwAz0Rjc9X6k4gnYHAwEQYBQ4OCocyGXzsDbGMB0NFYcOxfXxtghK8HlWQRC898zi6aWgeLj39Hc1YHJz6PwtwaRik7B6fWUAGVnUvAHmxAbG0cgHELs2xga2lqVpEydqwRIfsD6tlZEv40Vx8px01MJ2J0OBaiQzaKxPVy0lglkKrTQ1KaHzFVm1iEAZmE0C+O/XRjzqRTcgQakYlOw17nApjOgbTbwBfkQFmCxWiFwnNKSZKdn4PT5kE0m4XC7kUulQNG00n4QSYLVbgfHsnD5fMgkk8Wxc3Epi0VpPyRBgC/YPN9+XLx201gd47kr140F9P8e17FQgCCW7IJoEPCKk+avmmwUmXYvvL1hZN5GkX7+Q8m+nrLjtM2Dx3wO9/i0uqcut4H7k/u+3WHYO7yQ8jwit0eUUMetHmy1MOAkCZfZKIRfCWqiEOWg4d4SRO5TEoWJWTUYQjBAu/FGyGNEnC0r8lUToGrUNd7RUyMdzgUwSDq3723mKfoGgXQEIDodX0aeAHeJnT37E2WXxf6oy9/MAAAAAElFTkSuQmCC;strokeColor=none;strokeWidth=0;points=[];labelBackgroundColor=none;rounded=0;html=1;whiteSpace=wrap;" parent="1" vertex="1">
            <mxGeometry x="1911" y="649" width="36" height="80" as="geometry" />
          </mxCell>
        </UserObject>
        <UserObject label="&lt;div style=&quot;font-size: 1px&quot;&gt;&lt;p style=&quot;text-align:center;margin-left:0;margin-right:0;margin-top:0px;margin-bottom:0px;text-indent:0;vertical-align:middle;direction:ltr;&quot;&gt;&lt;font style=&quot;font-size:17px;font-family:0;color:#000000;direction:ltr;letter-spacing:0px;line-height:120%;opacity:1&quot;&gt;&lt;b&gt;MySQL-ES数据同步服务&lt;/b&gt;&lt;/font&gt;&lt;/p&gt;&lt;/div&gt;" tags="Background" id="52">
          <mxCell style="verticalAlign=middle;align=center;overflow=width;vsdxID=51;fillColor=none;gradientColor=none;shape=stencil(nZBLDoAgDAVP0z3SIyjeg0SURgWD+Lu9EGL8xBW7N828Ji1gOWs5KeBs9s72aqPGa8AKOCejlSMfEqAALFvrVOfsYprEk4xmTKNd44Y99VhscHY8qU7iQOYhFixbvfhXzlZfYgj3hQG+54dReh2KEw==);strokeColor=none;strokeWidth=0;spacingTop=-3;spacingBottom=-3;spacingLeft=-3;spacingRight=-3;points=[];labelBackgroundColor=none;rounded=0;html=1;whiteSpace=wrap;" parent="1" vertex="1">
            <mxGeometry x="1763" y="764" width="196" height="32" as="geometry" />
          </mxCell>
        </UserObject>
        <UserObject label="&lt;div style=&quot;font-size: 1px&quot;&gt;&lt;p style=&quot;text-align:left;margin-left:0;margin-right:0;margin-top:0px;margin-bottom:0px;text-indent:0;vertical-align:middle;direction:ltr;&quot;&gt;&lt;font style=&quot;font-size:17px;font-family:0;color:#ff3333;direction:ltr;letter-spacing:0px;line-height:120%;opacity:1&quot;&gt;&lt;b&gt;Nacos部署说明：&lt;br/&gt;&lt;/b&gt;&lt;/font&gt;&lt;font style=&quot;font-size:17px;font-family:0;color:#ff3333;direction:ltr;letter-spacing:0px;line-height:120%;opacity:1&quot;&gt;&lt;b&gt;至少3节点&lt;br/&gt;&lt;/b&gt;&lt;/font&gt;&lt;font style=&quot;font-size:17px;font-family:0;color:#ff3333;direction:ltr;letter-spacing:0px;line-height:120%;opacity:1&quot;&gt;&lt;b&gt;推荐单台&lt;/b&gt;&lt;/font&gt;&lt;font style=&quot;font-size:NaNpx;font-family:0;color:#ff3333;direction:ltr;letter-spacing:0px;line-height:120%;opacity:1&quot;&gt;&lt;b&gt;配置2C4G&lt;br/&gt;&lt;/b&gt;&lt;/font&gt;&lt;font style=&quot;font-size:17px;font-family:0;color:#ff3333;direction:ltr;letter-spacing:0px;line-height:120%;opacity:1&quot;&gt;&lt;b&gt;&lt;br/&gt;&lt;br/&gt;&lt;/b&gt;&lt;/font&gt;&lt;font style=&quot;font-size:17px;font-family:0;color:#ff3333;direction:ltr;letter-spacing:0px;line-height:120%;opacity:1&quot;&gt;&lt;b&gt;备注：&lt;br/&gt;&lt;/b&gt;&lt;/font&gt;&lt;font style=&quot;font-size:17px;font-family:0;color:#ff3333;direction:ltr;letter-spacing:0px;line-height:120%;opacity:1&quot;&gt;&lt;b&gt;存储使用mysql（建议高可用）&lt;br/&gt;&lt;br/&gt;&lt;/b&gt;&lt;/font&gt;&lt;font style=&quot;font-size:17px;font-family:0;color:#ff3333;direction:ltr;letter-spacing:0px;line-height:120%;opacity:1&quot;&gt;&lt;b&gt;&lt;br/&gt;&lt;/b&gt;&lt;/font&gt;&lt;/p&gt;&lt;/div&gt;" tags="Background" id="53">
          <mxCell style="verticalAlign=middle;align=left;overflow=width;vsdxID=52;fillColor=none;gradientColor=none;shape=stencil(nZBLDoAgDAVP0z3SIyjeg0SURgWD+Lu9EGL8xBW7N828Ji1gOWs5KeBs9s72aqPGa8AKOCejlSMfEqAALFvrVOfsYprEk4xmTKNd44Y99VhscHY8qU7iQOYhFixbvfhXzlZfYgj3hQG+54dReh2KEw==);strokeColor=none;strokeWidth=0;spacingTop=-3;spacingBottom=-3;spacingLeft=-3;spacingRight=-3;points=[];labelBackgroundColor=none;rounded=0;html=1;whiteSpace=wrap;" parent="1" vertex="1">
            <mxGeometry x="311" y="221" width="153" height="165" as="geometry" />
          </mxCell>
        </UserObject>
        <UserObject label="&lt;div style=&quot;font-size: 1px&quot;&gt;&lt;p style=&quot;text-align:left;margin-left:0;margin-right:0;margin-top:0px;margin-bottom:0px;text-indent:0;vertical-align:middle;direction:ltr;&quot;&gt;&lt;font style=&quot;font-size:17px;font-family:0;color:#ff3333;direction:ltr;letter-spacing:0px;line-height:120%;opacity:1&quot;&gt;&lt;b&gt;Nginx部署说明：&lt;br/&gt;&lt;/b&gt;&lt;/font&gt;&lt;font style=&quot;font-size:17px;font-family:0;color:#ff3333;direction:ltr;letter-spacing:0px;line-height:120%;opacity:1&quot;&gt;&lt;b&gt;至少2节点做双机热备&lt;br/&gt;&lt;/b&gt;&lt;/font&gt;&lt;font style=&quot;font-size:17px;font-family:0;color:#ff3333;direction:ltr;letter-spacing:0px;line-height:120%;opacity:1&quot;&gt;&lt;b&gt;推荐单台&lt;/b&gt;&lt;/font&gt;&lt;font style=&quot;font-size:NaNpx;font-family:0;color:#ff3333;direction:ltr;letter-spacing:0px;line-height:120%;opacity:1&quot;&gt;&lt;b&gt;配置4C8G&lt;/b&gt;&lt;/font&gt;&lt;/p&gt;&lt;/div&gt;" tags="Background" id="54">
          <mxCell style="verticalAlign=middle;align=left;overflow=width;vsdxID=53;fillColor=none;gradientColor=none;shape=stencil(nZBLDoAgDAVP0z3SIyjeg0SURgWD+Lu9EGL8xBW7N828Ji1gOWs5KeBs9s72aqPGa8AKOCejlSMfEqAALFvrVOfsYprEk4xmTKNd44Y99VhscHY8qU7iQOYhFixbvfhXzlZfYgj3hQG+54dReh2KEw==);strokeColor=none;strokeWidth=0;spacingTop=-3;spacingBottom=-3;spacingLeft=-3;spacingRight=-3;points=[];labelBackgroundColor=none;rounded=0;html=1;whiteSpace=wrap;" parent="1" vertex="1">
            <mxGeometry x="105" y="991" width="262" height="159" as="geometry" />
          </mxCell>
        </UserObject>
        <UserObject label="&lt;div style=&quot;font-size: 1px&quot;&gt;&lt;p style=&quot;text-align:left;margin-left:0;margin-right:0;margin-top:0px;margin-bottom:0px;text-indent:0;vertical-align:middle;direction:ltr;&quot;&gt;&lt;font style=&quot;font-size:17px;font-family:0;color:#ff3333;direction:ltr;letter-spacing:0px;line-height:120%;opacity:1&quot;&gt;&lt;b&gt;微服务网关部署说明：&lt;br/&gt;&lt;/b&gt;&lt;/font&gt;&lt;font style=&quot;font-size:17px;font-family:0;color:#ff3333;direction:ltr;letter-spacing:0px;line-height:120%;opacity:1&quot;&gt;&lt;b&gt;至少单节点&lt;br/&gt;&lt;/b&gt;&lt;/font&gt;&lt;font style=&quot;font-size:17px;font-family:0;color:#ff3333;direction:ltr;letter-spacing:0px;line-height:120%;opacity:1&quot;&gt;&lt;b&gt;推荐单台&lt;/b&gt;&lt;/font&gt;&lt;font style=&quot;font-size:NaNpx;font-family:0;color:#ff3333;direction:ltr;letter-spacing:0px;line-height:120%;opacity:1&quot;&gt;&lt;b&gt;配置4C8G&lt;/b&gt;&lt;/font&gt;&lt;/p&gt;&lt;/div&gt;" tags="Background" id="55">
          <mxCell style="verticalAlign=middle;align=left;overflow=width;vsdxID=54;fillColor=none;gradientColor=none;shape=stencil(nZBLDoAgDAVP0z3SIyjeg0SURgWD+Lu9EGL8xBW7N828Ji1gOWs5KeBs9s72aqPGa8AKOCejlSMfEqAALFvrVOfsYprEk4xmTKNd44Y99VhscHY8qU7iQOYhFixbvfhXzlZfYgj3hQG+54dReh2KEw==);strokeColor=none;strokeWidth=0;spacingTop=-3;spacingBottom=-3;spacingLeft=-3;spacingRight=-3;points=[];labelBackgroundColor=none;rounded=0;html=1;whiteSpace=wrap;" parent="1" vertex="1">
            <mxGeometry x="473" y="993" width="262" height="159" as="geometry" />
          </mxCell>
        </UserObject>
        <UserObject label="&lt;div style=&quot;font-size: 1px&quot;&gt;&lt;p style=&quot;text-align:left;margin-left:0;margin-right:0;margin-top:0px;margin-bottom:0px;text-indent:0;vertical-align:middle;direction:ltr;&quot;&gt;&lt;font style=&quot;font-size:17px;font-family:0;color:#ff3333;direction:ltr;letter-spacing:0px;line-height:120%;opacity:1&quot;&gt;&lt;b&gt;业务系统部署说明：&lt;br/&gt;&lt;/b&gt;&lt;/font&gt;&lt;font style=&quot;font-size:17px;font-family:0;color:#ff3333;direction:ltr;letter-spacing:0px;line-height:120%;opacity:1&quot;&gt;&lt;b&gt;至少单节点&lt;br/&gt;&lt;/b&gt;&lt;/font&gt;&lt;font style=&quot;font-size:17px;font-family:0;color:#ff3333;direction:ltr;letter-spacing:0px;line-height:120%;opacity:1&quot;&gt;&lt;b&gt;推荐配置4C8G&lt;br/&gt;&lt;/b&gt;&lt;/font&gt;&lt;font style=&quot;font-size:NaNpx;font-family:0;color:#ff3333;direction:ltr;letter-spacing:0px;line-height:120%;opacity:1&quot;&gt;&lt;b&gt;最小化配置2C4G，可根据实际业务量调整&lt;/b&gt;&lt;/font&gt;&lt;/p&gt;&lt;/div&gt;" tags="Background" id="56">
          <mxCell style="verticalAlign=middle;align=left;overflow=width;vsdxID=55;fillColor=none;gradientColor=none;shape=stencil(nZBLDoAgDAVP0z3SIyjeg0SURgWD+Lu9EGL8xBW7N828Ji1gOWs5KeBs9s72aqPGa8AKOCejlSMfEqAALFvrVOfsYprEk4xmTKNd44Y99VhscHY8qU7iQOYhFixbvfhXzlZfYgj3hQG+54dReh2KEw==);strokeColor=none;strokeWidth=0;spacingTop=-3;spacingBottom=-3;spacingLeft=-3;spacingRight=-3;points=[];labelBackgroundColor=none;rounded=0;html=1;whiteSpace=wrap;" parent="1" vertex="1">
            <mxGeometry x="982" y="1000" width="261" height="132" as="geometry" />
          </mxCell>
        </UserObject>
        <UserObject label="&lt;div style=&quot;font-size: 1px&quot;&gt;&lt;p style=&quot;text-align:left;margin-left:0;margin-right:0;margin-top:0px;margin-bottom:0px;text-indent:0;vertical-align:middle;direction:ltr;&quot;&gt;&lt;font style=&quot;font-size:17px;font-family:0;color:#ff3333;direction:ltr;letter-spacing:0px;line-height:120%;opacity:1&quot;&gt;&lt;b&gt;公共服务部署说明：&lt;br/&gt;&lt;/b&gt;&lt;/font&gt;&lt;font style=&quot;font-size:17px;font-family:0;color:#ff3333;direction:ltr;letter-spacing:0px;line-height:120%;opacity:1&quot;&gt;&lt;b&gt;至少单节点&lt;br/&gt;&lt;/b&gt;&lt;/font&gt;&lt;font style=&quot;font-size:17px;font-family:0;color:#ff3333;direction:ltr;letter-spacing:0px;line-height:120%;opacity:1&quot;&gt;&lt;b&gt;推荐配置4C8G&lt;br/&gt;&lt;/b&gt;&lt;/font&gt;&lt;font style=&quot;font-size:NaNpx;font-family:0;color:#ff3333;direction:ltr;letter-spacing:0px;line-height:120%;opacity:1&quot;&gt;&lt;b&gt;最小化配置2C4G&lt;br/&gt;&lt;/b&gt;&lt;/font&gt;&lt;font style=&quot;font-size:17px;font-family:0;color:#ff3333;direction:ltr;letter-spacing:0px;line-height:120%;opacity:1&quot;&gt;&lt;b&gt;&lt;br/&gt;&lt;br/&gt;&lt;/b&gt;&lt;/font&gt;&lt;font style=&quot;font-size:17px;font-family:0;color:#ff3333;direction:ltr;letter-spacing:0px;line-height:120%;opacity:1&quot;&gt;&lt;b&gt;备注：&lt;br/&gt;&lt;/b&gt;&lt;/font&gt;&lt;font style=&quot;font-size:17px;font-family:0;color:#ff3333;direction:ltr;letter-spacing:0px;line-height:120%;opacity:1&quot;&gt;&lt;b&gt;base基础服务所在服务器需要访问互联网&lt;/b&gt;&lt;/font&gt;&lt;/p&gt;&lt;/div&gt;" tags="Background" id="57">
          <mxCell style="verticalAlign=middle;align=left;overflow=width;vsdxID=56;fillColor=none;gradientColor=none;shape=stencil(nZBLDoAgDAVP0z3SIyjeg0SURgWD+Lu9EGL8xBW7N828Ji1gOWs5KeBs9s72aqPGa8AKOCejlSMfEqAALFvrVOfsYprEk4xmTKNd44Y99VhscHY8qU7iQOYhFixbvfhXzlZfYgj3hQG+54dReh2KEw==);strokeColor=none;strokeWidth=0;spacingTop=-3;spacingBottom=-3;spacingLeft=-3;spacingRight=-3;points=[];labelBackgroundColor=none;rounded=0;html=1;whiteSpace=wrap;" parent="1" vertex="1">
            <mxGeometry x="967" y="41" width="261" height="132" as="geometry" />
          </mxCell>
        </UserObject>
        <UserObject label="&lt;div style=&quot;font-size: 1px&quot;&gt;&lt;p style=&quot;text-align:left;margin-left:0;margin-right:0;margin-top:0px;margin-bottom:0px;text-indent:0;vertical-align:middle;direction:ltr;&quot;&gt;&lt;font style=&quot;font-size:17px;font-family:0;color:#ff3333;direction:ltr;letter-spacing:0px;line-height:120%;opacity:1&quot;&gt;&lt;b&gt;Redis部署说明：&lt;br/&gt;&lt;/b&gt;&lt;/font&gt;&lt;font style=&quot;font-size:17px;font-family:0;color:#ff3333;direction:ltr;letter-spacing:0px;line-height:120%;opacity:1&quot;&gt;&lt;b&gt;至少3节点集群&lt;br/&gt;&lt;/b&gt;&lt;/font&gt;&lt;font style=&quot;font-size:NaNpx;font-family:0;color:#ff3333;direction:ltr;letter-spacing:0px;line-height:120%;opacity:1&quot;&gt;&lt;b&gt;最小化配置4C16G&lt;/b&gt;&lt;/font&gt;&lt;/p&gt;&lt;/div&gt;" tags="Background" id="58">
          <mxCell style="verticalAlign=middle;align=left;overflow=width;vsdxID=57;fillColor=none;gradientColor=none;shape=stencil(nZBLDoAgDAVP0z3SIyjeg0SURgWD+Lu9EGL8xBW7N828Ji1gOWs5KeBs9s72aqPGa8AKOCejlSMfEqAALFvrVOfsYprEk4xmTKNd44Y99VhscHY8qU7iQOYhFixbvfhXzlZfYgj3hQG+54dReh2KEw==);strokeColor=none;strokeWidth=0;spacingTop=-3;spacingBottom=-3;spacingLeft=-3;spacingRight=-3;points=[];labelBackgroundColor=none;rounded=0;html=1;whiteSpace=wrap;" parent="1" vertex="1">
            <mxGeometry x="2023" y="126" width="307" height="114" as="geometry" />
          </mxCell>
        </UserObject>
        <UserObject label="&lt;div style=&quot;font-size: 1px&quot;&gt;&lt;p style=&quot;text-align:left;margin-left:0;margin-right:0;margin-top:0px;margin-bottom:0px;text-indent:0;vertical-align:middle;direction:ltr;&quot;&gt;&lt;font style=&quot;font-size:17px;font-family:0;color:#ff3333;direction:ltr;letter-spacing:0px;line-height:120%;opacity:1&quot;&gt;&lt;b&gt;Kafka部署说明：&lt;br/&gt;&lt;/b&gt;&lt;/font&gt;&lt;font style=&quot;font-size:17px;font-family:0;color:#ff3333;direction:ltr;letter-spacing:0px;line-height:120%;opacity:1&quot;&gt;&lt;b&gt;至少3节点集群&lt;br/&gt;&lt;/b&gt;&lt;/font&gt;&lt;font style=&quot;font-size:NaNpx;font-family:0;color:#ff3333;direction:ltr;letter-spacing:0px;line-height:120%;opacity:1&quot;&gt;&lt;b&gt;最小化配置4C16G&lt;/b&gt;&lt;/font&gt;&lt;/p&gt;&lt;/div&gt;" tags="Background" id="59">
          <mxCell style="verticalAlign=middle;align=left;overflow=width;vsdxID=58;fillColor=none;gradientColor=none;shape=stencil(nZBLDoAgDAVP0z3SIyjeg0SURgWD+Lu9EGL8xBW7N828Ji1gOWs5KeBs9s72aqPGa8AKOCejlSMfEqAALFvrVOfsYprEk4xmTKNd44Y99VhscHY8qU7iQOYhFixbvfhXzlZfYgj3hQG+54dReh2KEw==);strokeColor=none;strokeWidth=0;spacingTop=-3;spacingBottom=-3;spacingLeft=-3;spacingRight=-3;points=[];labelBackgroundColor=none;rounded=0;html=1;whiteSpace=wrap;" parent="1" vertex="1">
            <mxGeometry x="2023" y="287" width="307" height="114" as="geometry" />
          </mxCell>
        </UserObject>
        <UserObject label="&lt;div style=&quot;font-size: 1px&quot;&gt;&lt;p style=&quot;text-align:left;margin-left:0;margin-right:0;margin-top:0px;margin-bottom:0px;text-indent:0;vertical-align:middle;direction:ltr;&quot;&gt;&lt;font style=&quot;font-size:17px;font-family:0;color:#ff3333;direction:ltr;letter-spacing:0px;line-height:120%;opacity:1&quot;&gt;&lt;b&gt;xxl-job部署说明：&lt;br/&gt;&lt;/b&gt;&lt;/font&gt;&lt;font style=&quot;font-size:17px;font-family:0;color:#ff3333;direction:ltr;letter-spacing:0px;line-height:120%;opacity:1&quot;&gt;&lt;b&gt;至少2节点高可用&lt;br/&gt;&lt;/b&gt;&lt;/font&gt;&lt;font style=&quot;font-size:NaNpx;font-family:0;color:#ff3333;direction:ltr;letter-spacing:0px;line-height:120%;opacity:1&quot;&gt;&lt;b&gt;最小化配置4C8G&lt;/b&gt;&lt;/font&gt;&lt;/p&gt;&lt;/div&gt;" tags="Background" id="60">
          <mxCell style="verticalAlign=middle;align=left;overflow=width;vsdxID=59;fillColor=none;gradientColor=none;shape=stencil(nZBLDoAgDAVP0z3SIyjeg0SURgWD+Lu9EGL8xBW7N828Ji1gOWs5KeBs9s72aqPGa8AKOCejlSMfEqAALFvrVOfsYprEk4xmTKNd44Y99VhscHY8qU7iQOYhFixbvfhXzlZfYgj3hQG+54dReh2KEw==);strokeColor=none;strokeWidth=0;spacingTop=-3;spacingBottom=-3;spacingLeft=-3;spacingRight=-3;points=[];labelBackgroundColor=none;rounded=0;html=1;whiteSpace=wrap;" parent="1" vertex="1">
            <mxGeometry x="2028" y="460" width="307" height="114" as="geometry" />
          </mxCell>
        </UserObject>
        <UserObject label="&lt;div style=&quot;font-size: 1px&quot;&gt;&lt;p style=&quot;text-align:left;margin-left:0;margin-right:0;margin-top:0px;margin-bottom:0px;text-indent:0;vertical-align:middle;direction:ltr;&quot;&gt;&lt;font style=&quot;font-size:17px;font-family:0;color:#ff3333;direction:ltr;letter-spacing:0px;line-height:120%;opacity:1&quot;&gt;&lt;b&gt;数据同步部署说明：&lt;br/&gt;&lt;/b&gt;&lt;/font&gt;&lt;font style=&quot;font-size:17px;font-family:0;color:#ff3333;direction:ltr;letter-spacing:0px;line-height:120%;opacity:1&quot;&gt;&lt;b&gt;ES:&lt;br/&gt;&lt;/b&gt;&lt;/font&gt;&lt;font style=&quot;font-size:17px;font-family:0;color:#ff3333;direction:ltr;letter-spacing:0px;line-height:120%;opacity:1&quot;&gt;&lt;b&gt;至少三节点集群&lt;br/&gt;&lt;/b&gt;&lt;/font&gt;&lt;font style=&quot;font-size:17px;font-family:0;color:#ff3333;direction:ltr;letter-spacing:0px;line-height:120%;opacity:1&quot;&gt;&lt;b&gt;推荐配置8/16C32G&lt;br/&gt;&lt;/b&gt;&lt;/font&gt;&lt;font style=&quot;font-size:17px;font-family:0;color:#ff3333;direction:ltr;letter-spacing:0px;line-height:120%;opacity:1&quot;&gt;&lt;b&gt;Canal:&lt;br/&gt;&lt;/b&gt;&lt;/font&gt;&lt;font style=&quot;font-size:17px;font-family:0;color:#ff3333;direction:ltr;letter-spacing:0px;line-height:120%;opacity:1&quot;&gt;&lt;b&gt;至少2节点高可用&lt;br/&gt;&lt;/b&gt;&lt;/font&gt;&lt;font style=&quot;font-size:17px;font-family:0;color:#ff3333;direction:ltr;letter-spacing:0px;line-height:120%;opacity:1&quot;&gt;&lt;b&gt;推荐配置8C16G&lt;br/&gt;&lt;/b&gt;&lt;/font&gt;&lt;font style=&quot;font-size:17px;font-family:0;color:#ff3333;direction:ltr;letter-spacing:0px;line-height:120%;opacity:1&quot;&gt;&lt;b&gt;&lt;br/&gt;&lt;/b&gt;&lt;/font&gt;&lt;/p&gt;&lt;/div&gt;" tags="Background" id="61">
          <mxCell style="verticalAlign=middle;align=left;overflow=width;vsdxID=60;fillColor=none;gradientColor=none;shape=stencil(nZBLDoAgDAVP0z3SIyjeg0SURgWD+Lu9EGL8xBW7N828Ji1gOWs5KeBs9s72aqPGa8AKOCejlSMfEqAALFvrVOfsYprEk4xmTKNd44Y99VhscHY8qU7iQOYhFixbvfhXzlZfYgj3hQG+54dReh2KEw==);strokeColor=none;strokeWidth=0;spacingTop=-3;spacingBottom=-3;spacingLeft=-3;spacingRight=-3;points=[];labelBackgroundColor=none;rounded=0;html=1;whiteSpace=wrap;" parent="1" vertex="1">
            <mxGeometry x="2023" y="631" width="307" height="114" as="geometry" />
          </mxCell>
        </UserObject>
        <UserObject label="&lt;div style=&quot;font-size: 1px&quot;&gt;&lt;p style=&quot;text-align:left;margin-left:0;margin-right:0;margin-top:0px;margin-bottom:0px;text-indent:0;vertical-align:middle;direction:ltr;&quot;&gt;&lt;font style=&quot;font-size:17px;font-family:0;color:#ff3333;direction:ltr;letter-spacing:0px;line-height:120%;opacity:1&quot;&gt;&lt;b&gt;数据库部署说明：&lt;br/&gt;&lt;/b&gt;&lt;/font&gt;&lt;font style=&quot;font-size:17px;font-family:0;color:#ff3333;direction:ltr;letter-spacing:0px;line-height:120%;opacity:1&quot;&gt;&lt;b&gt;MongoDB：&lt;br/&gt;&lt;/b&gt;&lt;/font&gt;&lt;font style=&quot;font-size:17px;font-family:0;color:#ff3333;direction:ltr;letter-spacing:0px;line-height:120%;opacity:1&quot;&gt;&lt;b&gt;至少3节点集群&lt;br/&gt;&lt;/b&gt;&lt;/font&gt;&lt;font style=&quot;font-size:17px;font-family:0;color:#ff3333;direction:ltr;letter-spacing:0px;line-height:120%;opacity:1&quot;&gt;&lt;b&gt;推荐配置8C16G&lt;br/&gt;&lt;/b&gt;&lt;/font&gt;&lt;font style=&quot;font-size:17px;font-family:0;color:#ff3333;direction:ltr;letter-spacing:0px;line-height:120%;opacity:1&quot;&gt;&lt;b&gt;&lt;br/&gt;&lt;br/&gt;&lt;/b&gt;&lt;/font&gt;&lt;font style=&quot;font-size:17px;font-family:0;color:#ff3333;direction:ltr;letter-spacing:0px;line-height:120%;opacity:1&quot;&gt;&lt;b&gt;MySQL/Oracle根据实际业务量调整&lt;/b&gt;&lt;/font&gt;&lt;/p&gt;&lt;/div&gt;" tags="Background" id="62">
          <mxCell style="verticalAlign=middle;align=left;overflow=width;vsdxID=61;fillColor=none;gradientColor=none;shape=stencil(nZBLDoAgDAVP0z3SIyjeg0SURgWD+Lu9EGL8xBW7N828Ji1gOWs5KeBs9s72aqPGa8AKOCejlSMfEqAALFvrVOfsYprEk4xmTKNd44Y99VhscHY8qU7iQOYhFixbvfhXzlZfYgj3hQG+54dReh2KEw==);strokeColor=none;strokeWidth=0;spacingTop=-3;spacingBottom=-3;spacingLeft=-3;spacingRight=-3;points=[];labelBackgroundColor=none;rounded=0;html=1;whiteSpace=wrap;" parent="1" vertex="1">
            <mxGeometry x="2022" y="820" width="307" height="114" as="geometry" />
          </mxCell>
        </UserObject>
        <UserObject label="&lt;div style=&quot;font-size: 1px&quot;&gt;&lt;p style=&quot;text-align:center;margin-left:0;margin-right:0;margin-top:0px;margin-bottom:0px;text-indent:0;vertical-align:middle;direction:ltr;&quot;&gt;&lt;font style=&quot;font-size:12px;font-family:0;color:#000000;direction:ltr;letter-spacing:0px;line-height:120%;opacity:1&quot;&gt;&lt;b&gt;注册/发现服务&lt;/b&gt;&lt;/font&gt;&lt;/p&gt;&lt;/div&gt;" tags="Background" id="88">
          <mxCell style="vsdxID=64;edgeStyle=none;dashed=1;dashPattern=1.00 4.00;startArrow=none;endArrow=block;startSize=5;endSize=5;strokeWidth=2;spacingTop=0;spacingBottom=0;spacingLeft=0;spacingRight=0;verticalAlign=middle;html=1;labelBackgroundColor=#ffffff;rounded=0;align=center;" parent="1" edge="1">
            <mxGeometry relative="1" as="geometry">
              <mxPoint as="offset" />
              <Array as="points">
                <mxPoint x="544" y="641.05" />
                <mxPoint x="544" y="641.05" />
              </Array>
              <mxPoint x="544" y="479" as="sourcePoint" />
              <mxPoint x="544" y="803" as="targetPoint" />
            </mxGeometry>
          </mxCell>
        </UserObject>
        <UserObject label="" tags="Background" id="89">
          <mxCell style="vsdxID=77;edgeStyle=none;startArrow=none;endArrow=block;startSize=5;endSize=5;strokeWidth=2;spacingTop=0;spacingBottom=0;spacingLeft=0;spacingRight=0;verticalAlign=middle;html=1;labelBackgroundColor=#ffffff;rounded=0;" parent="1" edge="1">
            <mxGeometry relative="1" as="geometry">
              <mxPoint y="102" as="offset" />
              <Array as="points" />
              <mxPoint x="1070" y="698" as="sourcePoint" />
              <mxPoint x="1070" y="698" as="targetPoint" />
            </mxGeometry>
          </mxCell>
        </UserObject>
        <UserObject label="" tags="Background" id="63">
          <mxCell style="vsdxID=62;edgeStyle=none;startArrow=none;endArrow=block;startSize=5;endSize=5;strokeWidth=2;spacingTop=0;spacingBottom=0;spacingLeft=0;spacingRight=0;verticalAlign=middle;html=1;labelBackgroundColor=#ffffff;rounded=0;exitX=0.5;exitY=1.0161290322580645;exitDx=0;exitDy=0;exitPerimeter=0;entryX=0.5050505050505051;entryY=0;entryDx=0;entryDy=0;entryPerimeter=0;" parent="1" source="14" target="13" edge="1">
            <mxGeometry relative="1" as="geometry">
              <mxPoint y="232" as="offset" />
              <Array as="points">
                <mxPoint x="217" y="457.36" />
                <mxPoint x="216.92" y="457.36" />
              </Array>
            </mxGeometry>
          </mxCell>
        </UserObject>
        <UserObject label="" tags="Background" id="64">
          <mxCell style="vsdxID=63;edgeStyle=none;dashed=1;dashPattern=1.00 4.00;startArrow=none;endArrow=block;startSize=5;endSize=5;strokeWidth=2;spacingTop=0;spacingBottom=0;spacingLeft=0;spacingRight=0;verticalAlign=middle;html=1;labelBackgroundColor=#ffffff;rounded=0;exitX=1.0032467532467533;exitY=0.5019455252918288;exitDx=0;exitDy=0;exitPerimeter=0;entryX=0.003968253968253968;entryY=0.4944649446494465;entryDx=0;entryDy=0;entryPerimeter=0;" parent="1" source="18" target="6" edge="1">
            <mxGeometry relative="1" as="geometry">
              <mxPoint x="-92" y="100" as="offset" />
              <Array as="points">
                <mxPoint x="875.45" y="347" />
                <mxPoint x="875.45" y="345.31" />
              </Array>
            </mxGeometry>
          </mxCell>
        </UserObject>
        <UserObject label="" tags="Background" id="65">
          <mxCell style="vsdxID=65;edgeStyle=none;startArrow=none;endArrow=block;startSize=5;endSize=5;strokeWidth=2;spacingTop=0;spacingBottom=0;spacingLeft=0;spacingRight=0;verticalAlign=middle;html=1;labelBackgroundColor=#ffffff;rounded=0;exitX=1;exitY=0.6789667896678967;exitDx=0;exitDy=0;exitPerimeter=0;entryX=0;entryY=0.5;entryDx=0;entryDy=0;entryPerimeter=0;" parent="1" source="6" target="44" edge="1">
            <mxGeometry relative="1" as="geometry">
              <Array as="points" />
            </mxGeometry>
          </mxCell>
        </UserObject>
        <UserObject label="" tags="Background" id="66">
          <mxCell style="vsdxID=66;edgeStyle=none;startArrow=none;endArrow=block;startSize=5;endSize=5;strokeWidth=2;spacingTop=0;spacingBottom=0;spacingLeft=0;spacingRight=0;verticalAlign=middle;html=1;labelBackgroundColor=#ffffff;rounded=0;exitX=0.996031746031746;exitY=0.8560885608856088;exitDx=0;exitDy=0;exitPerimeter=0;entryX=0;entryY=0.5032679738562091;entryDx=0;entryDy=0;entryPerimeter=0;" parent="1" source="6" target="5" edge="1">
            <mxGeometry relative="1" as="geometry">
              <Array as="points" />
            </mxGeometry>
          </mxCell>
        </UserObject>
        <mxCell id="67" parent="1" vertex="1">
          <mxGeometry x="1162" y="809" as="geometry" />
        </mxCell>
        <UserObject label="" tags="Background" id="68">
          <mxCell style="vsdxID=67;edgeStyle=none;startArrow=none;endArrow=block;startSize=5;endSize=5;strokeWidth=2;spacingTop=0;spacingBottom=0;spacingLeft=0;spacingRight=0;verticalAlign=middle;html=1;labelBackgroundColor=#ffffff;rounded=0;exitX=0.7777777777777778;exitY=0.992619926199262;exitDx=0;exitDy=0;exitPerimeter=0;" parent="1" source="6" target="67" edge="1">
            <mxGeometry relative="1" as="geometry">
              <mxPoint y="266" as="offset" />
              <Array as="points">
                <mxPoint x="1162" y="644.44" />
                <mxPoint x="1162" y="644.44" />
              </Array>
            </mxGeometry>
          </mxCell>
        </UserObject>
        <UserObject label="" tags="Background" id="69">
          <mxCell style="vsdxID=68;edgeStyle=none;startArrow=none;endArrow=block;startSize=5;endSize=5;strokeWidth=2;spacingTop=0;spacingBottom=0;spacingLeft=0;spacingRight=0;verticalAlign=middle;html=1;labelBackgroundColor=#ffffff;rounded=0;exitX=0.588021778584392;exitY=0.006024096385542169;exitDx=0;exitDy=0;exitPerimeter=0;entryX=0;entryY=0.5043478260869565;entryDx=0;entryDy=0;entryPerimeter=0;" parent="1" source="7" target="4" edge="1">
            <mxGeometry relative="1" as="geometry">
              <Array as="points" />
            </mxGeometry>
          </mxCell>
        </UserObject>
        <mxCell id="70" parent="1" vertex="1">
          <mxGeometry x="1721" y="335" as="geometry" />
        </mxCell>
        <UserObject label="" tags="Background" id="71">
          <mxCell style="vsdxID=69;edgeStyle=none;startArrow=none;endArrow=block;startSize=5;endSize=5;strokeWidth=2;spacingTop=0;spacingBottom=0;spacingLeft=0;spacingRight=0;verticalAlign=middle;html=1;labelBackgroundColor=#ffffff;rounded=0;exitX=1;exitY=0.3800738007380074;exitDx=0;exitDy=0;exitPerimeter=0;" parent="1" source="6" target="70" edge="1">
            <mxGeometry relative="1" as="geometry">
              <Array as="points" />
            </mxGeometry>
          </mxCell>
        </UserObject>
        <UserObject label="" tags="Background" id="72">
          <mxCell style="vsdxID=70;edgeStyle=none;startArrow=none;endArrow=block;startSize=5;endSize=5;strokeWidth=2;spacingTop=0;spacingBottom=0;spacingLeft=0;spacingRight=0;verticalAlign=middle;html=1;labelBackgroundColor=#ffffff;rounded=0;exitX=1;exitY=0.5;exitDx=0;exitDy=0;exitPerimeter=0;entryX=0;entryY=0.5;entryDx=0;entryDy=0;entryPerimeter=0;" parent="1" source="50" target="51" edge="1">
            <mxGeometry relative="1" as="geometry">
              <mxPoint x="-53" y="101" as="offset" />
              <Array as="points">
                <mxPoint x="1858.5" y="689" />
                <mxPoint x="1858.5" y="688.95" />
              </Array>
            </mxGeometry>
          </mxCell>
        </UserObject>
        <UserObject label="" tags="Background" id="73">
          <mxCell style="vsdxID=71;edgeStyle=none;startArrow=none;endArrow=block;startSize=5;endSize=5;strokeWidth=2;spacingTop=0;spacingBottom=0;spacingLeft=0;spacingRight=0;verticalAlign=middle;html=1;labelBackgroundColor=#ffffff;rounded=0;exitX=0.7072368421052632;exitY=0;exitDx=0;exitDy=0;exitPerimeter=0;entryX=0.2896825396825397;entryY=1;entryDx=0;entryDy=0;entryPerimeter=0;" parent="1" source="2" target="6" edge="1">
            <mxGeometry relative="1" as="geometry">
              <mxPoint x="-174" y="-61" as="offset" />
              <Array as="points">
                <mxPoint x="692" y="644.09" />
                <mxPoint x="1038.4" y="644.09" />
              </Array>
            </mxGeometry>
          </mxCell>
        </UserObject>
        <UserObject label="" tags="Background" id="74">
          <mxCell style="vsdxID=72;edgeStyle=none;startArrow=none;endArrow=block;startSize=5;endSize=5;strokeWidth=2;spacingTop=0;spacingBottom=0;spacingLeft=0;spacingRight=0;verticalAlign=middle;html=1;labelBackgroundColor=#ffffff;rounded=0;exitX=1;exitY=0.49707602339181284;exitDx=0;exitDy=0;exitPerimeter=0;entryX=0;entryY=0.5029239766081871;entryDx=0;entryDy=0;entryPerimeter=0;" parent="1" source="8" target="2" edge="1">
            <mxGeometry relative="1" as="geometry">
              <mxPoint x="-73" y="101" as="offset" />
              <Array as="points">
                <mxPoint x="404.52" y="891" />
                <mxPoint x="404.52" y="891.05" />
              </Array>
            </mxGeometry>
          </mxCell>
        </UserObject>
        <UserObject label="" tags="Background" id="75">
          <mxCell style="vsdxID=73;edgeStyle=none;startArrow=none;endArrow=block;startSize=5;endSize=5;strokeWidth=2;spacingTop=0;spacingBottom=0;spacingLeft=0;spacingRight=0;verticalAlign=middle;html=1;labelBackgroundColor=#ffffff;rounded=0;exitX=0.6678765880217786;exitY=0.006024096385542169;exitDx=0;exitDy=0;exitPerimeter=0;entryX=0;entryY=0.41732283464566927;entryDx=0;entryDy=0;entryPerimeter=0;" parent="1" source="7" target="40" edge="1">
            <mxGeometry relative="1" as="geometry">
              <Array as="points" />
            </mxGeometry>
          </mxCell>
        </UserObject>
        <UserObject label="&lt;div style=&quot;font-size: 1px&quot;&gt;&lt;p style=&quot;text-align:center;margin-left:0;margin-right:0;margin-top:0px;margin-bottom:0px;text-indent:0;vertical-align:middle;direction:ltr;&quot;&gt;&lt;font style=&quot;font-size:12px;font-family:0;color:#000000;direction:ltr;letter-spacing:0px;line-height:120%;opacity:1&quot;&gt;&lt;b&gt;注册/发现服务&lt;/b&gt;&lt;/font&gt;&lt;/p&gt;&lt;/div&gt;" tags="Background" id="76">
          <mxCell style="vsdxID=74;edgeStyle=none;dashed=1;dashPattern=1.00 4.00;startArrow=block;endArrow=block;startSize=5;endSize=5;strokeWidth=2;spacingTop=0;spacingBottom=0;spacingLeft=0;spacingRight=0;verticalAlign=middle;html=1;labelBackgroundColor=#ffffff;rounded=0;align=center;exitX=0.5009074410163339;exitY=0;exitDx=0;exitDy=0;exitPerimeter=0;entryX=0.5;entryY=0;entryDx=0;entryDy=0;entryPerimeter=0;" parent="1" source="7" target="18" edge="1">
            <mxGeometry relative="1" as="geometry">
              <mxPoint y="-1" as="offset" />
              <Array as="points">
                <mxPoint x="1248" y="189.19" />
                <mxPoint x="629.53" y="189.19" />
              </Array>
            </mxGeometry>
          </mxCell>
        </UserObject>
        <UserObject label="&lt;div style=&quot;font-size: 1px&quot;&gt;&lt;p style=&quot;text-align:center;margin-left:0;margin-right:0;margin-top:0px;margin-bottom:0px;text-indent:0;vertical-align:middle;direction:ltr;&quot;&gt;&lt;font style=&quot;font-size:12px;font-family:0;color:#000000;direction:ltr;letter-spacing:0px;line-height:120%;opacity:1&quot;&gt;&lt;b&gt;注册/发现服务&lt;/b&gt;&lt;/font&gt;&lt;/p&gt;&lt;/div&gt;" tags="Background" id="77">
          <mxCell style="vsdxID=75;edgeStyle=none;dashed=1;dashPattern=1.00 4.00;startArrow=block;endArrow=block;startSize=5;endSize=5;strokeWidth=2;spacingTop=0;spacingBottom=0;spacingLeft=0;spacingRight=0;verticalAlign=middle;html=1;labelBackgroundColor=#ffffff;rounded=0;align=center;exitX=0;exitY=0.5018450184501845;exitDx=0;exitDy=0;exitPerimeter=0;entryX=1.0032467532467533;entryY=0.5019455252918288;entryDx=0;entryDy=0;entryPerimeter=0;" parent="1" source="6" target="18" edge="1">
            <mxGeometry relative="1" as="geometry">
              <mxPoint as="offset" />
              <Array as="points">
                <mxPoint x="874.66" y="347" />
                <mxPoint x="874.66" y="347.18" />
              </Array>
            </mxGeometry>
          </mxCell>
        </UserObject>
        <UserObject label="" tags="Background" id="78">
          <mxCell style="vsdxID=76;edgeStyle=none;startArrow=none;endArrow=block;startSize=5;endSize=5;strokeWidth=2;spacingTop=0;spacingBottom=0;spacingLeft=0;spacingRight=0;verticalAlign=middle;html=1;labelBackgroundColor=#ffffff;rounded=0;exitX=1;exitY=0.5029239766081871;exitDx=0;exitDy=0;exitPerimeter=0;entryX=0;entryY=0.5;entryDx=0;entryDy=0;entryPerimeter=0;" parent="1" source="2" target="7" edge="1">
            <mxGeometry relative="1" as="geometry">
              <mxPoint x="-95" y="102" as="offset" />
              <Array as="points" />
            </mxGeometry>
          </mxCell>
        </UserObject>
        <mxCell id="79" parent="1" vertex="1">
          <mxGeometry x="1861" y="817" as="geometry" />
        </mxCell>
        <UserObject label="" tags="Background" id="80">
          <mxCell style="vsdxID=78;edgeStyle=none;startArrow=none;endArrow=block;startSize=5;endSize=5;strokeWidth=2;spacingTop=0;spacingBottom=0;spacingLeft=0;spacingRight=0;verticalAlign=middle;html=1;labelBackgroundColor=#ffffff;rounded=0;exitX=0.5;exitY=1;exitDx=0;exitDy=0;exitPerimeter=0;" parent="1" source="3" target="79" edge="1">
            <mxGeometry relative="1" as="geometry">
              <mxPoint y="131" as="offset" />
              <Array as="points">
                <mxPoint x="1861" y="787" />
                <mxPoint x="1861" y="787" />
              </Array>
            </mxGeometry>
          </mxCell>
        </UserObject>
        <UserObject label="" tags="Background" id="81">
          <mxCell style="vsdxID=79;edgeStyle=none;startArrow=none;endArrow=block;startSize=5;endSize=5;strokeWidth=2;spacingTop=0;spacingBottom=0;spacingLeft=0;spacingRight=0;verticalAlign=middle;html=1;labelBackgroundColor=#ffffff;rounded=0;exitX=1;exitY=0.18450184501845018;exitDx=0;exitDy=0;exitPerimeter=0;entryX=0;entryY=0.5043478260869565;entryDx=0;entryDy=0;entryPerimeter=0;" parent="1" source="6" target="4" edge="1">
            <mxGeometry relative="1" as="geometry">
              <Array as="points" />
            </mxGeometry>
          </mxCell>
        </UserObject>
        <UserObject label="" tags="Background" id="82">
          <mxCell style="vsdxID=80;edgeStyle=none;startArrow=none;endArrow=block;startSize=5;endSize=5;strokeWidth=2;spacingTop=0;spacingBottom=0;spacingLeft=0;spacingRight=0;verticalAlign=middle;html=1;labelBackgroundColor=#ffffff;rounded=0;exitX=1.0018148820326678;exitY=0.5;exitDx=0;exitDy=0;exitPerimeter=0;entryX=0;entryY=0.5032679738562091;entryDx=0;entryDy=0;entryPerimeter=0;" parent="1" source="7" target="5" edge="1">
            <mxGeometry relative="1" as="geometry">
              <Array as="points" />
            </mxGeometry>
          </mxCell>
        </UserObject>
        <UserObject label="" tags="Background" id="83">
          <mxCell style="vsdxID=81;edgeStyle=none;startArrow=none;endArrow=block;startSize=5;endSize=5;strokeWidth=2;spacingTop=0;spacingBottom=0;spacingLeft=0;spacingRight=0;verticalAlign=middle;html=1;labelBackgroundColor=#ffffff;rounded=0;exitX=0.5050505050505051;exitY=1;exitDx=0;exitDy=0;exitPerimeter=0;entryX=0.5;entryY=0;entryDx=0;entryDy=0;entryPerimeter=0;" parent="1" source="13" target="8" edge="1">
            <mxGeometry relative="1" as="geometry">
              <mxPoint x="-1" y="176" as="offset" />
              <Array as="points">
                <mxPoint x="217" y="730.58" />
                <mxPoint x="217.09" y="730.58" />
              </Array>
            </mxGeometry>
          </mxCell>
        </UserObject>
        <UserObject label="" tags="Background" id="84">
          <mxCell style="vsdxID=82;edgeStyle=none;startArrow=none;endArrow=block;startSize=5;endSize=5;strokeWidth=2;spacingTop=0;spacingBottom=0;spacingLeft=0;spacingRight=0;verticalAlign=middle;html=1;labelBackgroundColor=#ffffff;rounded=0;exitX=0.7731397459165155;exitY=0.006024096385542169;exitDx=0;exitDy=0;exitPerimeter=0;entryX=0;entryY=0.5;entryDx=0;entryDy=0;entryPerimeter=0;" parent="1" source="7" target="44" edge="1">
            <mxGeometry relative="1" as="geometry">
              <Array as="points" />
            </mxGeometry>
          </mxCell>
        </UserObject>
        <UserObject label="" tags="Background" id="85">
          <mxCell style="vsdxID=83;edgeStyle=none;dashed=1;dashPattern=1.00 4.00;startArrow=none;endArrow=block;startSize=5;endSize=5;strokeWidth=2;spacingTop=0;spacingBottom=0;spacingLeft=0;spacingRight=0;verticalAlign=middle;html=1;labelBackgroundColor=#ffffff;rounded=0;exitX=0.5;exitY=0;exitDx=0;exitDy=0;exitPerimeter=0;entryX=0.5009074410163339;entryY=0;entryDx=0;entryDy=0;entryPerimeter=0;" parent="1" source="18" target="7" edge="1">
            <mxGeometry relative="1" as="geometry">
              <mxPoint x="-606" y="723" as="offset" />
              <Array as="points">
                <mxPoint x="629" y="188.39" />
                <mxPoint x="1247.47" y="188.39" />
              </Array>
            </mxGeometry>
          </mxCell>
        </UserObject>
        <mxCell id="86" parent="1" vertex="1">
          <mxGeometry x="544" y="479" as="geometry" />
        </mxCell>
        <UserObject label="" tags="Background" id="87">
          <mxCell style="vsdxID=84;edgeStyle=none;dashed=1;dashPattern=1.00 4.00;startArrow=none;endArrow=block;startSize=5;endSize=5;strokeWidth=2;spacingTop=0;spacingBottom=0;spacingLeft=0;spacingRight=0;verticalAlign=middle;html=1;labelBackgroundColor=#ffffff;rounded=0;exitX=0.22039473684210525;exitY=0.005847953216374269;exitDx=0;exitDy=0;exitPerimeter=0;" parent="1" source="2" target="86" edge="1">
            <mxGeometry relative="1" as="geometry">
              <mxPoint y="-63" as="offset" />
              <Array as="points">
                <mxPoint x="544" y="643.1" />
                <mxPoint x="544" y="643.1" />
              </Array>
            </mxGeometry>
          </mxCell>
        </UserObject>
      </root>
    </mxGraphModel>
  </diagram>
</mxfile>
